SplineFontDB: 3.0
FontName: Shabnam-Light
FullName: Shabnam Light
FamilyName: Shabnam
Weight: Light
Copyright: Copyright (c) 2003 by Bitstream, Inc. All Rights Reserved.\nDejaVu changes are in public domain\nCopyright (c) 2015 by Saber Rastikerdar. All Rights Reserved.\nNon-Arabic(Latin) glyphs and data are imported from Roboto font under the Apache License, Version 2.0.
Version: 1.0.0
ItalicAngle: 0
UnderlinePosition: -500
UnderlineWidth: 100
Ascent: 1638
Descent: 410
InvalidEm: 0
LayerCount: 2
Layer: 0 1 "Back" 1
Layer: 1 1 "Fore" 0
XUID: [1021 502 1027637223 14365787]
UniqueID: 4224070
UseUniqueID: 1
FSType: 0
OS2Version: 1
OS2_WeightWidthSlopeOnly: 0
OS2_UseTypoMetrics: 1
CreationTime: 1431850356
ModificationTime: 1474505351
PfmFamily: 33
TTFWeight: 300
TTFWidth: 5
LineGap: 0
VLineGap: 0
Panose: 2 11 6 3 3 8 4 2 2 4
OS2TypoAscent: 2250
OS2TypoAOffset: 0
OS2TypoDescent: -1100
OS2TypoDOffset: 0
OS2TypoLinegap: 0
OS2WinAscent: 2250
OS2WinAOffset: 0
OS2WinDescent: 1100
OS2WinDOffset: 0
HheadAscent: 2250
HheadAOffset: 0
HheadDescent: -1100
HheadDOffset: 0
OS2SubXSize: 1331
OS2SubYSize: 1433
OS2SubXOff: 0
OS2SubYOff: 286
OS2SupXSize: 1331
OS2SupYSize: 1433
OS2SupXOff: 0
OS2SupYOff: 983
OS2StrikeYSize: 102
OS2StrikeYPos: 530
OS2Vendor: 'PfEd'
OS2CodePages: 00000040.20080000
OS2UnicodeRanges: 80002003.80000000.00000008.00000000
Lookup: 1 9 0 "'fina' Terminal Forms in Arabic lookup 9" { "'fina' Terminal Forms in Arabic lookup 9 subtable"  } ['fina' ('arab' <'KUR ' 'SND ' 'URD ' 'dflt' > ) ]
Lookup: 1 9 0 "'medi' Medial Forms in Arabic lookup 11" { "'medi' Medial Forms in Arabic lookup 11 subtable"  } ['medi' ('arab' <'KUR ' 'SND ' 'URD ' 'dflt' > ) ]
Lookup: 1 9 0 "'init' Initial Forms in Arabic lookup 13" { "'init' Initial Forms in Arabic lookup 13 subtable"  } ['init' ('arab' <'KUR ' 'SND ' 'URD ' 'dflt' > ) ]
Lookup: 4 1 1 "'rlig' Required Ligatures in Arabic lookup 14" { "'rlig' Required Ligatures in Arabic lookup 14 subtable"  } ['rlig' ('arab' <'KUR ' 'dflt' > ) ]

StartChar: exclam
Encoding: 33 33 1
Width: 568
VWidth: 2391
GlyphClass: 2
Flags: W
LayerCount: 2
Fore
SplineSet
168.919921875 132.381835938 m 128,-1,1
 168.919921875 178.925991815 168.919921875 178.925991815 201.647843936 211.653913877 c 128,-1,2
 234.444037082 244.450107022 234.444037082 244.450107022 281.42140954 244.88109209 c 0,3,4
 305.71053969 244.662271098 305.71053969 244.662271098 325.669104904 236.440257335 c 128,-1,5
 345.627670119 228.218243572 345.627670119 228.218243572 362.191999814 211.653913877 c 0,6,7
 394.919921875 178.925991815 394.919921875 178.925991815 394.919921875 132.381835938 c 128,-1,8
 394.919921875 85.8376800602 394.919921875 85.8376800602 362.191999814 53.1097579989 c 0,9,10
 357.443656755 48.3614149398 357.443656755 48.3614149398 352.465147021 44.314936139 c 128,-1,11
 347.486637287 40.2684573381 347.486637287 40.2684573381 342.240686355 36.8947900591 c 128,-1,12
 336.994735423 33.52112278 336.994735423 33.52112278 331.475595576 30.8310392099 c 128,-1,13
 325.956455729 28.1409556398 325.956455729 28.1409556398 320.148276863 26.1139905541 c 128,-1,14
 314.340097997 24.0870254685 314.340097997 24.0870254685 308.214279682 22.7247910417 c 128,-1,15
 302.088461366 21.3625566149 302.088461366 21.3625566149 295.652006211 20.6537476351 c 128,-1,16
 289.215551056 19.9449386554 289.215551056 19.9449386554 282.41843421 19.8825797853 c 0,17,18
 234.442809313 20.3147926222 234.442809313 20.3147926222 201.647843936 53.1097579989 c 128,-1,0
 168.919921875 85.8376800602 168.919921875 85.8376800602 168.919921875 132.381835938 c 128,-1,1
194.965602189 1347.35449219 m 1,19,-1
 360.857770399 1347.35449219 l 1,20,-1
 340.047356315 460.609375 l 1,21,-1
 216.815833129 460.609375 l 1,22,-1
 194.965602189 1347.35449219 l 1,19,-1
EndSplineSet
EndChar

StartChar: period
Encoding: 46 46 2
Width: 572
VWidth: 2391
GlyphClass: 2
Flags: W
LayerCount: 2
Fore
SplineSet
174.255859375 129.43359375 m 128,-1,1
 174.255859375 175.977749627 174.255859375 175.977749627 206.983781436 208.705671689 c 128,-1,2
 239.779974582 241.501864834 239.779974582 241.501864834 286.75734704 241.932849902 c 0,3,4
 311.04647719 241.71402891 311.04647719 241.71402891 331.005042404 233.492015147 c 128,-1,5
 350.963607619 225.270001384 350.963607619 225.270001384 367.527937314 208.705671689 c 0,6,7
 400.255859375 175.977749627 400.255859375 175.977749627 400.255859375 129.43359375 c 128,-1,8
 400.255859375 82.8894378727 400.255859375 82.8894378727 367.527937314 50.1615158114 c 0,9,10
 364.204923722 46.8385022197 364.204923722 46.8385022197 360.771431565 43.8605618108 c 128,-1,11
 357.337939408 40.8826214019 357.337939408 40.8826214019 353.773567137 38.2349637233 c 128,-1,12
 350.209194867 35.5873060447 350.209194867 35.5873060447 346.523683563 33.2786400492 c 128,-1,13
 342.838172259 30.9699740536 342.838172259 30.9699740536 339.009691463 28.9880503867 c 128,-1,14
 335.181210667 27.0061267197 335.181210667 27.0061267197 331.22102563 25.3569438295 c 128,-1,15
 327.260840594 23.7077609392 327.260840594 23.7077609392 323.145596686 22.3817799759 c 128,-1,16
 319.030352778 21.0557990126 319.030352778 21.0557990126 314.772839423 20.0563079197 c 128,-1,17
 310.515326068 19.0568168267 310.515326068 19.0568168267 306.090664463 18.3769872591 c 128,-1,18
 301.666002858 17.6971576915 301.666002858 17.6971576915 297.088506598 17.3375670879 c 128,-1,19
 292.511010338 16.9779764842 292.511010338 16.9779764842 287.75437171 16.9343375978 c 0,20,21
 239.778746813 17.3665504347 239.778746813 17.3665504347 206.983781436 50.1615158114 c 128,-1,0
 174.255859375 82.8894378727 174.255859375 82.8894378727 174.255859375 129.43359375 c 128,-1,1
EndSplineSet
EndChar

StartChar: colon
Encoding: 58 58 3
Width: 579
VWidth: 2391
GlyphClass: 2
Flags: W
LayerCount: 2
Fore
SplineSet
176.203125 834.43359375 m 0,0,1
 176.203125 846.292294134 176.203125 846.292294134 178.197424169 857.019929242 c 128,-1,2
 180.191723338 867.74756435 180.191723338 867.74756435 184.260241549 877.595283099 c 128,-1,3
 188.32875976 887.443001849 188.32875976 887.443001849 194.465352513 896.40978587 c 128,-1,4
 200.601945265 905.376569892 200.601945265 905.376569892 208.931047061 913.705671689 c 0,5,6
 241.727240207 946.501864834 241.727240207 946.501864834 288.704612665 946.932849902 c 0,7,8
 298.440564265 946.845138627 298.440564265 946.845138627 307.441494203 945.480888128 c 128,-1,9
 316.442424141 944.11663763 316.442424141 944.11663763 324.786358363 941.465650793 c 128,-1,10
 333.130292584 938.814663956 333.130292584 938.814663956 340.856041877 934.845289503 c 128,-1,11
 348.581791169 930.875915051 348.581791169 930.875915051 355.713377824 925.605912599 c 128,-1,12
 362.84496448 920.335910148 362.84496448 920.335910148 369.475202939 913.705671689 c 0,13,14
 402.203125 880.977749627 402.203125 880.977749627 402.203125 834.43359375 c 0,15,16
 402.203125 810.770239016 402.203125 810.770239016 394.152397789 791.279111233 c 128,-1,17
 386.101670578 771.78798345 386.101670578 771.78798345 369.475202939 755.161515811 c 0,18,19
 336.679009793 722.365322666 336.679009793 722.365322666 289.701637335 721.934337598 c 0,20,21
 265.412507185 722.15315859 265.412507185 722.15315859 245.453941971 730.375172353 c 128,-1,22
 225.495376756 738.597186116 225.495376756 738.597186116 208.931047061 755.161515811 c 0,23,24
 176.203125 787.889437873 176.203125 787.889437873 176.203125 834.43359375 c 0,0,1
176.203125 129.43359375 m 128,-1,26
 176.203125 175.977749627 176.203125 175.977749627 208.931047061 208.705671689 c 128,-1,27
 241.727240207 241.501864834 241.727240207 241.501864834 288.704612665 241.932849902 c 0,28,29
 298.440564265 241.845138627 298.440564265 241.845138627 307.441494203 240.480888128 c 128,-1,30
 316.442424141 239.11663763 316.442424141 239.11663763 324.786358363 236.465650793 c 128,-1,31
 333.130292584 233.814663956 333.130292584 233.814663956 340.856041877 229.845289503 c 128,-1,32
 348.581791169 225.875915051 348.581791169 225.875915051 355.713377824 220.605912599 c 128,-1,33
 362.84496448 215.335910148 362.84496448 215.335910148 369.475202939 208.705671689 c 0,34,35
 402.203125 175.977749627 402.203125 175.977749627 402.203125 129.43359375 c 128,-1,36
 402.203125 82.8894378727 402.203125 82.8894378727 369.475202939 50.1615158114 c 0,37,38
 366.152189347 46.8385022197 366.152189347 46.8385022197 362.71869719 43.8605618108 c 128,-1,39
 359.285205033 40.8826214019 359.285205033 40.8826214019 355.720832762 38.2349637233 c 128,-1,40
 352.156460492 35.5873060447 352.156460492 35.5873060447 348.470949188 33.2786400492 c 128,-1,41
 344.785437884 30.9699740536 344.785437884 30.9699740536 340.956957088 28.9880503867 c 128,-1,42
 337.128476292 27.0061267197 337.128476292 27.0061267197 333.168291255 25.3569438295 c 128,-1,43
 329.208106219 23.7077609392 329.208106219 23.7077609392 325.092862311 22.3817799759 c 128,-1,44
 320.977618403 21.0557990126 320.977618403 21.0557990126 316.720105048 20.0563079197 c 128,-1,45
 312.462591693 19.0568168267 312.462591693 19.0568168267 308.037930088 18.3769872591 c 128,-1,46
 303.613268483 17.6971576915 303.613268483 17.6971576915 299.035772223 17.3375670879 c 128,-1,47
 294.458275963 16.9779764842 294.458275963 16.9779764842 289.701637335 16.9343375978 c 0,48,49
 241.726012438 17.3665504347 241.726012438 17.3665504347 208.931047061 50.1615158114 c 128,-1,25
 176.203125 82.8894378727 176.203125 82.8894378727 176.203125 129.43359375 c 128,-1,26
EndSplineSet
EndChar

StartChar: afii57388
Encoding: 1548 1548 5
Width: 627
VWidth: 2398
GlyphClass: 2
Flags: W
LayerCount: 2
Fore
SplineSet
322.662460016 16.9335959311 m 0,0,1
 263.174152047 16.9640627766 263.174152047 16.9640627766 229.669552414 42.9269967932 c 128,-1,2
 196.164952781 68.8899308099 196.164952781 68.8899308099 184.19701186 123.705962294 c 0,3,4
 172.454810582 176.902504583 172.454810582 176.902504583 194.533911978 272.124257949 c 0,5,6
 233.189925717 441.650206202 233.189925717 441.650206202 412.357623796 618.178287836 c 1,7,-1
 448.462567371 591.76496049 l 1,8,9
 296.011732504 425.844030985 296.011732504 425.844030985 284.415367588 275.153565114 c 2,10,-1
 282.902733191 255.497441516 l 1,11,-1
 302.615029936 255.774235194 l 2,12,13
 376.017888378 256.804934323 376.017888378 256.804934323 409.809342118 226.288003748 c 128,-1,14
 443.600795859 195.771073172 443.600795859 195.771073172 444.098086239 129.419528975 c 0,15,16
 444.502152475 70.9624270178 444.502152475 70.9624270178 415.687947714 43.9632034888 c 128,-1,17
 386.873742953 16.9639799599 386.873742953 16.9639799599 322.662460016 16.9335959311 c 0,0,1
EndSplineSet
EndChar

StartChar: uni0615
Encoding: 1557 1557 6
Width: 11
VWidth: 2553
GlyphClass: 4
Flags: W
AnchorPoint: "Anchor-10" 648 1490.29 mark 0
AnchorPoint: "Anchor-9" 648 1490.29 mark 0
AnchorPoint: "Anchor-1" 648 2306.6 basemark 0
AnchorPoint: "Anchor-1" 648 1490.29 mark 0
LayerCount: 2
Fore
SplineSet
792.435425649 1887.32004456 m 0,0,1
 769.809659263 1889.03922777 769.809659263 1889.03922777 743.861788332 1880.31781813 c 128,-1,2
 717.913917402 1871.59640849 717.913917402 1871.59640849 688.367221619 1852.37788 c 128,-1,3
 658.820525835 1833.15935151 658.820525835 1833.15935151 626.828347005 1805.79925975 c 128,-1,4
 594.836168174 1778.43916798 594.836168174 1778.43916798 557.247228707 1740.70302422 c 2,5,-1
 487.014559337 1670.1953125 l 1,6,-1
 653.004931938 1670.19532201 l 2,7,8
 859.838714985 1669.98267882 859.838714985 1669.98267882 866.956351815 1776.74723127 c 0,9,10
 870.29187816 1824.55644221 870.29187816 1824.55644221 851.441472293 1854.25132168 c 128,-1,11
 832.591066425 1883.94620114 832.591066425 1883.94620114 792.435425649 1887.32004456 c 0,0,1
912.212644164 1835.14674345 m 0,12,13
 913.411556954 1822.28612278 913.411556954 1822.28612278 913.4192057 1810.2633277 c 0,14,15
 913.476291681 1720.53187507 913.476291681 1720.53187507 845.400941472 1675.58625004 c 128,-1,16
 777.325591263 1630.640625 777.325591263 1630.640625 631.908203125 1630.640625 c 2,17,-1
 365.12109375 1630.640625 l 1,18,-1
 365.12109375 1670.1953125 l 1,19,-1
 466.844726562 1670.1953125 l 1,20,-1
 466.844726562 2171.28320312 l 1,21,-1
 507.670577401 2171.28320312 l 1,22,-1
 508.037806397 1739.54466002 l 1,23,-1
 573.256948812 1806.96065533 l 2,24,25
 636.03861838 1872.08739031 636.03861838 1872.08739031 689.263196034 1904.23841137 c 128,-1,26
 742.487773687 1936.38943242 742.487773687 1936.38943242 784.173559639 1936.69907896 c 0,27,28
 846.230623134 1937.29747353 846.230623134 1937.29747353 876.750440914 1912.67245339 c 128,-1,29
 907.270258694 1888.04743325 907.270258694 1888.04743325 912.212644164 1835.14674345 c 0,12,13
EndSplineSet
EndChar

StartChar: uni061B
Encoding: 1563 1563 7
Width: 627
VWidth: 2398
GlyphClass: 2
Flags: W
LayerCount: 2
Fore
SplineSet
322.744491266 460.862306869 m 0,0,1
 292.843338092 460.877620699 292.843338092 460.877620699 269.782593672 467.289454043 c 128,-1,2
 246.721849252 473.701287386 246.721849252 473.701287386 229.656115717 486.95966263 c 128,-1,3
 212.590382182 500.218037874 212.590382182 500.218037874 201.434355245 520.187275101 c 128,-1,4
 190.278328309 540.156512327 190.278328309 540.156512327 184.27904311 567.634673231 c 0,5,6
 172.536841832 620.831215521 172.536841832 620.831215521 194.615943228 716.052968887 c 0,7,8
 233.271956967 885.57891714 233.271956967 885.57891714 412.439655046 1062.10699877 c 1,9,-1
 448.544598621 1035.69367142 l 1,10,11
 296.093763754 869.772741923 296.093763754 869.772741923 284.497398838 719.082276051 c 2,12,-1
 282.984764441 699.426152453 l 1,13,-1
 302.697061186 699.702946131 l 2,14,15
 376.099919628 700.73364526 376.099919628 700.73364526 409.891373368 670.216714685 c 128,-1,16
 443.682827109 639.69978411 443.682827109 639.69978411 444.180117489 573.348239913 c 0,17,18
 444.584183725 514.891137956 444.584183725 514.891137956 415.769978964 487.891914427 c 128,-1,19
 386.955774203 460.892690898 386.955774203 460.892690898 322.744491266 460.862306869 c 0,0,1
202.907226562 129.43359375 m 128,-1,21
 202.907226562 175.977749627 202.907226562 175.977749627 235.635148623 208.705671689 c 128,-1,22
 268.431341769 241.501864834 268.431341769 241.501864834 315.408714227 241.932849902 c 0,23,24
 363.384339124 241.500637065 363.384339124 241.500637065 396.179304501 208.705671689 c 128,-1,25
 428.907226562 175.977749627 428.907226562 175.977749627 428.907226562 129.43359375 c 128,-1,26
 428.907226562 82.8894378727 428.907226562 82.8894378727 396.179304501 50.1615158114 c 0,27,28
 362.591219257 17.7461815467 362.591219257 17.7461815467 316.405738897 16.9343375978 c 0,29,30
 268.430114 17.3665504347 268.430114 17.3665504347 235.635148623 50.1615158114 c 128,-1,20
 202.907226562 82.8894378727 202.907226562 82.8894378727 202.907226562 129.43359375 c 128,-1,21
EndSplineSet
EndChar

StartChar: uni061F
Encoding: 1567 1567 8
Width: 1041
VWidth: 2398
GlyphClass: 2
Flags: W
LayerCount: 2
Fore
SplineSet
463.284179688 129.43359375 m 128,-1,1
 463.284179688 175.977749627 463.284179688 175.977749627 496.012101749 208.705671689 c 128,-1,2
 528.808294895 241.501864834 528.808294895 241.501864834 575.785667353 241.932849902 c 0,3,4
 600.074797503 241.71402891 600.074797503 241.71402891 620.033362717 233.492015147 c 128,-1,5
 639.991927932 225.270001384 639.991927932 225.270001384 656.556257627 208.705671689 c 128,-1,6
 673.182987719 192.078941597 673.182987719 192.078941597 681.233583703 172.587798402 c 128,-1,7
 689.284179688 153.096655206 689.284179688 153.096655206 689.284179688 129.43359375 c 0,8,9
 689.284179688 82.8894378727 689.284179688 82.8894378727 656.556257627 50.1615158114 c 0,10,11
 622.968172383 17.7461815467 622.968172383 17.7461815467 576.782692023 16.9343375978 c 0,12,13
 528.807067126 17.3665504347 528.807067126 17.3665504347 496.012101749 50.1615158114 c 128,-1,0
 463.284179688 82.8894378727 463.284179688 82.8894378727 463.284179688 129.43359375 c 128,-1,1
495.76618839 449.693359375 m 1,14,15
 490.801837547 516.127370747 490.801837547 516.127370747 454.283674745 570.337730485 c 128,-1,16
 417.765511943 624.548090223 417.765511943 624.548090223 351.444806386 665.323042528 c 0,17,18
 128.1861879 802.93503582 128.1861879 802.93503582 131.997164635 1009.6805237 c 0,19,20
 134.855384659 1170.69358508 134.855384659 1170.69358508 251.700494453 1272.69852254 c 0,21,22
 353.783054151 1362.01750602 353.783054151 1362.01750602 519.033392501 1362.44534347 c 0,23,24
 575.292632396 1362.54971236 575.292632396 1362.54971236 624.088853406 1351.90235634 c 128,-1,25
 672.885074417 1341.25500031 672.885074417 1341.25500031 714.444314343 1319.83217568 c 128,-1,26
 756.003554269 1298.40935106 756.003554269 1298.40935106 790.456309316 1266.0497882 c 128,-1,27
 824.909064363 1233.69022534 824.909064363 1233.69022534 852.348577956 1190.52451717 c 128,-1,28
 879.788091548 1147.358809 879.788091548 1147.358809 900.477654266 1093.07134927 c 1,29,-1
 789.540654598 1039.61438163 l 1,30,31
 693.816576157 1206.02243641 693.816576157 1206.02243641 523.908261342 1204.69800841 c 0,32,33
 451.620404484 1204.3295819 451.620404484 1204.3295819 399.293452453 1178.38859274 c 128,-1,34
 346.966500421 1152.44760358 346.966500421 1152.44760358 317.392100236 1100.96624029 c 128,-1,35
 287.72632921 1049.32582406 287.72632921 1049.32582406 291.03225771 990.921087227 c 0,36,37
 299.603541063 855.92337442 299.603541063 855.92337442 428.044868826 771.003488295 c 0,38,39
 643.921387129 627.698225081 643.921387129 627.698225081 660.402175369 449.693359375 c 1,40,-1
 495.76618839 449.693359375 l 1,14,15
EndSplineSet
EndChar

StartChar: uni0621
Encoding: 1569 1569 9
Width: 807
VWidth: 2553
GlyphClass: 2
Flags: W
AnchorPoint: "Anchor-7" 470.143 -66.166 basechar 0
AnchorPoint: "Anchor-10" 322.188 1091.55 basechar 0
LayerCount: 2
Fore
SplineSet
444.830761936 688.458280151 m 0,0,1
 347.90754313 687.964069629 347.90754313 687.964069629 288.670334695 633.11480256 c 0,2,3
 238.967795239 585.671469443 238.967795239 585.671469443 239.300696223 505.982756059 c 0,4,5
 239.245216716 481.450726869 239.245216716 481.450726869 244.592496977 459.492119317 c 128,-1,6
 249.939777238 437.533511764 249.939777238 437.533511764 260.452972706 418.636263169 c 128,-1,7
 270.966168174 399.739014573 270.966168174 399.739014573 286.43624586 383.565698342 c 128,-1,8
 301.906323545 367.39238211 301.906323545 367.39238211 322.188311147 354.208613109 c 128,-1,9
 342.47029875 341.024844108 342.47029875 341.024844108 367.257166201 330.730339695 c 128,-1,10
 392.044033651 320.435835281 392.044033651 320.435835281 421.282680912 313.073887869 c 0,11,12
 456.754719773 303.994412634 456.754719773 303.994412634 497.698014492 304.097671807 c 0,13,14
 521.682871018 304.066138095 521.682871018 304.066138095 547.646524634 308.934966699 c 128,-1,15
 573.610178251 313.803795303 573.610178251 313.803795303 600.766547212 323.204842642 c 128,-1,16
 627.922916173 332.605889981 627.922916173 332.605889981 657.164781842 346.640326024 c 1,17,-1
 693.305114574 224.850678731 l 1,18,-1
 176.772444722 27.0179117932 l 1,19,-1
 130.040486727 136.924872258 l 1,20,-1
 380.65600877 225.287449887 l 1,21,-1
 323.668106352 240.104392334 l 2,22,23
 214.808319799 268.408104591 214.808319799 268.408104591 162.087083397 336.33185811 c 128,-1,24
 109.365846995 404.255611629 109.365846995 404.255611629 109.699191949 515.670109965 c 0,25,26
 109.982680376 679.947971741 109.982680376 679.947971741 240.802832813 760.712293439 c 0,27,28
 321.209212086 811.026076309 321.209212086 811.026076309 436.382491662 811.607594276 c 0,29,30
 462.831362786 811.723354341 462.831362786 811.723354341 487.853006459 808.598120572 c 128,-1,31
 512.874650132 805.472886803 512.874650132 805.472886803 535.645216106 799.347694508 c 128,-1,32
 558.415782081 793.222502214 558.415782081 793.222502214 579.30078125 784.13854787 c 1,33,-1
 579.30078125 668.624689446 l 1,34,35
 512.753014511 688.055193481 512.753014511 688.055193481 444.830761936 688.458280151 c 0,0,1
EndSplineSet
EndChar

StartChar: uni0627
Encoding: 1575 1575 15
Width: 491
VWidth: 2553
GlyphClass: 2
Flags: W
AnchorPoint: "Anchor-10" 239.338 1495.41 basechar 0
AnchorPoint: "Anchor-7" 243.805 -254.859 basechar 0
LayerCount: 2
Fore
SplineSet
175.299804688 1349.72753906 m 1,0,-1
 314.393554688 1349.72753906 l 1,1,-1
 314.393554688 18.6943359375 l 1,2,-1
 175.299804688 18.6943359375 l 1,3,-1
 175.299804688 1349.72753906 l 1,0,-1
EndSplineSet
Substitution2: "'fina' Terminal Forms in Arabic lookup 9 subtable" uniFE8E
EndChar

StartChar: uni062D
Encoding: 1581 1581 21
Width: 1329
VWidth: 2553
GlyphClass: 2
Flags: W
AnchorPoint: "Anchor-10" 538.649 1165.29 basechar 0
AnchorPoint: "Anchor-7" 312.854 -893.488 basechar 0
LayerCount: 2
Fore
SplineSet
1084.90541783 323.194176287 m 1,0,1
 249.052332305 197.170772604 249.052332305 197.170772604 247.687682029 -197.69443993 c 0,2,3
 246.803950823 -394.19677873 246.803950823 -394.19677873 390.777748216 -492.394979392 c 128,-1,4
 534.751545609 -590.593180054 534.751545609 -590.593180054 814.486629219 -590.172848174 c 2,5,-1
 1210.33007812 -589.929991983 l 1,6,-1
 1210.33007812 -737.436844809 l 1,7,-1
 802.47521245 -736.582051455 l 2,8,9
 421.864181785 -736.011763088 421.864181785 -736.011763088 264.472573842 -585.80422436 c 0,10,11
 105.113078579 -432.922175085 105.113078579 -432.922175085 108.108370846 -215.843447997 c 0,12,13
 113.833136493 326.108309419 113.833136493 326.108309419 989.691832542 436.671998471 c 2,14,-1
 1005.77989033 438.702868321 l 1,15,-1
 1005.43339015 454.914900068 l 2,16,17
 1005.17693575 466.913874731 1005.17693575 466.913874731 998.602196312 477.261135942 c 128,-1,18
 992.027456871 487.608397152 992.027456871 487.608397152 982.486420471 494.608037176 c 128,-1,19
 972.945384071 501.607677199 972.945384071 501.607677199 959.577536141 507.801037938 c 2,20,-1
 741.589216334 608.795621397 l 2,21,22
 655.023703076 648.976896071 655.023703076 648.976896071 578.991315844 649.41922658 c 0,23,24
 494.439455365 648.965016685 494.439455365 648.965016685 428.151937305 598.824458151 c 2,25,-1
 285.406027254 490.849987728 l 1,26,-1
 191.117971902 596.773460426 l 1,27,-1
 322.60265338 707.698216426 l 2,28,29
 381.963483533 757.667628846 381.963483533 757.667628846 443.875817269 782.39587163 c 128,-1,30
 505.788151005 807.124114413 505.788151005 807.124114413 570.791180853 807.236381367 c 0,31,32
 663.366289695 807.011217027 663.366289695 807.011217027 762.980978137 757.359035872 c 2,33,-1
 1083.96340409 597.367807499 l 2,34,35
 1147.24718188 565.738233244 1147.24718188 565.738233244 1177.20120713 532.66301597 c 128,-1,36
 1207.15523238 499.587798696 1207.15523238 499.587798696 1207.26367433 466.459586337 c 2,37,-1
 1207.19799218 340.565078404 l 1,38,39
 1137.6061269 333.626241104 1137.6061269 333.626241104 1084.90541783 323.194176287 c 1,0,1
EndSplineSet
Substitution2: "'fina' Terminal Forms in Arabic lookup 9 subtable" uniFEA2
Substitution2: "'medi' Medial Forms in Arabic lookup 11 subtable" uniFEA4
Substitution2: "'init' Initial Forms in Arabic lookup 13 subtable" uniFEA3
EndChar

StartChar: uni062F
Encoding: 1583 1583 23
Width: 1000
VWidth: 2553
GlyphClass: 2
Flags: W
AnchorPoint: "Anchor-10" 333.659 1300.16 basechar 0
AnchorPoint: "Anchor-7" 386.382 -302.53 basechar 0
LayerCount: 2
Fore
SplineSet
457.976910977 18 m 2,0,-1
 109.899414062 18 l 1,1,-1
 109.899414062 170 l 1,2,-1
 458.900438932 170.000003177 l 2,3,4
 464.050522949 169.996943488 464.050522949 169.996943488 469.101310418 170.038457469 c 128,-1,5
 474.152097887 170.07997145 474.152097887 170.07997145 479.11135054 170.166229626 c 128,-1,6
 484.070603194 170.252487803 484.070603194 170.252487803 488.93128494 170.383477635 c 128,-1,7
 493.791966687 170.514467468 493.791966687 170.514467468 498.561073243 170.690467823 c 128,-1,8
 503.3301798 170.866468179 503.3301798 170.866468179 508.00144109 171.087358177 c 0,9,10
 743.750895979 182.235245931 743.750895979 182.235245931 737.703333926 309.852035968 c 0,11,12
 735.789428817 350.239620967 735.789428817 350.239620967 709.19348991 398.556365387 c 128,-1,13
 682.597551003 446.873109807 682.597551003 446.873109807 631.609841213 505.78016223 c 2,14,-1
 367.153526368 811.311476863 l 1,15,-1
 466.424486443 922.347709642 l 1,16,-1
 753.351405347 588.264759738 l 2,17,18
 882.876781123 437.621116174 882.876781123 437.621116174 882.288674605 297.075319397 c 0,19,20
 881.704735061 157.52534632 881.704735061 157.52534632 777.876231677 87.7819352459 c 128,-1,21
 674.047728294 18.0385241715 674.047728294 18.0385241715 457.976910977 18 c 2,0,-1
EndSplineSet
Substitution2: "'fina' Terminal Forms in Arabic lookup 9 subtable" uniFEAA
EndChar

StartChar: uni0631
Encoding: 1585 1585 25
Width: 757
VWidth: 2553
GlyphClass: 2
Flags: W
AnchorPoint: "Anchor-10" 450.527 955.269 basechar 0
AnchorPoint: "Anchor-7" 333.998 -866.627 basechar 0
LayerCount: 2
Fore
SplineSet
124.187817328 -322.440425432 m 2,0,1
 197.332937488 -322.49072484 197.332937488 -322.49072484 256.735932672 -309.40933115 c 128,-1,2
 316.138927856 -296.32793746 316.138927856 -296.32793746 361.26141097 -270.114540449 c 128,-1,3
 406.383894085 -243.901143437 406.383894085 -243.901143437 436.887431765 -204.965253815 c 128,-1,4
 467.390969445 -166.029364192 467.390969445 -166.029364192 482.886839094 -113.94693317 c 128,-1,5
 498.382708743 -61.8645021486 498.382708743 -61.8645021486 498.3828125 2.53122099779 c 2,6,-1
 498.383760224 590.729123281 l 1,7,-1
 648.180664062 591.581816745 l 1,8,-1
 648.18066527 5.03296308807 l 2,9,10
 648.092782253 -234.796941662 648.092782253 -234.796941662 519.191859543 -353.362094032 c 128,-1,11
 390.290936833 -471.927246403 390.290936833 -471.927246403 126.334271771 -473.412394284 c 2,12,-1
 39.9495013933 -473.898436789 l 1,13,-1
 39.951867191 -322.382499238 l 1,14,-1
 124.187817328 -322.440425432 l 2,0,1
EndSplineSet
PairPos2: "'kern' Horizontal Kerning lookup 15-1" uniFEFB dx=-100 dy=0 dh=-100 dv=0 dx=0 dy=0 dh=0 dv=0
PairPos2: "'kern' Horizontal Kerning lookup 15-1" uniFEDF dx=-100 dy=0 dh=-100 dv=0 dx=0 dy=0 dh=0 dv=0
PairPos2: "'kern' Horizontal Kerning lookup 15-1" uni062F dx=-100 dy=0 dh=-100 dv=0 dx=0 dy=0 dh=0 dv=0
PairPos2: "'kern' Horizontal Kerning lookup 15-2" uniFB90 dx=-142 dy=0 dh=-142 dv=0 dx=0 dy=0 dh=0 dv=0
PairPos2: "'kern' Horizontal Kerning lookup 15-2" uniFB8E dx=-142 dy=0 dh=-142 dv=0 dx=0 dy=0 dh=0 dv=0
PairPos2: "'kern' Horizontal Kerning lookup 15-2" uni06A9 dx=-142 dy=0 dh=-142 dv=0 dx=0 dy=0 dh=0 dv=0
PairPos2: "'kern' Horizontal Kerning lookup 15-2" uniFEEB dx=-100 dy=0 dh=-100 dv=0 dx=0 dy=0 dh=0 dv=0
PairPos2: "'kern' Horizontal Kerning lookup 15-2" uni0647 dx=-100 dy=0 dh=-100 dv=0 dx=0 dy=0 dh=0 dv=0
PairPos2: "'kern' Horizontal Kerning lookup 15-2" uniFEE7 dx=-100 dy=0 dh=-100 dv=0 dx=0 dy=0 dh=0 dv=0
PairPos2: "'kern' Horizontal Kerning lookup 15-2" uniFEE3 dx=-100 dy=0 dh=-100 dv=0 dx=0 dy=0 dh=0 dv=0
PairPos2: "'kern' Horizontal Kerning lookup 15-2" uni0645 dx=-100 dy=0 dh=-100 dv=0 dx=0 dy=0 dh=0 dv=0
PairPos2: "'kern' Horizontal Kerning lookup 15-2" uniFEDB dx=-100 dy=0 dh=-100 dv=0 dx=0 dy=0 dh=0 dv=0
PairPos2: "'kern' Horizontal Kerning lookup 15-2" uni0643 dx=-100 dy=0 dh=-100 dv=0 dx=0 dy=0 dh=0 dv=0
PairPos2: "'kern' Horizontal Kerning lookup 15-2" uniFED7 dx=-100 dy=0 dh=-100 dv=0 dx=0 dy=0 dh=0 dv=0
PairPos2: "'kern' Horizontal Kerning lookup 15-2" uniFED3 dx=-100 dy=0 dh=-100 dv=0 dx=0 dy=0 dh=0 dv=0
PairPos2: "'kern' Horizontal Kerning lookup 15-2" uni0641 dx=-100 dy=0 dh=-100 dv=0 dx=0 dy=0 dh=0 dv=0
PairPos2: "'kern' Horizontal Kerning lookup 15-2" uniFECF dx=-100 dy=0 dh=-100 dv=0 dx=0 dy=0 dh=0 dv=0
PairPos2: "'kern' Horizontal Kerning lookup 15-2" uniFECB dx=-100 dy=0 dh=-100 dv=0 dx=0 dy=0 dh=0 dv=0
PairPos2: "'kern' Horizontal Kerning lookup 15-2" uniFEC7 dx=-100 dy=0 dh=-100 dv=0 dx=0 dy=0 dh=0 dv=0
PairPos2: "'kern' Horizontal Kerning lookup 15-2" uni0638 dx=-100 dy=0 dh=-100 dv=0 dx=0 dy=0 dh=0 dv=0
PairPos2: "'kern' Horizontal Kerning lookup 15-2" uniFEC3 dx=-100 dy=0 dh=-100 dv=0 dx=0 dy=0 dh=0 dv=0
PairPos2: "'kern' Horizontal Kerning lookup 15-2" uni0637 dx=-100 dy=0 dh=-100 dv=0 dx=0 dy=0 dh=0 dv=0
PairPos2: "'kern' Horizontal Kerning lookup 15-2" uniFEBF dx=-100 dy=0 dh=-100 dv=0 dx=0 dy=0 dh=0 dv=0
PairPos2: "'kern' Horizontal Kerning lookup 15-2" uni0636 dx=-100 dy=0 dh=-100 dv=0 dx=0 dy=0 dh=0 dv=0
PairPos2: "'kern' Horizontal Kerning lookup 15-2" uniFEBB dx=-100 dy=0 dh=-100 dv=0 dx=0 dy=0 dh=0 dv=0
PairPos2: "'kern' Horizontal Kerning lookup 15-2" uni0635 dx=-100 dy=0 dh=-100 dv=0 dx=0 dy=0 dh=0 dv=0
PairPos2: "'kern' Horizontal Kerning lookup 15-2" uniFEB7 dx=-100 dy=0 dh=-100 dv=0 dx=0 dy=0 dh=0 dv=0
PairPos2: "'kern' Horizontal Kerning lookup 15-2" uni0634 dx=-100 dy=0 dh=-100 dv=0 dx=0 dy=0 dh=0 dv=0
PairPos2: "'kern' Horizontal Kerning lookup 15-2" uniFEB3 dx=-100 dy=0 dh=-100 dv=0 dx=0 dy=0 dh=0 dv=0
PairPos2: "'kern' Horizontal Kerning lookup 15-2" uni0633 dx=-100 dy=0 dh=-100 dv=0 dx=0 dy=0 dh=0 dv=0
PairPos2: "'kern' Horizontal Kerning lookup 15-2" uniFEA7 dx=-100 dy=0 dh=-100 dv=0 dx=0 dy=0 dh=0 dv=0
PairPos2: "'kern' Horizontal Kerning lookup 15-2" uniFEA3 dx=-100 dy=0 dh=-100 dv=0 dx=0 dy=0 dh=0 dv=0
PairPos2: "'kern' Horizontal Kerning lookup 15-2" uniFE9F dx=-100 dy=0 dh=-100 dv=0 dx=0 dy=0 dh=0 dv=0
PairPos2: "'kern' Horizontal Kerning lookup 15-2" uniFE9B dx=-100 dy=0 dh=-100 dv=0 dx=0 dy=0 dh=0 dv=0
PairPos2: "'kern' Horizontal Kerning lookup 15-2" uni062B dx=-100 dy=0 dh=-100 dv=0 dx=0 dy=0 dh=0 dv=0
PairPos2: "'kern' Horizontal Kerning lookup 15-2" uniFE97 dx=-100 dy=0 dh=-100 dv=0 dx=0 dy=0 dh=0 dv=0
PairPos2: "'kern' Horizontal Kerning lookup 15-2" uni062A dx=-100 dy=0 dh=-100 dv=0 dx=0 dy=0 dh=0 dv=0
PairPos2: "'kern' Horizontal Kerning lookup 15-2" uni0629 dx=-100 dy=0 dh=-100 dv=0 dx=0 dy=0 dh=0 dv=0
PairPos2: "'kern' Horizontal Kerning lookup 15-2" uniFE91 dx=-47 dy=0 dh=-47 dv=0 dx=0 dy=0 dh=0 dv=0
PairPos2: "'kern' Horizontal Kerning lookup 15-2" uni0628 dx=-100 dy=0 dh=-100 dv=0 dx=0 dy=0 dh=0 dv=0
PairPos2: "'kern' Horizontal Kerning lookup 15-2" uni0627 dx=-100 dy=0 dh=-100 dv=0 dx=0 dy=0 dh=0 dv=0
PairPos2: "'kern' Horizontal Kerning lookup 15-2" uni0622 dx=-100 dy=0 dh=-100 dv=0 dx=0 dy=0 dh=0 dv=0
PairPos2: "'kern' Horizontal Kerning lookup 15-2" uni0621 dx=-100 dy=0 dh=-100 dv=0 dx=0 dy=0 dh=0 dv=0
PairPos2: "'kern' Horizontal Kerning lookup 15-2" uniFB94 dx=-142 dy=0 dh=-142 dv=0 dx=0 dy=0 dh=0 dv=0
PairPos2: "'kern' Horizontal Kerning lookup 15-2" uniFB92 dx=-142 dy=0 dh=-142 dv=0 dx=0 dy=0 dh=0 dv=0
PairPos2: "'kern' Horizontal Kerning lookup 15-2" afii57509 dx=-142 dy=0 dh=-142 dv=0 dx=0 dy=0 dh=0 dv=0
PairPos2: "'kern' Horizontal Kerning lookup 15-2" uniFB7C dx=-100 dy=0 dh=-100 dv=0 dx=0 dy=0 dh=0 dv=0
PairPos2: "'kern' Horizontal Kerning lookup 15-2" afii57506 dx=-100 dy=0 dh=-100 dv=0 dx=0 dy=0 dh=0 dv=0
PairPos2: "'kern' Horizontal Kerning lookup 15-2" afii57440 dx=-94 dy=0 dh=-94 dv=0 dx=0 dy=0 dh=0 dv=0
Substitution2: "'fina' Terminal Forms in Arabic lookup 9 subtable" uniFEAE
EndChar

StartChar: uni0633
Encoding: 1587 1587 27
Width: 2463
VWidth: 2553
GlyphClass: 2
Flags: W
AnchorPoint: "Anchor-10" 547.364 987.957 basechar 0
AnchorPoint: "Anchor-7" 309.092 -641.765 basechar 0
LayerCount: 2
Fore
SplineSet
109.008411882 428.003341644 m 1,0,-1
 251.91796875 428.029862422 l 1,1,-1
 251.917969199 104.443247191 l 2,2,3
 252.000977097 -91.3041698553 252.000977097 -91.3041698553 364.044358549 -184.11750149 c 0,4,5
 482.596866421 -281.490234375 482.596866421 -281.490234375 693.396484375 -281.490234375 c 2,6,-1
 718.926767725 -281.490234375 l 1,7,-1
 740.87173363 -280.894805223 l 2,8,9
 1162.04905401 -268.998614465 1162.04905401 -268.998614465 1161.88573981 48.5668740345 c 2,10,-1
 1161.58835262 626.838153805 l 1,11,-1
 1315.926003 626.974374149 l 1,12,-1
 1316.48346928 365.082312041 l 2,13,14
 1317 233 1317 233 1414.03783667 184.527869764 c 0,15,16
 1462 161 1462 161 1538.43333067 159.512825522 c 128,-1,17
 1615 158 1615 158 1657.00597224 219.808203573 c 0,18,19
 1699.00411084 281.005990127 1699.00411084 281.005990127 1698.69036366 396.835865609 c 2,20,-1
 1698.04784589 634.041992188 l 1,21,-1
 1845.99048418 634.041992188 l 1,22,-1
 1846.58890021 390.616890925 l 2,23,24
 1847 278 1847 278 1898.99927594 218.431247585 c 128,-1,25
 1951 159 1951 159 2041.46162395 160.571354201 c 0,26,27
 2134 162 2134 162 2171.06271323 227.059156804 c 0,28,29
 2210.39550781 298.720585841 2210.39550781 298.720585841 2210.39550781 411.665039062 c 2,30,-1
 2210.39550781 675.979492188 l 1,31,-1
 2353.15234375 675.979492188 l 1,32,-1
 2353.15234495 417.654026732 l 2,33,34
 2353 18 2353 18 2056.34863403 16.9334407426 c 0,35,36
 1843 16 1843 16 1773.23632812 226.982421875 c 5,37,38
 1694.96362538 17.2226627879 1694.96362538 17.2226627879 1533.84277344 16.013671875 c 0,39,40
 1369 15 1369 15 1303.02866267 165.22901486 c 1,41,-1
 1302.29437285 44.0312874764 l 2,42,43
 1301 -188 1301 -188 1161.07871703 -306.664026027 c 0,44,45
 1021 -426 1021 -426 718.140223562 -434.787109375 c 1,46,-1
 691.218225047 -434.787110507 l 2,47,48
 220 -435 220 -435 129.257271999 -80.3532359345 c 0,49,50
 109.210196705 -3.80264486414 109.210196705 -3.80264486414 109.160154285 103.284778666 c 2,51,-1
 109.008411882 428.003341644 l 1,0,-1
EndSplineSet
Substitution2: "'fina' Terminal Forms in Arabic lookup 9 subtable" uniFEB2
Substitution2: "'medi' Medial Forms in Arabic lookup 11 subtable" uniFEB4
Substitution2: "'init' Initial Forms in Arabic lookup 13 subtable" uniFEB3
EndChar

StartChar: uni0635
Encoding: 1589 1589 29
Width: 2488
VWidth: 2553
GlyphClass: 2
Flags: W
AnchorPoint: "Anchor-10" 539.495 987.957 basechar 0
AnchorPoint: "Anchor-7" 246.07 -630.58 basechar 0
LayerCount: 2
Fore
SplineSet
2232.135776 427.708799728 m 0,0,1
 2218.07244466 487.496870496 2218.07244466 487.496870496 2186.65052743 528.198321105 c 128,-1,2
 2155.2286102 568.899771714 2155.2286102 568.899771714 2107.55670957 589.454309699 c 128,-1,3
 2059.88480893 610.008847683 2059.88480893 610.008847683 1997.11986403 610.013671833 c 0,4,5
 1785.46075849 609.999211704 1785.46075849 609.999211704 1596.64764781 199.042183063 c 2,6,-1
 1584.92492294 173.52734375 l 1,7,-1
 1971.31608116 173.527428817 l 2,8,9
 2131.73090419 174.020608437 2131.73090419 174.020608437 2188.8595762 223.458882289 c 0,10,11
 2205.71650156 238.400247954 2205.71650156 238.400247954 2216.94732151 257.78693751 c 128,-1,12
 2228.17814146 277.173627066 2228.17814146 277.173627066 2233.58907073 299.910848697 c 128,-1,13
 2239 322.648070327 2239 322.648070327 2239 349 c 0,14,15
 2239 395.921327586 2239 395.921327586 2232.135776 427.708799728 c 0,0,1
1454.63121345 208.115035291 m 2,16,17
 1681.02982788 755 1681.02982788 755 2007.5 755 c 0,18,19
 2068.5894281 755 2068.5894281 755 2120.18810043 740.13554682 c 128,-1,20
 2171.78677276 725.27109364 2171.78677276 725.27109364 2214.2074899 695.587052402 c 128,-1,21
 2256.62820704 665.903011165 2256.62820704 665.903011165 2290.61956117 621.081194093 c 0,22,23
 2372.02121661 512.953721699 2372.02121661 512.953721699 2372.56255595 359.423870353 c 0,24,25
 2372.97856275 192.575429306 2372.97856275 192.575429306 2264.64933275 104.970052002 c 0,26,27
 2156.97011793 18.5649459462 2156.97011793 18.5649459462 1951.25592722 18.1845681997 c 2,28,-1
 1570.32421875 18 l 2,29,30
 1401.85948347 18 1401.85948347 18 1335.42200333 121.97879813 c 2,31,-1
 1302.25390625 173.888937764 l 1,32,-1
 1302.25390879 43.8747983935 l 2,33,34
 1302.13079773 -187.826848043 1302.13079773 -187.826848043 1162.54224244 -306.651534218 c 128,-1,35
 1022.95368715 -425.476220393 1022.95368715 -425.476220393 736.882137713 -434.213467676 c 2,36,-1
 718.1001845 -434.787109375 l 1,37,-1
 691.181115277 -434.787110507 l 2,38,39
 397.165979521 -434.891399693 397.165979521 -434.891399693 253.191469907 -301.468295789 c 128,-1,40
 109.216960294 -168.045191884 109.216960294 -168.045191884 109.121092626 103.282727086 c 2,41,-1
 109.006359841 428.003342011 l 1,42,-1
 251.877929688 428.029861675 l 1,43,-1
 251.877930681 104.44323897 l 2,44,45
 251.941445199 -86.7446058043 251.941445199 -86.7446058043 364.024639584 -184.11742009 c 128,-1,46
 476.10783397 -281.490234375 476.10783397 -281.490234375 693.356445312 -281.490234375 c 2,47,-1
 718.833735624 -281.490234375 l 1,48,-1
 746.767100066 -280.896858793 l 2,49,50
 950.495528099 -276.336248787 950.495528099 -276.336248787 1056.21717367 -193.51414318 c 128,-1,51
 1161.93881924 -110.692037573 1161.93881924 -110.692037573 1161.84570004 48.5681417602 c 2,52,-1
 1161.50759258 626.82756555 l 1,53,-1
 1306.9564881 626.901931528 l 1,54,-1
 1307.03906283 446.606986073 l 2,55,56
 1307.03107686 405.186509959 1307.03107686 405.186509959 1311.72053352 370.326841524 c 128,-1,57
 1316.40999018 335.467173088 1316.40999018 335.467173088 1326.26317511 306.393676494 c 128,-1,58
 1336.11636004 277.3201799 1336.11636004 277.3201799 1350.99981363 255.555453995 c 128,-1,59
 1365.88326722 233.790728091 1365.88326722 233.790728091 1386.64299047 219.029908373 c 128,-1,60
 1407.40271372 204.269088655 1407.40271372 204.269088655 1433.52553165 197.565002639 c 2,61,-1
 1448.6562093 193.681908375 l 1,62,-1
 1454.63121345 208.115035291 l 2,16,17
EndSplineSet
Substitution2: "'fina' Terminal Forms in Arabic lookup 9 subtable" uniFEBA
Substitution2: "'medi' Medial Forms in Arabic lookup 11 subtable" uniFEBC
Substitution2: "'init' Initial Forms in Arabic lookup 13 subtable" uniFEBB
EndChar

StartChar: uni0637
Encoding: 1591 1591 31
Width: 1281
VWidth: 2553
GlyphClass: 2
Flags: W
AnchorPoint: "Anchor-10" 385.723 1490.59 basechar 0
AnchorPoint: "Anchor-7" 654.688 -277.098 basechar 0
LayerCount: 2
Fore
SplineSet
1025.79378326 427.783791825 m 0,0,1
 1004.86978049 517.473706675 1004.86978049 517.473706675 945.079288865 563.740064462 c 128,-1,2
 885.288797235 610.006422249 885.288797235 610.006422249 790.795649414 610.013671833 c 0,3,4
 578.443047964 609.999213151 578.443047964 609.999213151 390.312967558 199.019371402 c 2,5,-1
 378.643740202 173.52734375 l 1,6,-1
 764.991745952 173.527428459 l 2,7,8
 818.089855362 173.690329841 818.089855362 173.690329841 858.671647639 178.689329882 c 128,-1,9
 899.253439917 183.688329923 899.253439917 183.688329923 930.845223118 194.822961478 c 128,-1,10
 962.437006319 205.957593033 962.437006319 205.957593033 982.566170524 223.486353456 c 0,11,12
 1033.03617952 267.89391227 1033.03617952 267.89391227 1032.67606924 348.97512887 c 0,13,14
 1032.82396456 396.174505155 1032.82396456 396.174505155 1025.79378326 427.783791825 c 0,0,1
333.905273438 397.666595601 m 1,15,-1
 333.905273438 1350.64355469 l 1,16,-1
 473 1350.64355469 l 1,17,-1
 473 579.778938183 l 1,18,-1
 503.649354837 610.05336773 l 2,19,20
 577.60715847 683.1064655 577.60715847 683.1064655 651.393151438 719.05323275 c 128,-1,21
 725.179144405 755 725.179144405 755 799.17578125 755 c 0,22,23
 986.018412429 755 986.018412429 755 1085.30009973 623.074877746 c 0,24,25
 1125.6427366 569.535898417 1125.6427366 569.535898417 1145.88285892 503.844071531 c 128,-1,26
 1166.12298124 438.152244645 1166.12298124 438.152244645 1166.23845085 359.390611823 c 0,27,28
 1166.60456041 275.053989304 1166.60456041 275.053989304 1139.67670407 211.956199895 c 128,-1,29
 1112.74884773 148.858410486 1112.74884773 148.858410486 1058.30529875 104.953928754 c 0,30,31
 951.895054983 18.2445986355 951.895054983 18.2445986355 744.935208755 18.1845695553 c 2,32,-1
 109.770507812 18.0003388774 l 1,33,-1
 109.770507812 171.170446025 l 1,34,-1
 225.80979957 170.978821678 l 1,35,-1
 230.009749322 183.11200985 l 2,36,37
 247.56214664 233.818935434 247.56214664 233.818935434 331.829492641 393.727523214 c 2,38,-1
 333.905273438 397.666595601 l 1,15,-1
EndSplineSet
Substitution2: "'fina' Terminal Forms in Arabic lookup 9 subtable" uniFEC2
Substitution2: "'medi' Medial Forms in Arabic lookup 11 subtable" uniFEC4
Substitution2: "'init' Initial Forms in Arabic lookup 13 subtable" uniFEC3
EndChar

StartChar: uni0639
Encoding: 1593 1593 33
Width: 1260
VWidth: 2553
GlyphClass: 2
Flags: W
AnchorPoint: "Anchor-10" 665.349 1455.99 basechar 0
AnchorPoint: "Anchor-7" 290.438 -871.494 basechar 0
LayerCount: 2
Fore
SplineSet
1149.62364012 -735.938346392 m 1,0,-1
 800.583599552 -735.0987238 l 2,1,2
 461.017346149 -734.019041717 461.017346149 -734.019041717 291.810601734 -607.326707402 c 0,3,4
 109.027403416 -470.028867481 109.027403416 -470.028867481 109.804594959 -214.822367201 c 0,5,6
 110.961019483 145.814856188 110.961019483 145.814856188 522.276146388 310.963139531 c 2,7,-1
 568.547829028 329.541811832 l 1,8,-1
 521.078605364 344.803151337 l 2,9,10
 426.02415412 375.363125568 426.02415412 375.363125568 369.454502618 451.817565152 c 0,11,12
 305.050329323 536.973721834 305.050329323 536.973721834 305.923386275 641.871719688 c 0,13,14
 306.951054904 786.068169462 306.951054904 786.068169462 387.395016689 875.976126751 c 0,15,16
 496.010471163 996.977554104 496.010471163 996.977554104 712.956009538 996.371529875 c 0,17,18
 854.139504976 996.026488446 854.139504976 996.026488446 995.713221878 925.961121736 c 1,19,-1
 962.518981821 804.538251044 l 1,20,21
 895.407180604 829.508283345 895.407180604 829.508283345 836.206739533 841.748554692 c 128,-1,22
 777.006298462 853.988826039 777.006298462 853.988826039 723.071820562 853.978400587 c 0,23,24
 589.948845904 854.509569643 589.948845904 854.509569643 518.782939379 799.025247538 c 128,-1,25
 447.617032853 743.540925432 447.617032853 743.540925432 446.000986734 634.188471343 c 0,26,27
 445.281637457 565.490615445 445.281637457 565.490615445 476.047684468 513.738945952 c 128,-1,28
 506.813731478 461.987276459 506.813731478 461.987276459 566.299865817 428.784903105 c 128,-1,29
 625.786000156 395.58252975 625.786000156 395.58252975 713.073161685 380.055543014 c 2,30,-1
 715.270263065 379.6647139 l 1,31,-1
 1072.82056593 404.968936292 l 1,32,-1
 1072.69445693 264.276158662 l 1,33,34
 663.32203735 253.184597783 663.32203735 253.184597783 453.704926034 127.414330993 c 0,35,36
 245.906986399 2.10904076116 245.906986399 2.10904076116 247.933303488 -219.904252732 c 0,37,38
 249.545904152 -404.566794868 249.545904152 -404.566794868 388.929793135 -497.201761325 c 128,-1,39
 528.313682117 -589.836727782 528.313682117 -589.836727782 796.516036181 -590.499944967 c 2,40,-1
 1150.46805556 -591.375205971 l 1,41,-1
 1149.62364012 -735.938346392 l 1,0,-1
EndSplineSet
Substitution2: "'fina' Terminal Forms in Arabic lookup 9 subtable" uniFECA
Substitution2: "'medi' Medial Forms in Arabic lookup 11 subtable" uniFECC
Substitution2: "'init' Initial Forms in Arabic lookup 13 subtable" uniFECB
EndChar

StartChar: afii57440
Encoding: 1600 1600 35
Width: 763
VWidth: 2553
GlyphClass: 2
Flags: W
AnchorPoint: "Anchor-10" 381.758 1491.26 basechar 0
AnchorPoint: "Anchor-7" 381.758 -141.351 basechar 0
LayerCount: 2
Fore
SplineSet
767.9765625 170 m 2,0,1
 824.995259831 170 824.995259831 170 824.9765625 99 c 2,2,-1
 824.9765625 88 l 2,3,4
 824.9765625 18 824.9765625 18 767.9765625 18 c 2,5,-1
 -5.0234375 18 l 2,6,7
 -62.0047940341 18 -62.0047940341 18 -62.0234375 88 c 2,8,-1
 -62.0234375 99 l 2,9,10
 -62.0234375 170 -62.0234375 170 -5.0234375 170 c 6,11,-1
 767.9765625 170 l 2,0,1
EndSplineSet
EndChar

StartChar: uni0643
Encoding: 1603 1603 38
Width: 1877
VWidth: 2553
GlyphClass: 2
Flags: W
AnchorPoint: "Anchor-10" 597.194 1631.14 basechar 0
AnchorPoint: "Anchor-7" 427.008 -289.033 basechar 0
LayerCount: 2
Fore
SplineSet
701.264071749 725.784806003 m 2,0,1
 734.163629661 721.638587564 734.163629661 721.638587564 767.055773329 719.564899251 c 128,-1,2
 799.947916998 717.491210938 799.947916998 717.491210938 832.82421875 717.491210938 c 0,3,4
 900.820371223 717.491210938 900.820371223 717.491210938 959.549116176 740.317384064 c 0,5,6
 989.387769509 751.914677692 989.387769509 751.914677692 1010.15623582 766.296340473 c 128,-1,7
 1030.92470213 780.678003254 1030.92470213 780.678003254 1042.99213622 800.003803727 c 128,-1,8
 1055.05957031 819.329604201 1055.05957031 819.329604201 1055.05957031 841.939453125 c 0,9,10
 1055.05957031 909.4991178 1055.05957031 909.4991178 948.988640341 926.280812024 c 0,11,12
 927.393443911 929.697468005 927.393443911 929.697468005 909.232735818 935.014551572 c 128,-1,13
 891.072027726 940.331635138 891.072027726 940.331635138 876.841178517 947.31524888 c 128,-1,14
 862.610329309 954.298862623 862.610329309 954.298862623 851.861929685 962.680682023 c 128,-1,15
 841.113530061 971.062501424 841.113530061 971.062501424 833.522838303 980.990719324 c 0,16,17
 784.518185804 1045.08301329 784.518185804 1045.08301329 806.14499844 1113.05842087 c 0,18,19
 849.6240547 1249.7196149 849.6240547 1249.7196149 1101.77908405 1268.45963945 c 2,20,-1
 1111.71484375 1269.19789305 l 1,21,-1
 1111.71484375 1204.7532978 l 1,22,-1
 1103.21548651 1204.0618404 l 2,23,24
 991.169009287 1194.94786848 991.169009287 1194.94786848 930.880891362 1163.53285576 c 128,-1,25
 870.592773438 1132.11784304 870.592773438 1132.11784304 870.592773438 1073.37695312 c 0,26,27
 870.592773438 1058.24587244 870.592773438 1058.24587244 875.176850243 1045.06317192 c 128,-1,28
 879.760927048 1031.88047141 879.760927048 1031.88047141 888.383264619 1021.45205709 c 128,-1,29
 897.005602189 1011.02364277 897.005602189 1011.02364277 909.271897858 1003.14522653 c 128,-1,30
 921.538193526 995.266810295 921.538193526 995.266810295 937.019839879 990.285741801 c 0,31,32
 951.987635927 985.470595879 951.987635927 985.470595879 972.35380816 981.226953198 c 128,-1,33
 992.719980392 976.983310517 992.719980392 976.983310517 1019.16101149 973.093933746 c 0,34,35
 1064.82693566 966.377387052 1064.82693566 966.377387052 1094.37357573 937.756807601 c 0,36,37
 1108.44500799 924.126012002 1108.44500799 924.126012002 1115.5271915 905.269757817 c 128,-1,38
 1122.609375 886.413503632 1122.609375 886.413503632 1122.609375 860.932617188 c 0,39,40
 1122.609375 834.569483564 1122.609375 834.569483564 1117.39738476 813.518798668 c 128,-1,41
 1112.18539452 792.468113772 1112.18539452 792.468113772 1102.07598628 776.406785607 c 0,42,43
 995.689643817 607.385796304 995.689643817 607.385796304 698.679014807 653.809326912 c 2,44,-1
 690.857421875 655.032258857 l 1,45,-1
 690.857421875 727.096203669 l 1,46,-1
 701.264071749 725.784806003 l 2,0,1
1371.84667969 170.23046875 m 2,47,48
 1478.79586919 170.23046875 1478.79586919 170.23046875 1533.1059424 242.323656139 c 128,-1,49
 1587.41601562 314.416843527 1587.41601562 314.416843527 1587.41601562 450.396484375 c 2,50,-1
 1587.41601562 1349.18847656 l 1,51,-1
 1730.17382812 1349.18847656 l 1,52,-1
 1730.17382931 477.398142032 l 2,53,54
 1730.13114097 359.915758577 1730.13114097 359.915758577 1707.38795546 273.172496329 c 128,-1,55
 1684.64476994 186.429234081 1684.64476994 186.429234081 1638.80937184 129.549110431 c 128,-1,56
 1592.97397373 72.6689867805 1592.97397373 72.6689867805 1524.74236818 44.8012902652 c 128,-1,57
 1456.51076262 16.93359375 1456.51076262 16.93359375 1364.62988281 16.93359375 c 2,58,-1
 472.958207583 16.933593478 l 2,59,60
 381.137930695 16.9495572407 381.137930695 16.9495572407 313.112941361 42.6793573694 c 128,-1,61
 245.087952028 68.4091574982 245.087952028 68.4091574982 199.596183585 120.892203365 c 128,-1,62
 154.104415143 173.375249233 154.104415143 173.375249233 131.627162677 253.148261046 c 128,-1,63
 109.149910212 332.921272859 109.149910212 332.921272859 109.149414062 441.006918564 c 2,64,-1
 109.148520126 635.75 l 1,65,-1
 251.904296875 635.75 l 1,66,-1
 251.904298062 451.564753236 l 2,67,68
 251.953878017 315.019025843 251.953878017 315.019025843 306.246250842 242.624747297 c 128,-1,69
 360.538623666 170.23046875 360.538623666 170.23046875 467.470703125 170.23046875 c 2,70,-1
 1371.84667969 170.23046875 l 2,47,48
EndSplineSet
Substitution2: "'fina' Terminal Forms in Arabic lookup 9 subtable" uniFEDA
Substitution2: "'medi' Medial Forms in Arabic lookup 11 subtable" uniFEDC
Substitution2: "'init' Initial Forms in Arabic lookup 13 subtable" uniFEDB
EndChar

StartChar: uni0644
Encoding: 1604 1604 39
Width: 1377
VWidth: 2553
GlyphClass: 2
Flags: W
AnchorPoint: "Anchor-10" 397.625 1229.69 basechar 0
AnchorPoint: "Anchor-7" 360.231 -611.937 basechar 0
LayerCount: 2
Fore
SplineSet
251.877929688 104.44921875 m 2,0,1
 251.877929688 -83.6034895855 251.877929688 -83.6034895855 359.647922403 -179.565904949 c 128,-1,2
 467.417915117 -275.528320312 467.417915117 -275.528320312 676.356445312 -275.528320312 c 2,3,-1
 701.835049359 -275.528320312 l 1,4,-1
 729.726733297 -274.934787067 l 2,5,6
 818.405999304 -273.139015565 818.405999304 -273.139015565 885.974081854 -249.039848894 c 128,-1,7
 953.542164404 -224.940682224 953.542164404 -224.940682224 998.887222096 -179.300359842 c 128,-1,8
 1044.23227979 -133.660037459 1044.23227979 -133.660037459 1067.29835532 -66.4442380379 c 128,-1,9
 1090.36443085 0.771561383627 1090.36443085 0.771561383627 1090.36523438 88.4158506008 c 2,10,-1
 1090.3767881 1348.63671876 l 1,11,-1
 1228.28417202 1348.63671875 l 1,12,-1
 1227.25488502 83.9942776731 l 2,13,14
 1227.13054836 -166.737514822 1227.13054836 -166.737514822 1101.58672486 -293.575413249 c 128,-1,15
 976.042901359 -420.413311676 976.042901359 -420.413311676 719.880211845 -428.25060607 c 2,16,-1
 701.099709515 -428.825195312 l 1,17,-1
 674.181128107 -428.825196121 l 2,18,19
 388.764953055 -428.910746941 388.764953055 -428.910746941 248.990446437 -297.033879159 c 128,-1,20
 109.21593982 -165.157011377 109.21593982 -165.157011377 109.121092626 103.282727086 c 2,21,-1
 109.006359841 428.003342011 l 1,22,-1
 251.877929688 428.029861675 l 1,23,-1
 251.877929688 104.44921875 l 2,0,1
EndSplineSet
Substitution2: "'fina' Terminal Forms in Arabic lookup 9 subtable" uniFEDE
Substitution2: "'medi' Medial Forms in Arabic lookup 11 subtable" uniFEE0
Substitution2: "'init' Initial Forms in Arabic lookup 13 subtable" uniFEDF
EndChar

StartChar: uni0645
Encoding: 1605 1605 40
Width: 1284
VWidth: 2553
GlyphClass: 2
Flags: W
AnchorPoint: "Anchor-10" 635.137 1252.98 basechar 0
AnchorPoint: "Anchor-7" 134.119 -737.918 basechar 0
LayerCount: 2
Fore
SplineSet
832.834979507 592.115239673 m 0,0,1
 709.747706972 591.998823631 709.747706972 591.998823631 676.055428501 587.320128681 c 2,2,-1
 661.706394288 585.327542933 l 1,3,-1
 660.585236749 570.884268146 l 2,4,5
 656.99532202 524.637310792 656.99532202 524.637310792 657.832561807 399.978478728 c 0,6,7
 659.056266936 240.602671572 659.056266936 240.602671572 717.455465703 180.902026352 c 0,8,9
 745.061906221 152.844399189 745.061906221 152.844399189 783.201598364 138.896731927 c 128,-1,10
 821.341290507 124.949064664 821.341290507 124.949064664 868.752367694 124.890629089 c 0,11,12
 959.805371822 124.952005502 959.805371822 124.952005502 1002.45400188 199.368408091 c 128,-1,13
 1045.10263195 273.784810679 1045.10263195 273.784810679 1040.96420091 412.373918214 c 0,14,15
 1038.26261198 500.483280845 1038.26261198 500.483280845 984.607212877 546.268729088 c 128,-1,16
 930.951813776 592.05417733 930.951813776 592.05417733 832.834979507 592.115239673 c 0,0,1
878.191236726 726.539062518 m 2,17,18
 1029.56943216 726.545849626 1029.56943216 726.545849626 1102.78028585 644.583032075 c 128,-1,19
 1175.99113954 562.620214524 1175.99113954 562.620214524 1175.04799334 392.077301651 c 0,20,21
 1174.70666431 306.079564716 1174.70666431 306.079564716 1158.15800517 238.379358008 c 128,-1,22
 1141.60934603 170.6791513 1141.60934603 170.6791513 1109.75733365 121.921709441 c 128,-1,23
 1077.90532127 73.1642675814 1077.90532127 73.1642675814 1030.48544056 41.3661069819 c 0,24,25
 971.506804761 1.9765510512 971.506804761 1.9765510512 864.825275869 1.52320646293 c 0,26,27
 714.975536489 0.0685620728805 714.975536489 0.0685620728805 623.307889116 84.8841255859 c 0,28,29
 511.191021228 187.738782458 511.191021228 187.738782458 516.885419678 424.875737537 c 0,30,31
 517.930009071 468.301639936 517.930009071 468.301639936 519.505256734 500.262166576 c 128,-1,32
 521.080504397 532.222693216 521.080504397 532.222693216 523.132348239 552.094627826 c 2,33,-1
 525.389074387 573.950830302 l 1,34,-1
 503.516204265 571.861822847 l 2,35,36
 374.919845852 559.579998387 374.919845852 559.579998387 310.96529402 454.935692449 c 128,-1,37
 247.010742188 350.29138651 247.010742188 350.29138651 247.010742188 161.032226562 c 2,38,-1
 247.010742188 -478.416992188 l 1,39,-1
 108.94921875 -478.416992188 l 1,40,-1
 108.954077656 159.619180114 l 2,41,42
 108.486102522 446.755694007 108.486102522 446.755694007 223.836440788 586.635295012 c 128,-1,43
 339.186779053 726.514896017 339.186779053 726.514896017 573.256666413 726.525390643 c 2,44,-1
 878.191236726 726.539062518 l 2,17,18
EndSplineSet
Substitution2: "'init' Initial Forms in Arabic lookup 13 subtable" uniFEE3
Substitution2: "'medi' Medial Forms in Arabic lookup 11 subtable" uniFEE4
Substitution2: "'fina' Terminal Forms in Arabic lookup 9 subtable" uniFEE2
EndChar

StartChar: uni0647
Encoding: 1607 1607 42
Width: 899
VWidth: 2330
GlyphClass: 2
Flags: W
AnchorPoint: "Anchor-10" 407.833 1117.93 basechar 0
AnchorPoint: "Anchor-7" 309.418 -200.202 basechar 0
LayerCount: 2
Fore
SplineSet
434.940214184 637.220214647 m 2,0,1
 244.016973819 445.449555546 244.016973819 445.449555546 243.731479725 319.302692945 c 0,2,3
 243.882925586 241.853830717 243.882925586 241.853830717 300.597639154 202.911537113 c 128,-1,4
 357.312352721 163.969243509 357.312352721 163.969243509 461.722081808 163.935547964 c 0,5,6
 559.062722327 163.969408969 559.062722327 163.969408969 612.06536812 201.851535074 c 128,-1,7
 665.068013913 239.73366118 665.068013913 239.73366118 665.156234601 314.57237329 c 0,8,9
 664.989937905 441.704118524 664.989937905 441.704118524 460.134279206 637.531902863 c 2,10,-1
 447.384536531 649.719771506 l 1,11,-1
 434.940214184 637.220214647 l 2,0,1
108.95117224 302.148634358 m 0,12,13
 108.998186778 490.724884552 108.998186778 490.724884552 341.113217121 731.051842609 c 2,14,-1
 353.893515088 744.284290886 l 1,15,-1
 314.554902712 780.655764548 l 1,16,-1
 396.534375157 873.079893206 l 1,17,18
 795.975504042 565.62201115 795.975504042 565.62201115 795.499047678 305.097900133 c 0,19,20
 795.120849972 74.6518982733 795.120849972 74.6518982733 582.775515289 30.2693836974 c 0,21,22
 528.09260442 19.0728370159 528.09260442 19.0728370159 460.189505522 18.9774700143 c 0,23,24
 280.852549557 19.4742062303 280.852549557 19.4742062303 194.913446499 89.5940407239 c 128,-1,25
 108.97434344 159.713875217 108.97434344 159.713875217 108.95117224 302.148634358 c 0,12,13
EndSplineSet
Substitution2: "'fina' Terminal Forms in Arabic lookup 9 subtable" uniFEEA
Substitution2: "'medi' Medial Forms in Arabic lookup 11 subtable" uniFEEC
Substitution2: "'init' Initial Forms in Arabic lookup 13 subtable" uniFEEB
EndChar

StartChar: uni0648
Encoding: 1608 1608 43
Width: 857
VWidth: 2553
GlyphClass: 2
Flags: W
AnchorPoint: "Anchor-10" 352.019 1205.88 basechar 0
AnchorPoint: "Anchor-7" 355.433 -717.366 basechar 0
LayerCount: 2
Fore
SplineSet
744.920903545 9.50597200804 m 2,0,1
 745.104140197 -233.742050731 745.104140197 -233.742050731 615.623907524 -353.142039754 c 128,-1,2
 486.143674851 -472.542028777 486.143674851 -472.542028777 220.762718149 -472.412111532 c 2,3,-1
 135.013636063 -472.37013307 l 1,4,-1
 134.930716924 -320.207984807 l 1,5,-1
 216.847485479 -320.26558839 l 2,6,7
 403.93445972 -320.642918464 403.93445972 -320.642918464 501.2189995 -245.072736096 c 128,-1,8
 598.503539279 -169.502553727 598.503539279 -169.502553727 597.970588618 -20.089115573 c 2,9,-1
 597.83434686 18.1064453125 l 1,10,-1
 399.032862586 18.1064442448 l 2,11,12
 251.902884525 18.0557668438 251.902884525 18.0557668438 180.228513531 102.668336315 c 128,-1,13
 108.554142536 187.280905786 108.554142536 187.280905786 109.075920851 363.633453495 c 0,14,15
 109.698154773 481.451709491 109.698154773 481.451709491 144.903546218 558.279648272 c 128,-1,16
 180.108937663 635.107587052 180.108937663 635.107587052 250.319652349 672.754347592 c 128,-1,17
 320.530367034 710.401108131 320.530367034 710.401108131 427.592388312 710.589857287 c 0,18,19
 587.997386399 710.78658358 587.997386399 710.78658358 666.260388904 623.996441409 c 128,-1,20
 744.523391409 537.206299238 744.523391409 537.206299238 744.659184795 356.939565758 c 2,21,-1
 744.920903545 9.50597200804 l 2,0,1
423.613268898 571.374067287 m 0,22,23
 361.285331192 571.239790459 361.285331192 571.239790459 318.346648393 547.342118695 c 128,-1,24
 275.407965594 523.444446932 275.407965594 523.444446932 253.658487324 477.461805039 c 128,-1,25
 231.909009054 431.479163147 231.909009054 431.479163147 231.859380731 365.211222251 c 0,26,27
 231.933980173 271.726206501 231.933980173 271.726206501 274.242691653 221.377831461 c 128,-1,28
 316.551403134 171.02945642 316.551403134 171.02945642 397.993489922 171.000001177 c 2,29,-1
 607.760157623 170.924134652 l 1,30,-1
 607.25877429 351.023060393 l 2,31,32
 607.191240799 403.736900379 607.191240799 403.736900379 595.520064333 444.634572499 c 128,-1,33
 583.848887867 485.532244619 583.848887867 485.532244619 560.989519486 513.708328366 c 128,-1,34
 538.130151105 541.884412113 538.130151105 541.884412113 503.488530771 556.578091874 c 128,-1,35
 468.846910436 571.271771635 468.846910436 571.271771635 423.613268898 571.374067287 c 0,22,23
EndSplineSet
Substitution2: "'fina' Terminal Forms in Arabic lookup 9 subtable" uniFEEE
EndChar

StartChar: uni0649
Encoding: 1609 1609 44
Width: 1456
VWidth: 2553
GlyphClass: 2
Flags: W
AnchorPoint: "Anchor-10" 444.637 1228.75 basechar 0
AnchorPoint: "Anchor-7" 285.837 -686.501 basechar 0
LayerCount: 2
Fore
SplineSet
1140.77441406 255.370117188 m 2,0,1
 1246.66059574 255.370117188 1246.66059574 255.370117188 1296.89426272 205.660322543 c 128,-1,2
 1347.12792969 155.950527899 1347.12792969 155.950527899 1347.12792969 51.36328125 c 2,3,-1
 1347.12793028 22.0270542232 l 2,4,5
 1347.06589925 -221.05783879 1347.06589925 -221.05783879 1200.99174715 -341.174813721 c 128,-1,6
 1054.91759504 -461.291788652 1054.91759504 -461.291788652 755.422563153 -461.280273451 c 2,7,-1
 700.949672352 -461.280275336 l 2,8,9
 501.07866561 -461.188488989 501.07866561 -461.188488989 369.613747098 -401.8205409 c 128,-1,10
 238.148828585 -342.452592812 238.148828585 -342.452592812 173.266633481 -223.448617038 c 128,-1,11
 108.384438376 -104.444641265 108.384438376 -104.444641265 108.267574347 76.0448660608 c 2,12,-1
 108.011666717 471 l 1,13,-1
 251.022460938 471 l 1,14,-1
 251.022460972 77.2071558246 l 2,15,16
 251.010778059 -113.770370118 251.010778059 -113.770370118 365.816940185 -210.869413394 c 128,-1,17
 480.623102312 -307.96845667 480.623102312 -307.96845667 703.112628154 -307.980468738 c 2,18,-1
 764.019680018 -307.980468731 l 2,19,20
 980.938038081 -307.990444488 980.938038081 -307.990444488 1093.82839404 -229.759869825 c 128,-1,21
 1206.71875 -151.529295162 1206.71875 -151.529295162 1206.71875 4.416015625 c 2,22,-1
 1206.71863553 16.0871737461 l 2,23,24
 1206.82660201 46.361048717 1206.82660201 46.361048717 1195.45866397 68.1186530131 c 128,-1,25
 1184.09072593 89.8762573092 1184.09072593 89.8762573092 1162.3466453 101.308245842 c 128,-1,26
 1140.60256466 112.740234375 1140.60256466 112.740234375 1110.29013094 112.740234375 c 2,27,-1
 919.003455709 112.741190847 l 2,28,29
 838.51781765 112.86144193 838.51781765 112.86144193 801.141721325 148.866187625 c 128,-1,30
 763.765625 184.87093332 763.765625 184.87093332 763.765625 261.583007812 c 2,31,-1
 763.765622784 327.368997555 l 2,32,33
 763.879971324 557.803699321 763.879971324 557.803699321 864.093038158 669.801318876 c 128,-1,34
 964.306104991 781.798938431 964.306104991 781.798938431 1168.54223971 781.901369456 c 2,35,-1
 1347.08458001 781.9910036 l 1,36,-1
 1347.806665 628.604492188 l 1,37,-1
 1127.3182997 628.604456042 l 2,38,39
 1073.53207103 628.712247275 1073.53207103 628.712247275 1032.42569353 609.299431023 c 128,-1,40
 991.319316031 589.886614771 991.319316031 589.886614771 964.024242422 552.201880306 c 128,-1,41
 936.729168813 514.517145842 936.729168813 514.517145842 922.320195973 459.919071937 c 128,-1,42
 907.911223134 405.320998033 907.911223134 405.320998033 906.525889471 334.354235007 c 2,43,-1
 904.984065756 255.370117188 l 1,44,-1
 1140.77441406 255.370117188 l 2,0,1
EndSplineSet
Substitution2: "'fina' Terminal Forms in Arabic lookup 9 subtable" uniFEF0
Substitution2: "'medi' Medial Forms in Arabic lookup 11 subtable" uniFBE9
Substitution2: "'init' Initial Forms in Arabic lookup 13 subtable" uniFBE8
EndChar

StartChar: uni064B
Encoding: 1611 1611 46
Width: 0
VWidth: 2186
GlyphClass: 4
Flags: W
AnchorPoint: "Anchor-10" 547.84 1041.5 mark 0
AnchorPoint: "Anchor-9" 547.84 1041.5 mark 0
AnchorPoint: "Anchor-1" 547.84 1576.5 basemark 0
AnchorPoint: "Anchor-1" 547.84 1041.5 mark 0
LayerCount: 2
Fore
SplineSet
286 993 m 5,0,-1
 286 1120.0703125 l 5,1,-1
 780 1322.0703125 l 5,2,-1
 780 1195 l 5,3,-1
 286 993 l 5,0,-1
286 1252 m 5,4,-1
 286 1379.0703125 l 5,5,-1
 780 1581.0703125 l 5,6,-1
 780 1454 l 5,7,-1
 286 1252 l 5,4,-1
EndSplineSet
EndChar

StartChar: uni064C
Encoding: 1612 1612 47
Width: 0
VWidth: 2186
GlyphClass: 4
Flags: W
AnchorPoint: "Anchor-10" 554.386 1155.44 mark 0
AnchorPoint: "Anchor-9" 554.386 1155.44 mark 0
AnchorPoint: "Anchor-1" 546.386 1810.94 basemark 0
AnchorPoint: "Anchor-1" 554.386 1155.44 mark 0
LayerCount: 2
Fore
SplineSet
567.219 1298.72 m 0,0,1
 608.391 1338.78 608.391 1338.78 631.845 1385.69 c 2,2,-1
 639.364 1400.73 l 1,3,-1
 622.913 1404.22 l 2,4,5
 589.558 1411.29 589.558 1411.29 566.532 1424.31 c 0,6,7
 457.736 1481.73 457.736 1481.73 457.736 1574.47 c 0,8,9
 457.736 1661.08 457.736 1661.08 526.365 1712.8 c 0,10,11
 552.86 1732.67 552.86 1732.67 615.937 1732.67 c 0,12,13
 688.759 1732.67 688.759 1732.67 727.738 1694.66 c 0,14,15
 782.696 1640.71 782.696 1640.71 782.696 1561.63 c 0,16,17
 782.696 1521.9 782.696 1521.9 770.46 1483.15 c 2,18,-1
 765.402 1467.14 l 1,19,-1
 782.175 1466.26 l 2,20,21
 802.247 1465.2 802.247 1465.2 817.806 1465.17 c 0,22,23
 831.205 1464.45 831.205 1464.45 845.826 1464.2 c 1,24,-1
 845.826 1372.44 l 1,25,26
 806.232 1372.69 806.232 1372.69 788.381 1374.48 c 2,27,-1
 723.27 1380.74 l 1,28,-1
 719.537 1371.99 l 2,29,30
 692.652 1308.91 692.652 1308.91 614.12 1227.24 c 1,31,32
 527.043 1139.14 527.043 1139.14 431.896 1139.14 c 0,33,34
 298 1139 298 1139 262.205 1295.39 c 0,35,36
 247.727265594 1354.15981632 247.727265594 1354.15981632 246.994 1442.7 c 1,37,-1
 317.299 1442.7 l 1,38,39
 318.019505835 1361.09673846 318.019505835 1361.09673846 331.307 1318.59 c 4,40,41
 359 1230 359 1230 431.896 1230.84 c 0,42,43
 497.076 1230.84 497.076 1230.84 567.219 1298.72 c 0,0,1
669.292 1482.64 m 1,44,-1
 680.316 1508.36 l 2,45,46
 690.996 1533.28 690.996 1533.28 690.996 1561.63 c 0,47,48
 690.996 1604.15 690.996 1604.15 668.07 1623.02 c 0,49,50
 646.28 1640.97 646.28 1640.97 620.217 1640.97 c 0,51,52
 591.787 1640.97 591.787 1640.97 575.875 1628.63 c 0,53,54
 551.576 1610.34 551.576 1610.34 551.576 1574.47 c 0,55,56
 551.576 1526.08 551.576 1526.08 607.898 1503.55 c 0,57,58
 629.803 1494.79 629.803 1494.79 658.123 1486.08 c 2,59,-1
 669.292 1482.64 l 1,44,-1
EndSplineSet
EndChar

StartChar: uni064D
Encoding: 1613 1613 48
Width: 0
VWidth: 2186
GlyphClass: 4
Flags: W
AnchorPoint: "Anchor-7" 531.84 75.5 mark 0
AnchorPoint: "Anchor-6" 531.84 75.5 mark 0
AnchorPoint: "Anchor-0" 547.84 -439.5 basemark 0
AnchorPoint: "Anchor-0" 531.84 75.5 mark 0
LayerCount: 2
Fore
SplineSet
291 -497 m 5,0,-1
 291 -369.9296875 l 5,1,-1
 785 -167.9296875 l 5,2,-1
 785 -295 l 5,3,-1
 291 -497 l 5,0,-1
291 -238 m 5,4,-1
 291 -110.9296875 l 5,5,-1
 785 91.0703125 l 5,6,-1
 785 -36 l 5,7,-1
 291 -238 l 5,4,-1
EndSplineSet
EndChar

StartChar: uni064E
Encoding: 1614 1614 49
Width: 0
VWidth: 2186
GlyphClass: 4
Flags: W
AnchorPoint: "Anchor-10" 517.84 1279.5 mark 0
AnchorPoint: "Anchor-9" 517.84 1279.5 mark 0
AnchorPoint: "Anchor-1" 517.84 1600.5 basemark 0
AnchorPoint: "Anchor-1" 517.84 1279.5 mark 0
LayerCount: 2
Fore
SplineSet
257 1251 m 5,0,-1
 257 1378.0703125 l 5,1,-1
 751 1580.0703125 l 5,2,-1
 751 1453 l 5,3,-1
 257 1251 l 5,0,-1
EndSplineSet
EndChar

StartChar: uni064F
Encoding: 1615 1615 50
Width: 0
VWidth: 2186
GlyphClass: 4
Flags: W
AnchorPoint: "Anchor-10" 531.84 1205.5 mark 0
AnchorPoint: "Anchor-9" 531.84 1205.5 mark 0
AnchorPoint: "Anchor-1" 547.84 1825 basemark 0
AnchorPoint: "Anchor-1" 531.84 1205.5 mark 0
LayerCount: 2
Fore
SplineSet
567.734 1438.5 m 4,0,1
 459 1485 459 1485 459.19 1588.53 c 0,2,3
 459.19 1675.14 459.19 1675.14 527.819 1726.86 c 0,4,5
 554.314 1746.73 554.314 1746.73 617.39 1746.73 c 0,6,7
 690.212 1746.73 690.212 1746.73 729.192 1708.72 c 0,8,9
 784.15 1654.77 784.15 1654.77 784.15 1575.69 c 0,10,11
 784.15 1543.43 784.15 1543.43 769.757 1497.16 c 2,12,-1
 764.821 1481.3 l 1,13,-1
 781.407 1480.32 l 2,14,15
 799.81 1479.24 799.81 1479.24 819.259 1478.7 c 0,16,17
 832.229 1478.34 832.229 1478.34 847.28 1478.21 c 1,18,-1
 847.28 1386.53 l 1,19,20
 817.029 1386.85 817.029 1386.85 789.455 1388.57 c 0,21,22
 757.6 1390.7 757.6 1390.7 727.915 1393.88 c 2,23,-1
 720.312 1394.69 l 1,24,-1
 715.905 1388.44 l 2,25,26
 671.45 1325.37 671.45 1325.37 599.88 1281.81 c 0,27,28
 398.294 1157.85 398.294 1157.85 248.4 1152.36 c 1,29,-1
 248.4 1244.01 l 1,30,31
 408.671 1248.65 408.671 1248.65 554.781 1363.22 c 0,32,33
 580.142 1383.07 580.142 1383.07 601.135 1405.16 c 2,34,-1
 616.962 1421.83 l 1,35,36
 595.827546953 1426.52172987 595.827546953 1426.52172987 567.734 1438.5 c 4,0,1
670.746 1496.7 m 1,37,-1
 681.77 1522.42 l 2,38,39
 692.45 1547.34 692.45 1547.34 692.45 1575.69 c 0,40,41
 692.45 1618.21 692.45 1618.21 669.524 1637.08 c 0,42,43
 647.734 1655.03 647.734 1655.03 621.67 1655.03 c 0,44,45
 593.241 1655.03 593.241 1655.03 577.329 1642.69 c 0,46,47
 553.03 1624.4 553.03 1624.4 553.03 1588.53 c 0,48,49
 553.03 1540.14 553.03 1540.14 609.352 1517.61 c 0,50,51
 631.256 1508.85 631.256 1508.85 659.577 1500.14 c 2,52,-1
 670.746 1496.7 l 1,37,-1
EndSplineSet
EndChar

StartChar: uni0650
Encoding: 1616 1616 51
Width: 0
VWidth: 2186
GlyphClass: 4
Flags: W
AnchorPoint: "Anchor-7" 509.84 -12.5 mark 0
AnchorPoint: "Anchor-6" 509.84 -12.5 mark 0
AnchorPoint: "Anchor-0" 556.84 -311.5 basemark 0
AnchorPoint: "Anchor-0" 509.84 -12.5 mark 0
LayerCount: 2
Fore
SplineSet
301 -343 m 1,0,-1
 301 -215.9296875 l 1,1,-1
 795 -13.9296875 l 1,2,-1
 795 -141 l 1,3,-1
 301 -343 l 1,0,-1
EndSplineSet
EndChar

StartChar: uni0651
Encoding: 1617 1617 52
Width: 0
VWidth: 2186
GlyphClass: 4
Flags: W
AnchorPoint: "Anchor-10" 547.84 1316.5 mark 0
AnchorPoint: "Anchor-9" 547.84 1316.5 mark 0
AnchorPoint: "Anchor-1" 535.84 1818.5 basemark 0
AnchorPoint: "Anchor-1" 547.84 1316.5 mark 0
LayerCount: 2
Fore
SplineSet
408.798468648 1289.38967749 m 0,0,1
 239.027079407 1288.98822678 239.027079407 1288.98822678 238.000071487 1481.04357559 c 2,2,-1
 237.195191222 1631.56 l 1,3,-1
 325.682175933 1631.56 l 1,4,-1
 327.139397609 1479.93973063 l 2,5,6
 327.950689129 1398.9477891 327.950689129 1398.9477891 408.868686112 1398.08981898 c 0,7,8
 499.68061644 1398.00497216 499.68061644 1398.00497216 501.266432204 1518.60574082 c 2,9,-1
 503.465314262 1685.83 l 1,10,-1
 590.986193867 1685.83 l 1,11,-1
 593.33890213 1527.62730596 l 2,12,13
 594.903806353 1447.00436094 594.903806353 1447.00436094 690.845447762 1447.08984061 c 0,14,15
 766.037901545 1447.00556467 766.037901545 1447.00556467 767.540417493 1569.12108592 c 2,16,-1
 769.582626184 1735.09960938 l 1,17,-1
 862.769082334 1735.09960938 l 1,18,-1
 860.679332524 1570.81053841 l 2,19,20
 857.940723544 1340.99593417 857.940723544 1340.99593417 692.006640619 1341.13281691 c 0,21,22
 597.603332438 1341.00743752 597.603332438 1341.00743752 557.150289792 1398.14186304 c 1,23,24
 530.034257024 1289.98536752 530.034257024 1289.98536752 408.798468648 1289.38967749 c 0,0,1
EndSplineSet
EndChar

StartChar: uni0652
Encoding: 1618 1618 53
Width: 0
VWidth: 2186
GlyphClass: 4
Flags: W
AnchorPoint: "Anchor-10" 565.84 1128.5 mark 0
AnchorPoint: "Anchor-9" 565.84 1128.5 mark 0
AnchorPoint: "Anchor-1" 551.84 1702 basemark 0
AnchorPoint: "Anchor-1" 565.84 1128.5 mark 0
LayerCount: 2
Fore
SplineSet
674.569 1383.62 m 0,0,1
 674.569 1428.15 674.569 1428.15 643.439 1459.28 c 128,-1,2
 612.312 1490.41 612.312 1490.41 567.126 1490.41 c 0,3,4
 521.285 1490.41 521.285 1490.41 490.485 1459.61 c 128,-1,5
 459.685 1428.81 459.685 1428.81 459.685 1383.62 c 0,6,7
 459.685 1337.78 459.685 1337.78 490.485 1306.98 c 128,-1,8
 521.285 1276.18 521.285 1276.18 567.126 1276.18 c 0,9,10
 612.314 1276.18 612.314 1276.18 643.439 1307.31 c 128,-1,11
 674.569 1338.44 674.569 1338.44 674.569 1383.62 c 0,0,1
750.396 1383.73 m 128,-1,13
 750.396 1306.88 750.396 1306.88 697.316 1253.46 c 128,-1,14
 644.259 1200.07 644.259 1200.07 567.436 1200.07 c 128,-1,15
 490.613 1200.07 490.613 1200.07 437.557 1253.46 c 128,-1,16
 384.476 1306.88 384.476 1306.88 384.476 1383.73 c 128,-1,17
 384.476 1460.56 384.476 1460.56 437.537 1513.63 c 128,-1,18
 490.596 1566.69 490.596 1566.69 567.436 1566.69 c 128,-1,19
 644.276 1566.69 644.276 1566.69 697.335 1513.63 c 128,-1,12
 750.396 1460.56 750.396 1460.56 750.396 1383.73 c 128,-1,13
EndSplineSet
EndChar

StartChar: uni0653
Encoding: 1619 1619 54
Width: 11
VWidth: 2553
GlyphClass: 4
Flags: W
AnchorPoint: "Anchor-10" 404.334 1442.64 mark 0
AnchorPoint: "Anchor-9" 404.334 1442.64 mark 0
AnchorPoint: "Anchor-1" 397.691 1800.13 basemark 0
AnchorPoint: "Anchor-1" 404.334 1442.64 mark 0
LayerCount: 2
Fore
SplineSet
305.553710938 1686.04003906 m 2,0,-1
 710.001953125 1686.04003906 l 5,1,-1
 711.517578125 1534.54003906 l 5,2,-1
 318.1640625 1534.54003906 l 2,3,4
 229.134542678 1534.99930595 229.134542678 1534.99930595 165.71875 1452.35839844 c 2,5,-1
 145.598632812 1426.13867188 l 1,6,-1
 43.5888671875 1541.40039062 l 1,7,-1
 55.0322265625 1558.83007812 l 2,8,9
 139 1686 139 1686 305.553710938 1686.04003906 c 2,0,-1
EndSplineSet
EndChar

StartChar: uni0657
Encoding: 1623 1623 57
Width: 11
VWidth: 2553
GlyphClass: 4
Flags: W
AnchorPoint: "Anchor-10" 648 1490.29 mark 0
AnchorPoint: "Anchor-9" 648 1490.29 mark 0
AnchorPoint: "Anchor-1" 648 2306.6 basemark 0
AnchorPoint: "Anchor-1" 648 1490.29 mark 0
LayerCount: 2
Fore
SplineSet
306.93359375 1991.88769531 m 1,0,-1
 450.541015625 1981.86425781 l 1,1,2
 510.180800958 2066.46174183 510.180800958 2066.46174183 592.361328125 2116.48046875 c 0,3,4
 817.018263895 2254.62504563 817.018263895 2254.62504563 989.06640625 2266.37109375 c 1,5,-1
 989.06640625 2179.70019531 l 1,6,7
 801.000944794 2169.33489258 801.000944794 2169.33489258 633.450195312 2037.95410156 c 0,8,9
 603.086914062 2014.18554688 603.086914062 2014.18554688 577.916992188 1987.703125 c 2,10,-1
 546.705078125 1954.84375 l 1,11,-1
 590.9453125 1945.00195312 l 2,12,13
 598.904296875 1943.23632812 598.904296875 1943.23632812 639.939453125 1921.87646484 c 128,-1,14
 680.974609375 1900.51660156 680.974609375 1900.51660156 711.318359375 1858.87304688 c 128,-1,15
 741.662109375 1817.22949219 741.662109375 1817.22949219 741.662109375 1767.10302734 c 128,-1,16
 741.662109375 1716.9765625 741.662109375 1716.9765625 727.368164062 1688.15576172 c 0,17,18
 678.704817741 1590.03613281 678.704817741 1590.03613281 560.003986708 1590.03613281 c 0,19,20
 441.303155674 1590.03613281 441.303155674 1590.03613281 396.317382812 1698.92773438 c 0,21,22
 381.028320312 1735.93894084 381.028320312 1735.93894084 381.028320312 1776.31761495 c 128,-1,23
 381.028320312 1816.69628906 381.028320312 1816.69628906 397.453125 1869.484375 c 2,24,-1
 407.186523438 1900.77050781 l 1,25,-1
 374.467773438 1902.703125 l 2,26,27
 343.974695766 1904.49603037 343.974695766 1904.49603037 306.93359375 1905.08398438 c 1,28,-1
 306.93359375 1991.88769531 l 1,0,-1
497.87890625 1885.78320312 m 1,29,-1
 481.260742188 1847.01367188 l 2,30,31
 467.884765625 1815.82258117 467.884765625 1815.82258117 467.884765625 1770.71402496 c 128,-1,32
 467.884765625 1725.60546875 467.884765625 1725.60546875 497.455566406 1701.24902344 c 128,-1,33
 527.026367188 1676.89257812 527.026367188 1676.89257812 561.344726562 1676.89257812 c 0,34,35
 633.005376407 1678.9500117 633.005376407 1678.9500117 648.71484375 1736.82519531 c 0,36,37
 652.293945312 1750.00585938 652.293945312 1750.00585938 652.293945312 1761.6640625 c 0,38,39
 652.293945312 1838.29363789 652.293945312 1838.29363789 519.913085938 1878.99902344 c 2,40,-1
 497.87890625 1885.78320312 l 1,29,-1
EndSplineSet
EndChar

StartChar: uni065A
Encoding: 1626 1626 58
Width: 1295
VWidth: 2553
GlyphClass: 4
Flags: W
AnchorPoint: "Anchor-10" 648 1490.29 mark 0
AnchorPoint: "Anchor-9" 648 1490.29 mark 0
AnchorPoint: "Anchor-1" 645.488 2055.43 basemark 0
AnchorPoint: "Anchor-1" 648 1490.29 mark 0
LayerCount: 2
Fore
SplineSet
569.607421875 1593.80273438 m 1,0,-1
 355.39453125 1951.92480469 l 1,1,-1
 471.013671875 1951.92480469 l 1,2,-1
 648 1686.44140625 l 1,3,-1
 824.983398438 1951.92480469 l 1,4,-1
 940.604492188 1951.92480469 l 1,5,-1
 726.388671875 1593.80273438 l 1,6,-1
 569.607421875 1593.80273438 l 1,0,-1
EndSplineSet
EndChar

StartChar: afii57392
Encoding: 1632 1632 59
Width: 1016
VWidth: 2553
GlyphClass: 2
Flags: W
LayerCount: 2
Fore
SplineSet
382.614580563 434.702644071 m 0,0,1
 422.603761773 356.819335938 422.603761773 356.819335938 509.271484375 356.819335938 c 0,2,3
 567.84774508 356.819335938 567.84774508 356.819335938 609.416562188 398.629767181 c 128,-1,4
 650.966796875 440.418000039 650.966796875 440.418000039 650.966796875 499.287109375 c 0,5,6
 650.966796875 528.341931119 650.966796875 528.341931119 640.445851935 553.82850508 c 128,-1,7
 629.924906995 579.315079041 629.924906995 579.315079041 609.419217731 599.943745089 c 128,-1,8
 588.917411359 620.565267622 588.917411359 620.565267622 563.553680156 631.160563498 c 128,-1,9
 538.189948953 641.755859375 538.189948953 641.755859375 509.271484375 641.755859375 c 0,10,11
 450.697319657 641.755859375 450.697319657 641.755859375 409.125388638 599.943427733 c 128,-1,12
 367.576171875 558.149514619 367.576171875 558.149514619 367.576171875 496.697265625 c 0,13,14
 367.576171875 463.987255541 367.576171875 463.987255541 382.614580563 434.702644071 c 0,0,1
266.698121883 377.441492894 m 0,15,16
 238.337890625 432.674403058 238.337890625 432.674403058 238.337890625 494.272460938 c 0,17,18
 238.337890625 612.493106151 238.337890625 612.493106151 317.55371567 692.176102856 c 128,-1,19
 396.675788643 771.756835938 396.675788643 771.756835938 508 771.756835938 c 128,-1,20
 619.32982648 771.756835938 619.32982648 771.756835938 698.447164411 692.177182211 c 128,-1,21
 777.662109375 612.48956377 777.662109375 612.48956377 777.662109375 500.294921875 c 0,22,23
 777.662109375 443.814964042 777.662109375 443.814964042 757.991856276 396.166853873 c 128,-1,24
 738.321603178 348.518743704 738.321603178 348.518743704 698.446357328 308.414790877 c 128,-1,25
 658.603368025 268.341298084 658.603368025 268.341298084 611.317011096 248.588129511 c 128,-1,26
 564.030654167 228.834960938 564.030654167 228.834960938 508 228.834960938 c 0,27,28
 342.99977765 228.834960938 342.99977765 228.834960938 266.698121883 377.441492894 c 0,15,16
EndSplineSet
EndChar

StartChar: afii57393
Encoding: 1633 1633 60
Width: 672
VWidth: 2553
GlyphClass: 2
Flags: W
LayerCount: 2
Fore
SplineSet
433.812951868 21.9091796875 m 1,0,-1
 284.788651708 21.9091796875 l 1,1,2
 280.373444468 814.40455445 280.373444468 814.40455445 139.76492146 1269.59718507 c 1,3,-1
 282.990119299 1309.02434627 l 1,4,5
 357.022608372 1067.74812933 357.022608372 1067.74812933 394.794483136 745.48821543 c 128,-1,6
 432.5663579 423.228301535 432.5663579 423.228301535 433.812951868 21.9091796875 c 1,0,-1
EndSplineSet
EndChar

StartChar: afii57394
Encoding: 1634 1634 61
Width: 1058
VWidth: 2553
GlyphClass: 2
Flags: W
LayerCount: 2
Fore
SplineSet
420.83092408 21.9091796875 m 1,0,-1
 272.038741036 21.9091796875 l 1,1,2
 268.959858346 693.511643009 268.959858346 693.511643009 135.341392213 1266.95513407 c 1,3,-1
 277.64468658 1308.36678091 l 1,4,-1
 317.476985388 1131.4275487 l 2,5,6
 330.489077339 1073.25086103 330.489077339 1073.25086103 354.652388073 1028.76834993 c 128,-1,7
 378.815698806 984.285838836 378.815698806 984.285838836 413.615257009 954.132644003 c 128,-1,8
 448.414815212 923.979449171 448.414815212 923.979449171 494.011857392 908.394814381 c 128,-1,9
 539.608899571 892.810179591 539.608899571 892.810179591 595.11137538 892.383239452 c 0,10,11
 702.317836259 891.644830398 702.317836259 891.644830398 759.961416061 952.467124162 c 128,-1,12
 817.604995863 1013.28941793 817.604995863 1013.28941793 821.613349993 1129.5917514 c 0,13,14
 824.734456877 1216.29909894 824.734456877 1216.29909894 822.620300119 1323.6875 c 1,15,-1
 949.871559851 1323.6875 l 1,16,17
 953.386846571 1093.09935685 953.386846571 1093.09935685 939.19657987 1012.66856154 c 0,18,19
 914.822273163 877.908770263 914.822273163 877.908770263 830.320463568 811.801066706 c 128,-1,20
 745.818653973 745.69336315 745.818653973 745.69336315 596.296467601 745.407120022 c 0,21,22
 558.614354168 745.277470097 558.614354168 745.277470097 525.595379875 752.030829043 c 128,-1,23
 492.576405582 758.784187989 492.576405582 758.784187989 464.323745264 772.240063022 c 128,-1,24
 436.071084946 785.695938056 436.071084946 785.695938056 411.903661567 805.982073179 c 2,25,-1
 376.221915163 835.933331021 l 1,26,-1
 382.494990153 789.771513434 l 2,27,28
 419.617625666 516.596343104 419.617625666 516.596343104 420.83092408 21.9091796875 c 1,0,-1
EndSplineSet
EndChar

StartChar: afii57395
Encoding: 1635 1635 62
Width: 1335
VWidth: 2553
GlyphClass: 2
Flags: W
LayerCount: 2
Fore
SplineSet
805.414123495 1084.51170314 m 2,0,1
 805.256968448 1024.13252768 805.256968448 1024.13252768 823.381405633 981.921688638 c 128,-1,2
 841.505842818 939.710849597 841.505842818 939.710849597 878.026676215 917.436098312 c 128,-1,3
 914.547509613 895.161347027 914.547509613 895.161347027 967.699748038 895.254926174 c 0,4,5
 1034.45595759 895.10839678 1034.45595759 895.10839678 1068.05019355 943.214305827 c 128,-1,6
 1101.64442952 991.320214875 1101.64442952 991.320214875 1101.40422899 1078.81506226 c 2,7,-1
 1100.73505222 1322.45996094 l 1,8,-1
 1236.16993001 1322.45996094 l 1,9,-1
 1237.00801686 1154.98649344 l 2,10,11
 1237.49867598 1052.01879039 1237.49867598 1052.01879039 1221.15937572 976.234758595 c 128,-1,12
 1204.82007546 900.450726798 1204.82007546 900.450726798 1171.61235085 851.473938778 c 128,-1,13
 1138.40462623 802.497150758 1138.40462623 802.497150758 1089.47920569 778.652703184 c 128,-1,14
 1040.55378515 754.80825561 1040.55378515 754.80825561 974.754047318 754.749979016 c 0,15,16
 896.928625292 754.868813463 896.928625292 754.868813463 845.206973243 782.61321243 c 128,-1,17
 793.485321194 810.357611397 793.485321194 810.357611397 764.735743782 866.211498464 c 2,18,-1
 749.194754222 896.404104892 l 1,19,-1
 732.930397099 866.594936389 l 2,20,21
 703.507694358 812.669269534 703.507694358 812.669269534 662.624569656 785.999230733 c 128,-1,22
 621.741444954 759.329191931 621.741444954 759.329191931 567.220055645 757.906530621 c 0,23,24
 479.107859709 755.196377863 479.107859709 755.196377863 419.210499256 803.478783832 c 2,25,-1
 384.316542429 831.606303586 l 1,26,-1
 390.06260617 787.157137766 l 2,27,28
 420.67581313 550.346066112 420.67581313 550.346066112 421.505145686 21.9091796875 c 1,29,-1
 272.790449353 21.9091796875 l 1,30,-1
 272.825175606 39.0329354915 l 2,31,32
 273.981697858 820.617979161 273.981697858 820.617979161 135.579259234 1274.74369139 c 1,33,-1
 271.450955935 1318.10126666 l 1,34,-1
 326.643176079 1110.00472213 l 2,35,36
 384.18765786 894.985534258 384.18765786 894.985534258 538.450884305 895.14747295 c 0,37,38
 610.903090513 895.063768928 610.903090513 895.063768928 647.576682629 947.063225732 c 128,-1,39
 684.250274744 999.062682536 684.250274744 999.062682536 684.405249707 1094.39948198 c 2,40,-1
 684.776458797 1323 l 1,41,-1
 806.035101656 1323 l 1,42,-1
 805.414123495 1084.51170314 l 2,0,1
EndSplineSet
EndChar

StartChar: afii57396
Encoding: 1636 1636 63
Width: 907
VWidth: 2553
GlyphClass: 2
Flags: W
LayerCount: 2
Fore
SplineSet
127.999059483 293.068779235 m 0,0,1
 176.217507022 509.031487919 176.217507022 509.031487919 371.193180073 669.357528027 c 2,2,-1
 392.62406682 686.979876263 l 1,3,-1
 367.796990582 699.367222615 l 2,4,5
 237.368148266 764.444045538 237.368148266 764.444045538 152.739635845 864.918733223 c 0,6,7
 122.008092231 901.223304263 122.008092231 901.223304263 136.916865744 951.844749116 c 0,8,9
 207.761501122 1188.84277173 207.761501122 1188.84277173 567.662871073 1325.34924473 c 1,10,11
 577.598973397 1276.18615919 577.598973397 1276.18615919 585.922367169 1162.95346574 c 1,12,13
 531.79728539 1142.39692866 531.79728539 1142.39692866 487.636028675 1122.0427729 c 128,-1,14
 443.47477196 1101.68861714 443.47477196 1101.68861714 407.790984892 1080.71916471 c 128,-1,15
 372.107197825 1059.74971229 372.107197825 1059.74971229 345.671630265 1038.16223554 c 128,-1,16
 319.236062706 1016.57475878 319.236062706 1016.57475878 301.849218274 994.203375179 c 0,17,18
 284.080623653 968.929851802 284.080623653 968.929851802 291.784232469 945.648404474 c 128,-1,19
 299.487841286 922.366957146 299.487841286 922.366957146 327.227361965 904.339640397 c 0,20,21
 482.547883169 803.909673324 482.547883169 803.909673324 651.933077245 767.160105672 c 1,22,-1
 644.318683264 673.46987126 l 1,23,24
 417.401974172 540.531424295 417.401974172 540.531424295 301.463694682 381.985585521 c 0,25,26
 288.318909756 363.98289186 288.318909756 363.98289186 283.159807487 348.007614184 c 0,27,28
 273.950311458 319.490199983 273.950311458 319.490199983 289.494314991 298.182317422 c 128,-1,29
 305.038318524 276.87443486 305.038318524 276.87443486 337.563971053 266.706010293 c 0,30,31
 505.185281091 213.594169008 505.185281091 213.594169008 762.545017208 234.733748315 c 1,32,-1
 786.047977128 58.8997287152 l 1,33,34
 372.532710961 34.7368754915 372.532710961 34.7368754915 148.716495722 179.452648891 c 0,35,36
 108.321215484 205.352810859 108.321215484 205.352810859 127.999059483 293.068779235 c 0,0,1
EndSplineSet
EndChar

StartChar: afii57397
Encoding: 1637 1637 64
Width: 1218
VWidth: 2553
GlyphClass: 2
Flags: W
LayerCount: 2
Fore
SplineSet
586.307455057 997.666279412 m 2,0,1
 374.599420957 822.622370504 374.599420957 822.622370504 300.037579637 603.287893057 c 0,2,3
 292.048618648 579.925009764 292.048618648 579.925009764 286.687637564 556.553481367 c 128,-1,4
 281.326656479 533.181952969 281.326656479 533.181952969 278.596864567 509.754625346 c 128,-1,5
 275.867072655 486.327297723 275.867072655 486.327297723 275.79597443 462.953671094 c 0,6,7
 275.628285936 405.245167705 275.628285936 405.245167705 289.346481321 358.468531695 c 128,-1,8
 303.064676706 311.691895686 303.064676706 311.691895686 330.194177704 276.67734644 c 128,-1,9
 357.323678702 241.662797194 357.323678702 241.662797194 397.47199706 218.003350876 c 128,-1,10
 437.620315419 194.343904559 437.620315419 194.343904559 490.469734525 182.450630561 c 128,-1,11
 543.319153631 170.557356563 543.319153631 170.557356563 608.32032358 170.442421042 c 0,12,13
 833.669359474 169.977971998 833.669359474 169.977971998 904.280387584 299.332044693 c 0,14,15
 966.401387627 412.391018569 966.401387627 412.391018569 907.559937724 586.755441074 c 0,16,17
 837.53173064 794.269496343 837.53173064 794.269496343 609.752119802 997.232871553 c 2,18,-1
 598.215811469 1007.51231697 l 1,19,-1
 586.307455057 997.666279412 l 2,0,1
414.306704916 1134.67873887 m 1,20,-1
 500.139850639 1258.59401667 l 1,21,22
 1104.08622871 865.22031735 1104.08622871 865.22031735 1106.62550736 401.922591437 c 0,23,24
 1107.43697927 213.230813081 1107.43697927 213.230813081 939.166891557 100.214873568 c 0,25,26
 814.51839278 16.0189304223 814.51839278 16.0189304223 625.135181605 16.6708862762 c 0,27,28
 349.728015594 16.9910288553 349.728015594 16.9910288553 223.670874726 149.480306534 c 0,29,30
 98.9372309473 282.136655881 98.9372309473 282.136655881 126.421979251 495.893662778 c 0,31,32
 148.342398247 666.725013446 148.342398247 666.725013446 237.153884366 806.285920205 c 0,33,34
 348.695001863 979.026588895 348.695001863 979.026588895 465.206806026 1078.62543569 c 2,35,-1
 484.900374431 1095.46026814 l 1,36,-1
 414.306704916 1134.67873887 l 1,20,-1
EndSplineSet
EndChar

StartChar: afii57398
Encoding: 1638 1638 65
Width: 1250
VWidth: 2553
GlyphClass: 2
Flags: W
LayerCount: 2
Fore
SplineSet
109.526367188 1307.08529217 m 1,0,1
 320.198911081 1255.98668555 320.198911081 1255.98668555 531.386482944 1255.67970647 c 0,2,3
 744.280789662 1255.98877471 744.280789662 1255.98877471 988.161118095 1308.63942132 c 1,4,5
 994.263979549 619.425909753 994.263979549 619.425909753 1138.16819553 21.9091796875 c 1,6,-1
 972.203034653 21.9091796875 l 1,7,8
 893.701711654 391.446399965 893.701711654 391.446399965 841.525076475 1118.18743615 c 2,9,-1
 839.951748817 1140.10149344 l 1,10,-1
 818.775455354 1134.24778847 l 2,11,12
 669.549819525 1092.99775349 669.549819525 1092.99775349 483.766297593 1092.82909418 c 0,13,14
 304.043824512 1092.9918189 304.043824512 1092.9918189 109.526367188 1146.09884113 c 1,15,-1
 109.526367188 1307.08529217 l 1,0,1
EndSplineSet
EndChar

StartChar: afii57399
Encoding: 1639 1639 66
Width: 1212
VWidth: 2553
GlyphClass: 2
Flags: W
LayerCount: 2
Fore
SplineSet
531.138423613 21.9091796875 m 1,0,1
 416.284730865 673.69527794 416.284730865 673.69527794 106.517366909 1265.50330371 c 1,2,-1
 262.466852611 1317.81637503 l 1,3,4
 493.444545587 819.646402202 493.444545587 819.646402202 593.492572387 400.817897853 c 2,5,-1
 611.215806235 326.623575762 l 1,6,-1
 628.530192464 400.914372488 l 2,7,8
 712.935012068 763.069935672 712.935012068 763.069935672 959.666222449 1317.48430378 c 1,9,-1
 1105.62515173 1265.82146226 l 1,10,11
 953.754043907 976.138543004 953.754043907 976.138543004 849.847506898 665.121973502 c 128,-1,12
 745.94096989 354.105404 745.94096989 354.105404 689.72561303 21.9091796875 c 1,13,-1
 531.138423613 21.9091796875 l 1,0,1
EndSplineSet
EndChar

StartChar: afii57400
Encoding: 1640 1640 67
Width: 1212
VWidth: 2553
GlyphClass: 2
Flags: W
LayerCount: 2
Fore
SplineSet
531.138423613 1322 m 1,0,-1
 689.72561303 1322 l 1,1,2
 802.325112547 656.610137008 802.325112547 656.610137008 1105.62515173 78.0877174273 c 1,3,-1
 959.666222449 26.4248759115 l 1,4,5
 712.935012068 580.839244015 712.935012068 580.839244015 628.530192464 942.9948072 c 2,6,-1
 611.215806235 1017.28560393 l 1,7,-1
 593.492572387 943.091281835 l 2,8,9
 493.444545587 524.262777486 493.444545587 524.262777486 262.466852611 26.0928046558 c 1,10,-1
 106.517366909 78.4058759816 l 1,11,12
 416.284730865 670.213901748 416.284730865 670.213901748 531.138423613 1322 c 1,0,-1
EndSplineSet
EndChar

StartChar: afii57401
Encoding: 1641 1641 68
Width: 1163
VWidth: 2553
GlyphClass: 2
Flags: W
LayerCount: 2
Fore
SplineSet
481.444507961 605.343787066 m 0,0,1
 434.19210182 605.260249418 434.19210182 605.260249418 393.516782293 611.650869135 c 128,-1,2
 352.841462766 618.041488852 352.841462766 618.041488852 318.959692979 630.814187844 c 128,-1,3
 285.077923192 643.586886837 285.077923192 643.586886837 257.675199783 662.410516127 c 128,-1,4
 230.272476373 681.234145417 230.272476373 681.234145417 208.898413837 706.290004962 c 0,5,6
 128.002673961 801.60560826 128.002673961 801.60560826 128.058592711 939.562756763 c 0,7,8
 128.002383101 1104.98951174 128.002383101 1104.98951174 215.319881471 1200.03397638 c 0,9,10
 325.931467577 1321 325.931467577 1321 515 1321 c 0,11,12
 671.899728278 1321 671.899728278 1321 756.47794711 1235.99537859 c 128,-1,13
 841.056165942 1150.99075718 841.056165942 1150.99075718 857.040913586 975.558648966 c 0,14,15
 869.057717698 843.548370196 869.057717698 843.548370196 877.054732804 729.358048378 c 0,16,17
 902.288293022 347.18549882 902.288293022 347.18549882 923.068036173 21.9091796875 c 1,18,-1
 779.737494354 21.9091796875 l 1,19,20
 765.459313136 319.898635243 765.459313136 319.898635243 748.405561617 648.949216323 c 2,21,-1
 746.853115021 678.903531892 l 1,22,-1
 721.150906035 663.441722008 l 2,23,24
 672.764548458 634.333692333 672.764548458 634.333692333 612.927412556 619.75528842 c 128,-1,25
 553.090276654 605.176884506 553.090276654 605.176884506 481.444507961 605.343787066 c 0,0,1
469.718939377 728.701297206 m 0,26,27
 625.493731423 719.527496636 625.493731423 719.527496636 721.327613376 824.229631993 c 2,28,-1
 726.054180335 829.393584902 l 1,29,-1
 726.049801166 836.394072433 l 2,30,31
 725.999177912 917.319810478 725.999177912 917.319810478 710.936970638 1019.91632169 c 0,32,33
 702.732887505 1075.5014529 702.732887505 1075.5014529 678.888994874 1113.86567913 c 128,-1,34
 655.045102244 1152.22990537 655.045102244 1152.22990537 616.052456178 1172.04071143 c 128,-1,35
 577.059810112 1191.85151748 577.059810112 1191.85151748 524.480133831 1191.76755482 c 0,36,37
 370.586963574 1192.01516887 370.586963574 1192.01516887 304.459353868 1096.62708492 c 0,38,39
 246.131990478 1013.44401242 246.131990478 1013.44401242 260.353564714 918.655316266 c 0,40,41
 266.707896668 874.865754429 266.707896668 874.865754429 283.401792768 840.628628174 c 128,-1,42
 300.095688869 806.391501919 300.095688869 806.391501919 326.477349942 782.501036288 c 128,-1,43
 352.859011015 758.610570656 352.859011015 758.610570656 388.872764438 745.027889184 c 128,-1,44
 424.886517861 731.445207713 424.886517861 731.445207713 469.718939377 728.701297206 c 0,26,27
EndSplineSet
EndChar

StartChar: afii57381
Encoding: 1642 1642 69
Width: 1291
VWidth: 2553
GlyphClass: 2
Flags: W
LayerCount: 2
Fore
SplineSet
813.738669525 178.347010063 m 0,0,1
 813.381191236 233.070335348 813.381191236 233.070335348 853.947888451 272.069636026 c 0,2,3
 894.628966514 311.670501634 894.628966514 311.670501634 950.900232068 311.545942617 c 0,4,5
 1007.04034889 311.67032605 1007.04034889 311.67032605 1047.80507296 272.038629166 c 0,6,7
 1088.28829862 233.070046969 1088.28829862 233.070046969 1087.98311545 178.347104586 c 0,8,9
 1088.04509221 167.354761183 1088.04509221 167.354761183 1086.52436756 157.15190299 c 128,-1,10
 1085.00364291 146.949044797 1085.00364291 146.949044797 1081.8551674 137.338325993 c 128,-1,11
 1078.70669189 127.727607189 1078.70669189 127.727607189 1073.8773322 118.7116675 c 128,-1,12
 1069.04797251 109.695727811 1069.04797251 109.695727811 1062.52317149 101.180238896 c 128,-1,13
 1055.99837048 92.6647499814 1055.99837048 92.6647499814 1047.69450251 84.5493340871 c 0,14,15
 1007.04046931 44.7401722191 1007.04046931 44.7401722191 950.860412098 45.1498923028 c 0,16,17
 894.628342432 44.7401711323 894.628342432 44.7401711323 854.005439907 84.5696305821 c 128,-1,18
 813.38120992 124.221453777 813.38120992 124.221453777 813.738669525 178.347010063 c 0,0,1
203.407614837 1204.66048662 m 0,19,20
 203.225760931 1232.49896177 203.225760931 1232.49896177 213.076942231 1255.49636228 c 128,-1,21
 222.928123532 1278.49376279 222.928123532 1278.49376279 243.616833763 1298.38311259 c 0,22,23
 264.288797373 1318.50616959 264.288797373 1318.50616959 288.141986936 1328.21441931 c 128,-1,24
 311.9951765 1337.92266904 311.9951765 1337.92266904 340.569177381 1337.85941918 c 0,25,26
 396.709294204 1337.98380261 396.709294204 1337.98380261 437.474018267 1298.35210573 c 0,27,28
 477.957243929 1259.38352353 477.957243929 1259.38352353 477.652060762 1204.66058115 c 0,29,30
 477.95722836 1150.53533589 477.95722836 1150.53533589 437.363447816 1110.86281065 c 128,-1,31
 396.709414624 1071.05364878 396.709414624 1071.05364878 340.529357411 1071.46336886 c 0,32,33
 284.297287744 1071.05364769 284.297287744 1071.05364769 243.67438522 1110.88310714 c 128,-1,34
 203.050155232 1150.53493034 203.050155232 1150.53493034 203.407614837 1204.66048662 c 0,19,20
898.202234238 1336.4151491 m 1,35,-1
 1021.35596127 1274.27338865 l 1,36,-1
 350.015282963 33.1562021575 l 1,37,-1
 228.472922807 97.4213042637 l 1,38,-1
 898.202234238 1336.4151491 l 1,35,-1
EndSplineSet
EndChar

StartChar: uni066B
Encoding: 1643 1643 70
Width: 667
VWidth: 2553
GlyphClass: 2
Flags: W
LayerCount: 2
Fore
SplineSet
79.4122347103 -202.667966272 m 1,0,-1
 462.172369883 551.68526259 l 1,1,-1
 552.67323907 508.638563089 l 1,2,-1
 173.652317786 -247.429665892 l 1,3,-1
 79.4122347103 -202.667966272 l 1,0,-1
EndSplineSet
EndChar

StartChar: uni066C
Encoding: 1644 1644 71
Width: 592
VWidth: 2304
GlyphClass: 2
Flags: W
LayerCount: 2
Fore
SplineSet
298.605408674 244.004319825 m 0,0,1
 339.458659769 243.075836845 339.458659769 243.075836845 366.101856107 231.867415222 c 128,-1,2
 392.745052444 220.658993599 392.745052444 220.658993599 406.500931834 199.376665571 c 128,-1,3
 420.256811225 178.094337543 420.256811225 178.094337543 423.233633957 145.23972347 c 0,4,5
 431.764976044 49.8253821127 431.764976044 49.8253821127 402.734317788 -47.9111673481 c 0,6,7
 350.657672263 -224.599786093 350.657672263 -224.599786093 173.320083848 -309.595662778 c 1,8,-1
 150.128693265 -288.259583442 l 1,9,10
 194.160161655 -261.378551594 194.160161655 -261.378551594 228.575856245 -230.016737513 c 128,-1,11
 262.991550834 -198.654923432 262.991550834 -198.654923432 287.707636998 -162.88655258 c 128,-1,12
 312.423723162 -127.118181729 312.423723162 -127.118181729 327.234246118 -86.8568023014 c 128,-1,13
 342.044769074 -46.5954228738 342.044769074 -46.5954228738 346.718369953 -2.22131793426 c 2,14,-1
 348.858676393 18.1000969768 l 1,15,-1
 328.429603261 17.659884988 l 2,16,17
 298.668028327 17.0185733628 298.668028327 17.0185733628 289.242797699 17.9229501591 c 0,18,19
 226.770940793 21.1792174703 226.770940793 21.1792174703 199.464526921 46.676755125 c 128,-1,20
 172.15811305 72.1742927797 172.15811305 72.1742927797 173.072540111 123.754178512 c 0,21,22
 173.947724829 187.832611774 173.947724829 187.832611774 203.948708004 216.601448731 c 128,-1,23
 233.94969118 245.370285687 233.94969118 245.370285687 298.605408674 244.004319825 c 0,0,1
EndSplineSet
EndChar

StartChar: afii63167
Encoding: 1645 1645 72
Width: 1411
VWidth: 2553
GlyphClass: 2
Flags: W
LayerCount: 2
Fore
SplineSet
247.91543477 892.817382812 m 1,0,-1
 596.714559773 892.817382812 l 1,1,-1
 705.771074005 1224.84653982 l 1,2,-1
 814.822354403 892.817382812 l 1,3,-1
 1163.62362773 892.817382812 l 1,4,-1
 881.789631973 686.788864725 l 1,5,-1
 989.546429955 355.746768909 l 1,6,-1
 705.771565319 560.805287152 l 1,7,-1
 421.991625271 355.746250211 l 1,8,-1
 529.749456892 686.788845451 l 1,9,-1
 247.91543477 892.817382812 l 1,0,-1
EndSplineSet
EndChar

StartChar: uni066E
Encoding: 1646 1646 73
Width: 1931
VWidth: 2553
GlyphClass: 2
Flags: W
AnchorPoint: "Anchor-10" 869.751 1229.53 basechar 0
AnchorPoint: "Anchor-7" 869.751 -214.707 basechar 0
LayerCount: 2
Fore
SplineSet
1463.10742188 170 m 2,0,1
 1516.77357376 170 1516.77357376 170 1557.54608143 188.60799311 c 128,-1,2
 1598.31858911 207.21598622 1598.31858911 207.21598622 1625.0245281 243.201545365 c 128,-1,3
 1651.7304671 279.18710451 1651.7304671 279.18710451 1665.20654214 331.408879064 c 128,-1,4
 1678.68261719 383.630653619 1678.68261719 383.630653619 1678.68261719 451.366210938 c 2,5,-1
 1678.68261719 635.75 l 1,6,-1
 1821.44042969 635.75 l 1,7,-1
 1821.44043839 447.860475478 l 2,8,9
 1821.29684964 301.854912793 1821.29684964 301.854912793 1780.85456243 206.461701768 c 128,-1,10
 1740.41227521 111.068490743 1740.41227521 111.068490743 1659.76661546 64.5342453717 c 128,-1,11
 1579.12095571 18 1579.12095571 18 1456.4609375 18 c 2,12,-1
 472.935546875 18 l 2,13,14
 289.302503556 18 289.302503556 18 199.226455566 122.2646756 c 128,-1,15
 109.150407575 226.529351201 109.150407575 226.529351201 109.149414062 441.977622067 c 2,16,-1
 109.148520505 635.75 l 1,17,-1
 251.904296875 635.75 l 1,18,-1
 251.904298053 452.534503757 l 2,19,20
 251.953906462 315.407747994 251.953906462 315.407747994 306.230830098 242.703873997 c 128,-1,21
 360.507753733 170 360.507753733 170 467.470703125 170 c 2,22,-1
 1463.10742188 170 l 2,0,1
EndSplineSet
Substitution2: "'init' Initial Forms in Arabic lookup 13 subtable" uni066E.init
Substitution2: "'medi' Medial Forms in Arabic lookup 11 subtable" uni066E.medi
Substitution2: "'fina' Terminal Forms in Arabic lookup 9 subtable" uni066E.fina
EndChar

StartChar: uni066F
Encoding: 1647 1647 74
Width: 1443
VWidth: 2553
GlyphClass: 2
Flags: W
AnchorPoint: "Anchor-10" 343.676 1161.52 basechar 0
AnchorPoint: "Anchor-7" 415.271 -713.467 basechar 0
LayerCount: 2
Fore
SplineSet
1325.15039233 -14.4707328911 m 2,0,1
 1325.24956805 -242.022341507 1325.24956805 -242.022341507 1185.7113504 -354.511170754 c 128,-1,2
 1046.17313276 -467 1046.17313276 -467 759.385742188 -467 c 2,3,-1
 701.184570312 -467 l 2,4,5
 402.096999817 -467 402.096999817 -467 255.653338282 -332.826626584 c 128,-1,6
 109.209676748 -198.653253168 109.209676748 -198.653253168 109.121092797 73.9248034108 c 2,7,-1
 109.005836987 428.067797701 l 1,8,-1
 251.877929688 428.606772845 l 1,9,-1
 251.877930663 75.0868477694 l 2,10,11
 251.903325378 -2.05295167726 251.903325378 -2.05295167726 270.516264019 -64.3312050884 c 128,-1,12
 289.12920266 -126.6094585 289.12920266 -126.6094585 325.828223441 -173.187085498 c 128,-1,13
 362.527244222 -219.764712496 362.527244222 -219.764712496 416.92694141 -251.084819674 c 128,-1,14
 471.326638597 -282.404926852 471.326638597 -282.404926852 543.06530454 -298.058420457 c 128,-1,15
 614.803970483 -313.711914062 614.803970483 -313.711914062 703.356445312 -313.711914062 c 2,16,-1
 731.061537837 -313.711914062 l 1,17,-1
 758.168844241 -313.120591907 l 2,18,19
 968.751384217 -308.459300555 968.751384217 -308.459300555 1078.06566412 -232.894537621 c 128,-1,20
 1187.37994402 -157.329774687 1187.37994402 -157.329774687 1186.56319626 -10.9640002977 c 2,21,-1
 1186.1058806 70.98046875 l 1,22,-1
 987.347816156 70.9804687141 l 2,23,24
 839.997902904 70.9897719593 839.997902904 70.9897719593 768.355413305 154.868692353 c 128,-1,25
 696.712923706 238.747612746 696.712923706 238.747612746 697.383611042 413.522484818 c 0,26,27
 698.165606851 589.350580382 698.165606851 589.350580382 776.751889252 674.556283981 c 128,-1,28
 855.338171653 759.76198758 855.338171653 759.76198758 1015.90744816 760.463891392 c 0,29,30
 1172.21414127 760.720221426 1172.21414127 760.720221426 1248.55116898 673.997391774 c 128,-1,31
 1324.8881967 587.274562122 1324.8881967 587.274562122 1324.96679859 406.819304229 c 2,32,-1
 1325.15039233 -14.4707328911 l 2,0,1
1011.86609054 621.247988407 m 0,33,34
 918.096813389 621.114253433 918.096813389 621.114253433 869.087548191 568.028012263 c 128,-1,35
 820.078282993 514.941771092 820.078282993 514.941771092 820.167000275 415.116671452 c 0,36,37
 820.078372852 321.617332504 820.078372852 321.617332504 862.394329772 271.260452984 c 128,-1,38
 904.710286692 220.903573464 904.710286692 220.903573464 986.30110711 220.874024615 c 2,39,-1
 1196.0677748 220.79815809 l 1,40,-1
 1195.56633627 400.924215309 l 2,41,42
 1195.36898889 471.697411232 1195.36898889 471.697411232 1174.89415031 520.812669681 c 128,-1,43
 1154.41931173 569.927928131 1154.41931173 569.927928131 1113.23572324 595.725034421 c 128,-1,44
 1072.05213474 621.522140712 1072.05213474 621.522140712 1011.86609054 621.247988407 c 0,33,34
EndSplineSet
Substitution2: "'init' Initial Forms in Arabic lookup 13 subtable" uni066F.init
Substitution2: "'medi' Medial Forms in Arabic lookup 11 subtable" uni066F.medi
Substitution2: "'fina' Terminal Forms in Arabic lookup 9 subtable" uni066F.fina
EndChar

StartChar: uni0670
Encoding: 1648 1648 75
Width: 11
VWidth: 2553
GlyphClass: 4
Flags: W
AnchorPoint: "Anchor-10" 648 1490.29 mark 0
AnchorPoint: "Anchor-9" 648 1490.29 mark 0
AnchorPoint: "Anchor-1" 648 2086.6 basemark 0
AnchorPoint: "Anchor-1" 648 1490.29 mark 0
LayerCount: 2
Fore
SplineSet
604.571289062 1557.38378906 m 1,0,-1
 604.571289062 2019.51757812 l 5,1,-1
 691.427734375 2019.51757812 l 5,2,-1
 691.427734375 1557.38378906 l 1,3,-1
 604.571289062 1557.38378906 l 1,0,-1
EndSplineSet
EndChar

StartChar: uni0674
Encoding: 1652 1652 76
Width: 759
VWidth: 2553
GlyphClass: 2
Flags: W
LayerCount: 2
Fore
SplineSet
161.505859375 1776.52950978 m 1,0,-1
 270.56497862 1801.69567833 l 1,1,2
 191 1849 191 1849 172.381282354 1919.10907815 c 0,3,4
 164 1950 164 1950 164.018554688 1987.76855469 c 0,5,6
 164 2100 164 2100 264.772460938 2157.04492188 c 0,7,8
 351 2206 351 2206 475.813643022 2180.37203311 c 0,9,10
 514 2172 514 2172 559.309570312 2148.38523232 c 1,11,-1
 559.309570312 2033.42906726 l 1,12,13
 485 2076 485 2076 401.819890011 2070.87784069 c 4,14,15
 282.23140512 2061.64362202 282.23140512 2061.64362202 275.441453037 1984.07374436 c 0,16,17
 266.84282758 1888.24842974 266.84282758 1888.24842974 395.855011189 1851.35484206 c 0,18,19
 433 1841 433 1841 585.682617188 1873.77048489 c 1,20,-1
 585.682617188 1752.89747923 l 1,21,-1
 161.505859375 1657.66927849 l 1,22,-1
 161.505859375 1776.52950978 l 1,0,-1
EndSplineSet
EndChar

StartChar: uni06A1
Encoding: 1697 1697 80
Width: 1931
VWidth: 2553
GlyphClass: 2
Flags: W
AnchorPoint: "Anchor-10" 494.245 1207.49 basechar 0
AnchorPoint: "Anchor-7" 511.19 -185.02 basechar 0
LayerCount: 2
Fore
SplineSet
1818.39259738 363.797888003 m 2,0,1
 1818.51898143 277.400398466 1818.51898143 277.400398466 1788.47148896 213.006490815 c 128,-1,2
 1758.42399649 148.612583163 1758.42399649 148.612583163 1696.89780717 105.033087471 c 128,-1,3
 1635.37161784 61.4535917794 1635.37161784 61.4535917794 1540.90011946 39.7267958897 c 128,-1,4
 1446.42862109 18 1446.42862109 18 1318.48925781 18 c 2,5,-1
 472.358398438 18 l 2,6,7
 180.806653289 18 180.806653289 18 123.384290003 285.179053322 c 0,8,9
 108.649866963 354.852115515 108.649866963 354.852115515 108.555664062 441.885825192 c 2,10,-1
 108.554770504 635.660156248 l 1,11,-1
 251.311523438 635.66015625 l 1,12,-1
 251.311535928 452.466516952 l 2,13,14
 251.150038669 315.375088954 251.150038669 315.375088954 305.434502349 242.687544477 c 128,-1,15
 359.718966028 170 359.718966028 170 466.877929688 170 c 2,16,-1
 1315.04296875 170 l 2,17,18
 1661.19895774 170 1661.19895774 170 1666.81702508 337.44131734 c 2,19,-1
 1668.58724653 390.201135377 l 1,20,-1
 1648.69421899 388.833594155 l 2,21,22
 1631.11496832 387.625112948 1631.11496832 387.625112948 1613.61080947 386.740442003 c 128,-1,23
 1596.10665062 385.855771058 1596.10665062 385.855771058 1578.65693264 385.294110216 c 128,-1,24
 1561.20721466 384.732449373 1561.20721466 384.732449373 1543.8119768 384.49396294 c 128,-1,25
 1526.41673894 384.255476506 1526.41673894 384.255476506 1509.05882549 384.339747626 c 0,26,27
 1314.97721659 384.974025781 1314.97721659 384.974025781 1236.20469633 471.478986226 c 0,28,29
 1176.99833097 536.93485201 1176.99833097 536.93485201 1176.96191395 688.301727848 c 0,30,31
 1176.97418306 799.66525462 1176.97418306 799.66525462 1211.56937048 872.268703819 c 128,-1,32
 1246.16455791 944.872153018 1246.16455791 944.872153018 1316.13468515 980.568432441 c 128,-1,33
 1386.10481238 1016.26471187 1386.10481238 1016.26471187 1493.31638604 1016.38966015 c 0,34,35
 1603.8202595 1016.2636364 1603.8202595 1016.2636364 1675.6998859 984.249010118 c 128,-1,36
 1747.57951231 952.234383837 1747.57951231 952.234383837 1782.6495674 888.042552041 c 128,-1,37
 1817.7196225 823.850720245 1817.7196225 823.850720245 1817.86330051 725.630895815 c 2,38,-1
 1818.39259738 363.797888003 l 2,0,1
1677.99998697 708.521659914 m 2,39,40
 1677.93417693 763.211622874 1677.93417693 763.211622874 1656.59659976 801.038909756 c 128,-1,41
 1635.25902259 838.866196638 1635.25902259 838.866196638 1594.39853456 858.062481175 c 128,-1,42
 1553.53804652 877.258765712 1553.53804652 877.258765712 1494.92159849 877.401319826 c 0,43,44
 1401.59739915 877.187232877 1401.59739915 877.187232877 1351.7605726 831.544903749 c 128,-1,45
 1301.92374605 785.902574622 1301.92374605 785.902574622 1301.83301959 698.969644933 c 0,46,47
 1301.9254522 618.161916834 1301.9254522 618.161916834 1354.40006433 576.580958417 c 128,-1,48
 1406.87467646 535 1406.87467646 535 1504 535 c 0,49,50
 1596.18369336 535 1596.18369336 535 1662.53395092 543.764385769 c 2,51,-1
 1678.19575478 545.833195989 l 1,52,-1
 1677.99998697 708.521659914 l 2,39,40
EndSplineSet
Substitution2: "'init' Initial Forms in Arabic lookup 13 subtable" uni06A1.init
Substitution2: "'medi' Medial Forms in Arabic lookup 11 subtable" uni06A1.medi
Substitution2: "'fina' Terminal Forms in Arabic lookup 9 subtable" uni06A1.fina
EndChar

StartChar: uni06A9
Encoding: 1705 1705 81
Width: 1835
VWidth: 2553
GlyphClass: 2
Flags: W
AnchorPoint: "Anchor-10" 459.222 1405.6 basechar 0
AnchorPoint: "Anchor-7" 402.269 -315.044 basechar 0
LayerCount: 2
Fore
SplineSet
251.814453125 451.571289062 m 2,0,1
 251.814453125 314.911415343 251.814453125 314.911415343 306.105080546 242.455707671 c 128,-1,2
 360.395707967 170 360.395707967 170 467.379882812 170 c 2,3,-1
 1290.24316406 170 l 2,4,5
 1361.04237366 170 1361.04237366 170 1410.67378725 186.293599819 c 128,-1,6
 1460.30520084 202.587199637 1460.30520084 202.587199637 1487.7816855 236.981859959 c 128,-1,7
 1515.25817017 271.376520281 1515.25817017 271.376520281 1516.02945231 322.568750692 c 0,8,9
 1517.12363102 384.882835536 1517.12363102 384.882835536 1404.50295682 513.283270969 c 2,10,-1
 1133.70847446 822.019916138 l 2,11,12
 1120.04862515 837.579370727 1120.04862515 837.579370727 1108.10799389 851.518416342 c 128,-1,13
 1096.16736262 865.457461957 1096.16736262 865.457461957 1086.14732445 877.53551733 c 128,-1,14
 1076.12728628 889.613572703 1076.12728628 889.613572703 1067.96787074 899.887741604 c 128,-1,15
 1059.8084552 910.161910504 1059.8084552 910.161910504 1053.56253709 918.566175253 c 0,16,17
 1033.37962438 946.32915293 1033.37962438 946.32915293 1036.14202379 989.312138561 c 0,18,19
 1040.71082375 1050.49691854 1040.71082375 1050.49691854 1066.99862298 1088.08466121 c 128,-1,20
 1093.2864222 1125.67240389 1093.2864222 1125.67240389 1142.54698607 1142.91390227 c 2,21,-1
 1765.82421875 1361.06474246 l 1,22,-1
 1765.82421875 1214.89679953 l 1,23,-1
 1163.62604384 1008.26483169 l 1,24,-1
 1514.27953851 612.551794885 l 2,25,26
 1659.23092621 449.037864098 1659.23092621 449.037864098 1641.51825335 288.905893117 c 0,27,28
 1625.07392875 146.344936248 1625.07392875 146.344936248 1508.91290405 68.8320749869 c 0,29,30
 1483.8273243 52.1320791707 1483.8273243 52.1320791707 1452.43255061 40.8841916286 c 128,-1,31
 1421.03777692 29.6363040864 1421.03777692 29.6363040864 1382.42137921 23.8207947168 c 128,-1,32
 1343.80498149 18.0052853473 1343.80498149 18.0052853473 1298.74788849 17.9999998762 c 2,33,-1
 474.58852115 17.9033197408 l 2,34,35
 109.059554435 17.9954487863 109.059554435 17.9954487863 109.057617187 441.977621307 c 2,36,-1
 109.056723333 637.604781019 l 1,37,-1
 251.814453125 636.803831602 l 1,38,-1
 251.814453125 451.571289062 l 2,0,1
EndSplineSet
Substitution2: "'init' Initial Forms in Arabic lookup 13 subtable" uniFB90
Substitution2: "'medi' Medial Forms in Arabic lookup 11 subtable" uniFB91
Substitution2: "'fina' Terminal Forms in Arabic lookup 9 subtable" uniFB8F
EndChar

StartChar: afii57514
Encoding: 1722 1722 83
Width: 1422
VWidth: 2553
GlyphClass: 2
Flags: W
AnchorPoint: "Anchor-10" 587.158 925.159 basechar 0
AnchorPoint: "Anchor-7" 691.132 -706.307 basechar 0
LayerCount: 2
Fore
SplineSet
109.006362452 428.003342011 m 1,0,-1
 251.877929688 428.029861675 l 1,1,-1
 251.877930681 104.583866258 l 2,2,3
 251.941393484 -86.5214220619 251.941393484 -86.5214220619 364.150429873 -183.842254 c 128,-1,4
 476.359466262 -281.163085938 476.359466262 -281.163085938 693.842773438 -281.163085938 c 2,5,-1
 715.767683426 -281.163085938 l 1,6,-1
 737.795779913 -280.565159394 l 2,7,8
 948.922223353 -274.630857299 948.922223353 -274.630857299 1057.93790694 -181.597104557 c 128,-1,9
 1166.95359052 -88.5633518162 1166.95359052 -88.5633518162 1166.84276992 88.7085182305 c 2,10,-1
 1166.50636756 626.827565872 l 1,11,-1
 1311.94726562 626.901927362 l 1,12,-1
 1311.94726571 89.3087433412 l 2,13,14
 1311.96438379 -81.5366268748 1311.96438379 -81.5366268748 1249.25335682 -195.794635242 c 128,-1,15
 1186.54232985 -310.052643609 1186.54232985 -310.052643609 1059.18499524 -369.520823952 c 128,-1,16
 931.827660634 -428.989004295 931.827660634 -428.989004295 738.11307776 -433.879757492 c 2,17,-1
 715.132186287 -434.459960938 l 1,18,-1
 691.68565839 -434.459966215 l 2,19,20
 626.174289866 -434.409801272 626.174289866 -434.409801272 568.239749384 -427.80612017 c 128,-1,21
 510.305208902 -421.202439067 510.305208902 -421.202439067 459.74621038 -408.02741571 c 128,-1,22
 409.187211858 -394.852392353 409.187211858 -394.852392353 366.071811982 -375.032209599 c 128,-1,23
 322.956412107 -355.212026844 322.956412107 -355.212026844 287.124875852 -328.796166217 c 128,-1,24
 251.293339597 -302.380305589 251.293339597 -302.380305589 222.769402523 -269.223155152 c 128,-1,25
 194.245465449 -236.066004714 194.245465449 -236.066004714 172.913713657 -196.288840785 c 128,-1,26
 151.581961864 -156.511676856 151.581961864 -156.511676856 137.421809787 -109.897092703 c 128,-1,27
 123.261657709 -63.2825085511 123.261657709 -63.2825085511 116.202012575 -10.0235752889 c 128,-1,28
 109.142367441 43.2353579732 109.142367441 43.2353579732 109.121092626 103.423354697 c 2,29,-1
 109.006362452 428.003342011 l 1,0,-1
EndSplineSet
Substitution2: "'init' Initial Forms in Arabic lookup 13 subtable" uni06BA.init
Substitution2: "'medi' Medial Forms in Arabic lookup 11 subtable" uni06BA.medi
Substitution2: "'fina' Terminal Forms in Arabic lookup 9 subtable" uniFB9F
EndChar

StartChar: uni06F4
Encoding: 1780 1780 90
Width: 1096
VWidth: 2553
GlyphClass: 2
Flags: W
LayerCount: 2
Fore
SplineSet
936.85546875 1174.14902331 m 1,0,1
 882.470786693 1186.83573148 882.470786693 1186.83573148 840.284451509 1193.0460056 c 128,-1,2
 798.098116325 1199.25627972 798.098116325 1199.25627972 764.037010216 1199.49243122 c 0,3,4
 630.408236482 1198.97048428 630.408236482 1198.97048428 556.974557423 1124.03436081 c 0,5,6
 479 1045.41228191 479 1045.41228191 479 918 c 0,7,8
 479 839.699416826 479 839.699416826 544.6999106 800.079058932 c 128,-1,9
 610.399821199 760.458701038 610.399821199 760.458701038 732.346880902 757.730691914 c 0,10,11
 851.858976291 755.170281773 851.858976291 755.170281773 985.70722147 782.820360758 c 1,12,-1
 987.633574394 658.479189612 l 1,13,14
 584.316264448 565.029179398 584.316264448 565.029179398 406.659677295 740.795802858 c 2,15,-1
 362.93828289 784.052076047 l 1,16,-1
 376.43902439 724.048780488 l 2,17,18
 384.964992997 686.155586679 384.964992997 686.155586679 391.709050913 622.722524797 c 128,-1,19
 398.453108829 559.289462916 398.453108829 559.289462916 403.324412798 471.443037931 c 128,-1,20
 408.195716768 383.596612946 408.195716768 383.596612946 411.12697686 270.548895714 c 128,-1,21
 414.058236953 157.501178482 414.058236953 157.501178482 414.928892912 21.9091796875 c 1,22,-1
 271.974108855 21.9091796875 l 1,23,24
 267.585757247 837.603023128 267.585757247 837.603023128 135.714108067 1269.03891241 c 1,25,-1
 272.342833411 1307.96221208 l 1,26,27
 319.347799618 1128.03410177 319.347799618 1128.03410177 341.113323868 934.983364946 c 1,28,-1
 376.987100656 936.31867043 l 1,29,30
 384.276856672 1128.76822925 384.276856672 1128.76822925 471.467870911 1223.9625028 c 128,-1,31
 558.658885149 1319.15677634 558.658885149 1319.15677634 729.431875638 1323.00518176 c 0,32,33
 752.316508886 1323.55441296 752.316508886 1323.55441296 774.606053519 1322.4135827 c 128,-1,34
 796.895598152 1321.27275245 796.895598152 1321.27275245 818.133965061 1318.5020868 c 128,-1,35
 839.372331969 1315.73142114 839.372331969 1315.73142114 859.774217288 1311.35937856 c 128,-1,36
 880.176102606 1306.98733597 880.176102606 1306.98733597 899.428516176 1301.09028068 c 128,-1,37
 918.680929746 1295.19322539 918.680929746 1295.19322539 936.85546875 1287.78347769 c 1,38,-1
 936.85546875 1174.14902331 l 1,0,1
EndSplineSet
EndChar

StartChar: uni06F5
Encoding: 1781 1781 91
Width: 1205
VWidth: 2553
GlyphClass: 2
Flags: W
LayerCount: 2
Fore
SplineSet
394.609280898 173.653439617 m 0,0,1
 528.307463803 172.9393494 528.307463803 172.9393494 554.659029597 400.513671875 c 1,2,-1
 654.27825779 400.513671875 l 1,3,4
 661.869925514 289.938942949 661.869925514 289.938942949 706.344581918 230.406377273 c 128,-1,5
 750.819238322 170.873811597 750.819238322 170.873811597 831.753661368 169.570897938 c 0,6,7
 904.562977437 168.131768774 904.562977437 168.131768774 942.125667305 214.442164834 c 128,-1,8
 979.688357172 260.752560894 979.688357172 260.752560894 979.333796951 346.895618135 c 0,9,10
 978.986122316 423.082109788 978.986122316 423.082109788 951.49989842 502.06737577 c 0,11,12
 873.808623958 723.308978589 873.808623958 723.308978589 614.129917716 1015.43729853 c 2,13,-1
 600.514529893 1030.75407374 l 1,14,-1
 587.082299278 1015.27642633 l 2,15,16
 343.078420764 734.11642357 343.078420764 734.11642357 262.982079044 496.613797405 c 0,17,18
 231.931845179 404.758412021 231.931845179 404.758412021 233.316904155 344.50741584 c 0,19,20
 235.299914077 262.279293467 235.299914077 262.279293467 276.639503961 218.061463151 c 128,-1,21
 317.979093845 173.843632836 317.979093845 173.843632836 394.609280898 173.653439617 c 0,0,1
360.305924931 17.5928034026 m 0,22,23
 227.090736919 17.786332318 227.090736919 17.786332318 162.563064907 89.004145825 c 128,-1,24
 98.0353928952 160.221959332 98.0353928952 160.221959332 98.0682306378 308.872010738 c 0,25,26
 98.0013405403 643.299558317 98.0013405403 643.299558317 502.118846508 1110.74947459 c 2,27,-1
 512.664097859 1122.94735463 l 1,28,-1
 501.695542121 1134.76604274 l 2,29,30
 495.165341022 1141.80237568 495.165341022 1141.80237568 488.370051947 1149.07647852 c 128,-1,31
 481.574762871 1156.35058136 481.574762871 1156.35058136 474.994155675 1163.35167583 c 128,-1,32
 468.413548479 1170.35277031 468.413548479 1170.35277031 462.053157351 1177.07741736 c 1,33,-1
 559.466737395 1289.66196478 l 1,34,35
 573.087539115 1273.70890665 573.087539115 1273.70890665 592.927580901 1251.85203705 c 128,-1,36
 612.767622687 1229.99516746 612.767622687 1229.99516746 639.348768962 1201.64111134 c 0,37,38
 1106.99868171 695.954173507 1106.99868171 695.954173507 1106.9326581 355.565137369 c 0,39,40
 1106.95446085 345.339334737 1106.95446085 345.339334737 1106.60104373 335.211925452 c 128,-1,41
 1106.24762661 325.084516168 1106.24762661 325.084516168 1105.51572857 314.990887316 c 128,-1,42
 1104.78383054 304.897258465 1104.78383054 304.897258465 1103.6701015 294.799871025 c 0,43,44
 1088.93071427 153.575624343 1088.93071427 153.575624343 1022.45024391 85.7934640238 c 128,-1,45
 955.969773548 18.0113037043 955.969773548 18.0113037043 834.360073991 18.0214842368 c 0,46,47
 673.427424184 18.0015402391 673.427424184 18.0015402391 621.648655432 161.743796251 c 2,48,-1
 599.665208468 222.771710532 l 1,49,-1
 577.662135163 161.795976051 l 2,50,51
 524.062956094 18.6000611399 524.062956094 18.6000611399 360.305924931 17.5928034026 c 0,22,23
EndSplineSet
EndChar

StartChar: uni06F6
Encoding: 1782 1782 92
Width: 950
VWidth: 2553
GlyphClass: 2
Flags: W
LayerCount: 2
Fore
SplineSet
247.875405434 971.571517472 m 0,0,1
 248.281922255 912.78290393 248.281922255 912.78290393 272.852413374 869.428383056 c 128,-1,2
 297.422904492 826.073862181 297.422904492 826.073862181 344.099652597 799.733172248 c 128,-1,3
 390.776400702 773.392482315 390.776400702 773.392482315 458.354477794 763.876269743 c 0,4,5
 554.557583854 750.168816383 554.557583854 750.168816383 620.372455458 796.802772371 c 0,6,7
 655.936590445 821.913838462 655.936590445 821.913838462 692.492024515 847.772471663 c 128,-1,8
 729.047458585 873.631104865 729.047458585 873.631104865 764.195734653 898.539489127 c 1,9,-1
 835.670554893 773.061471372 l 1,10,11
 610.342595572 629.864984585 610.342595572 629.864984585 319.581140206 24.1212542227 c 1,12,-1
 197.36668828 83.6412795114 l 1,13,14
 289.187625621 292.155625645 289.187625621 292.155625645 498.083040748 612.893259742 c 2,15,-1
 514.79991534 638.560318079 l 1,16,-1
 484.242026462 640.673894922 l 2,17,18
 299.431412926 653.456565699 299.431412926 653.456565699 210.175637067 734.154531212 c 128,-1,19
 120.919861209 814.852496725 120.919861209 814.852496725 120.84667128 966.355649048 c 0,20,21
 120.993271569 1118.02998939 120.993271569 1118.02998939 214.370039419 1220.66515608 c 0,22,23
 303.300947799 1319.32473036 303.300947799 1319.32473036 466.731103508 1326.01485369 c 0,24,25
 578.016443786 1330.53864801 578.016443786 1330.53864801 658.462424552 1285.05234693 c 1,26,-1
 657.706836077 1165.23623264 l 1,27,28
 578.98748962 1200.03151384 578.98748962 1200.03151384 500.125906123 1200.30631117 c 0,29,30
 477.08936144 1200.54832033 477.08936144 1200.54832033 455.959310075 1198.13131371 c 128,-1,31
 434.829258711 1195.71430709 434.829258711 1195.71430709 415.350680484 1190.51974576 c 128,-1,32
 395.872102257 1185.32518442 395.872102257 1185.32518442 378.551547003 1177.38659659 c 0,33,34
 313.666096527 1147.89321001 313.666096527 1147.89321001 280.536540521 1095.68236237 c 128,-1,35
 247.406984514 1043.47151472 247.406984514 1043.47151472 247.875405434 971.571517472 c 0,0,1
EndSplineSet
EndChar

StartChar: uniFB8F
Encoding: 64399 64399 107
Width: 2018
VWidth: 2553
GlyphClass: 2
Flags: W
AnchorPoint: "Anchor-7" 443.692 -290.794 basechar 0
AnchorPoint: "Anchor-10" 475.382 1372.92 basechar 0
LayerCount: 2
Fore
SplineSet
2023.73828125 18 m 2,0,-1
 2010.12792969 18 l 2,1,2
 1817.25849035 18 1817.25849035 18 1664.941772 231.060043845 c 2,3,-1
 1644.47416245 259.690057902 l 1,4,-1
 1633.24043464 226.3373353 l 2,5,6
 1563.07935936 18.0304473232 1563.07935936 18.0304473232 1302.18442277 17.9999998774 c 2,7,-1
 473.77211273 17.9033197413 l 2,8,9
 350.696631618 17.9343252243 350.696631618 17.9343252243 269.868395798 63.8899222203 c 128,-1,10
 189.040159978 109.845519216 189.040159978 109.845519216 148.634176986 203.92301275 c 128,-1,11
 108.228193995 298.000506284 108.228193995 298.000506284 108.227539062 441.977620942 c 2,12,-1
 108.22664438 638.66015625 l 1,13,-1
 250.984375 638.66015625 l 1,14,-1
 250.984375032 452.539948429 l 2,15,16
 250.992471641 315.977482291 250.992471641 315.977482291 305.286366217 243.580818962 c 128,-1,17
 359.580260794 171.184155633 359.580260794 171.184155633 466.552503686 171.200195514 c 2,18,-1
 1293.65153816 171.324240761 l 2,19,20
 1364.91416947 171.212796393 1364.91416947 171.212796393 1414.72924908 187.297536985 c 128,-1,21
 1464.54432869 203.382277577 1464.54432869 203.382277577 1491.91711547 237.573725324 c 128,-1,22
 1519.28990225 271.765173071 1519.28990225 271.765173071 1519.46845173 322.759276366 c 0,23,24
 1519.79081594 356.815514323 1519.79081594 356.815514323 1492.07538888 402.885938459 c 128,-1,25
 1464.35996182 448.956362595 1464.35996182 448.956362595 1407.9385037 513.283270969 c 2,26,-1
 1137.15003883 822.013058325 l 2,27,28
 1111.59048698 851.156827636 1111.59048698 851.156827636 1091.80354597 875.002592571 c 128,-1,29
 1072.01660496 898.848357507 1072.01660496 898.848357507 1058.30764703 917.003386677 c 0,30,31
 1036.44457577 946.367878117 1036.44457577 946.367878117 1039.62403335 989.480883929 c 0,32,33
 1049.04729582 1110.10292329 1049.04729582 1110.10292329 1145.96260275 1143.87759811 c 2,34,-1
 1769.26074219 1361.09500827 l 1,35,-1
 1769.26074219 1214.82567859 l 1,36,-1
 1168.7611073 1005.25083271 l 1,37,-1
 1775.26960063 318.160839739 l 2,38,39
 1905.87190457 170 1905.87190457 170 2003.13378906 170 c 2,40,-1
 2023.73828125 170 l 2,41,42
 2053.81174526 170 2053.81174526 170 2067.27501326 154.028202257 c 128,-1,43
 2080.73828125 138.056404515 2080.73828125 138.056404515 2080.73828125 99 c 2,44,-1
 2080.73836086 87.9464668561 l 2,45,46
 2080.85279522 49.4691915378 2080.85279522 49.4691915378 2067.40845845 33.7345957689 c 128,-1,47
 2053.96412168 18 2053.96412168 18 2023.73828125 18 c 2,0,-1
EndSplineSet
EndChar

StartChar: uniFB9F
Encoding: 64415 64415 115
Width: 1610
VWidth: 2553
GlyphClass: 2
Flags: W
AnchorPoint: "Anchor-10" 322.402 799.573 basechar 0
AnchorPoint: "Anchor-7" 282.474 -702.176 basechar 0
LayerCount: 2
Fore
SplineSet
1614.9765625 18 m 6,0,-1
 1537.31738281 18 l 2,1,2
 1395.09045662 18 1395.09045662 18 1301.57128906 144.799359382 c 1,3,-1
 1301.57129621 43.847233458 l 2,4,5
 1301.77883827 -188.94214956 1301.77883827 -188.94214956 1162.74830655 -307.269089403 c 128,-1,6
 1023.71777482 -425.596029246 1023.71777482 -425.596029246 738.393019002 -432.35563515 c 2,7,-1
 713.708686631 -432.940429688 l 1,8,-1
 683.099751551 -432.940429779 l 2,9,10
 214.919656115 -432.987532567 214.919656115 -432.987532567 129.117375198 -80.5147497091 c 0,11,12
 109.264368028 2.14216655899 109.264368028 2.14216655899 109.121092626 103.282727086 c 2,13,-1
 109.006359841 428.003342011 l 1,14,-1
 251.877929688 428.029861675 l 1,15,-1
 251.877930687 104.443222652 l 2,16,17
 251.941282921 -85.7371442201 251.941282921 -85.7371442201 361.966072614 -182.693973985 c 128,-1,18
 471.990862308 -279.65080375 471.990862308 -279.65080375 685.273072725 -279.643554678 c 2,19,-1
 714.231825515 -279.642570422 l 1,20,-1
 737.828487495 -279.04826502 l 2,21,22
 1164.34700781 -268.554030345 1164.34700781 -268.554030345 1164.16210632 48.56811228 c 2,23,-1
 1163.82494605 626.827318623 l 1,24,-1
 1314.26757812 626.902174328 l 1,25,-1
 1314.26759017 419.315745518 l 2,26,27
 1314.07858408 255.938605384 1314.07858408 255.938605384 1423.2475096 198.495049832 c 0,28,29
 1477.40108597 170 1477.40108597 170 1556.40722656 170 c 2,30,-1
 1614.9765625 170 l 2,31,32
 1671.9765625 170 1671.9765625 170 1671.9765625 99 c 2,33,-1
 1671.97656314 87.9952059661 l 2,34,35
 1671.99520533 18 1671.99520533 18 1614.9765625 18 c 6,0,-1
EndSplineSet
EndChar

StartChar: uniFBE8
Encoding: 64488 64488 118
Width: 678
VWidth: 2553
GlyphClass: 2
Flags: W
AnchorPoint: "Anchor-10" 379.938 1220.35 basechar 0
AnchorPoint: "Anchor-7" 417.497 -142.32 basechar 0
LayerCount: 2
Fore
SplineSet
-5.02102479312 18 m 2,0,1
 -62.0047940341 18 -62.0047940341 18 -62.0234375 88 c 2,2,-1
 -62.0234375 99 l 2,3,4
 -62.0234375 170.000008834 -62.0234375 170.000008834 -5.00560405507 170.000008834 c 6,5,-1
 227.615489695 170.230477584 l 2,6,7
 325.299525285 170.327257791 325.299525285 170.327257791 375.546489335 230.758880271 c 128,-1,8
 425.793453385 291.190502751 425.793453385 291.190502751 425.56640625 404.623046875 c 2,9,-1
 425.56640625 672.689453125 l 1,10,-1
 568.322265625 672.689453125 l 1,11,-1
 568.322265625 410.48828125 l 2,12,13
 568.322265625 17.9965790413 568.322265625 17.9965790413 242.693301976 17.9335931032 c 2,14,-1
 -5.02102479312 18 l 2,0,1
EndSplineSet
EndChar

StartChar: uniFBE9
Encoding: 64489 64489 119
Width: 877
VWidth: 2553
GlyphClass: 2
Flags: W
AnchorPoint: "Anchor-10" 369.939 1126.45 basechar 0
AnchorPoint: "Anchor-7" 348.812 -147.016 basechar 0
LayerCount: 2
Fore
SplineSet
882.2265625 18 m 2,0,-1
 861.33203125 18 l 2,1,2
 633.790908898 18 633.790908898 18 522.69388978 160.50643303 c 2,3,-1
 508.374496114 178.874214008 l 1,4,-1
 494.20979976 160.386872656 l 2,5,6
 385.115323845 18 385.115323845 18 156.1484375 18 c 2,7,-1
 -5.0234375 18 l 2,8,9
 -62.0234375 18 -62.0234375 18 -62.0234375 88 c 2,10,-1
 -62.0234381241 98.9952598316 l 2,11,12
 -62.0047395444 170 -62.0047395444 170 -5.0234375 170 c 6,13,-1
 161.162109375 170 l 2,14,15
 292.27036053 170 292.27036053 170 361.471117765 227.58941856 c 128,-1,16
 430.671875 285.17883712 430.671875 285.17883712 430.671875 397.358398438 c 2,17,-1
 430.671875 633.372070312 l 1,18,-1
 579.15625 633.372070312 l 1,19,-1
 579.156255012 397.394291831 l 2,20,21
 579.072302226 284.894410249 579.072302226 284.894410249 651.320101109 227.447205124 c 128,-1,22
 723.567899993 170 723.567899993 170 860.405273438 170 c 2,23,-1
 882.2265625 170 l 2,24,25
 939.2265625 170 939.2265625 170 939.2265625 99 c 2,26,-1
 939.226622156 88.046342176 l 2,27,28
 939.046282674 18 939.046282674 18 882.2265625 18 c 2,0,-1
EndSplineSet
EndChar

StartChar: uniFE73
Encoding: 65139 65139 127
Width: 683
VWidth: 2553
GlyphClass: 2
Flags: W
AnchorPoint: "Anchor-10" 252.404 1490.29 basechar 0
AnchorPoint: "Anchor-7" 252.404 -142.32 basechar 0
LayerCount: 2
Fore
SplineSet
324.351364355 395.498046875 m 1,0,1
 326.418624175 310.939980519 326.418624175 310.939980519 395.478621111 241.879985788 c 0,2,3
 419.55918223 217.799425436 419.55918223 217.799425436 451.863529302 201.888528417 c 128,-1,4
 484.167876374 185.977631398 484.167876374 185.977631398 523.269489268 178.338913355 c 128,-1,5
 562.371102162 170.700195312 562.371102162 170.700195312 609.067382812 170.700195312 c 2,6,-1
 659.61328125 170.700195312 l 1,7,-1
 659.61328125 26.9091796875 l 1,8,-1
 539.997070312 26.9091796875 l 2,9,10
 379.743930061 26.9091796875 379.743930061 26.9091796875 280.126847842 126.526261905 c 128,-1,11
 180.509765625 226.143344123 180.509765625 226.143344123 180.509765625 385.141601562 c 2,12,-1
 180.509765625 395.498046875 l 1,13,-1
 324.351364355 395.498046875 l 1,0,1
EndSplineSet
EndChar

StartChar: uniFE8E
Encoding: 65166 65166 153
Width: 551
VWidth: 2553
GlyphClass: 2
Flags: W
AnchorPoint: "Anchor-10" 250.923 1543.04 basechar 0
AnchorPoint: "Anchor-7" 265.009 -292.554 basechar 0
LayerCount: 2
Fore
SplineSet
556.901367188 18 m 2,0,-1
 531.231445312 18 l 2,1,2
 351.49163767 18 351.49163767 18 263.59152196 116.176764651 c 128,-1,3
 175.69140625 214.353529301 175.69140625 214.353529301 175.69140625 417.251953125 c 2,4,-1
 175.69140625 1349.18847656 l 1,5,-1
 318 1349.18847656 l 1,6,-1
 318 426.139648438 l 2,7,8
 318 301.721916964 318 301.721916964 372.750051373 235.860958482 c 128,-1,9
 427.500102746 170 427.500102746 170 534.014648438 170 c 2,10,-1
 556.901367188 170 l 2,11,12
 613.901367188 170 613.901367188 170 613.901367188 99 c 6,13,-1
 613.901378494 87.9798251193 l 2,14,15
 613.9798138 18.0000000001 613.9798138 18.0000000001 556.901367188 18 c 2,0,-1
EndSplineSet
EndChar

StartChar: uniFEA2
Encoding: 65186 65186 173
Width: 1369
VWidth: 2553
GlyphClass: 2
Flags: W
AnchorPoint: "Anchor-10" 677.761 1461.94 basechar 0
AnchorPoint: "Anchor-7" 481.334 -893.653 basechar 0
LayerCount: 2
Fore
SplineSet
1373.9765625 18 m 2,0,-1
 1321.75683594 18 l 2,1,2
 1149.55082543 18 1149.55082543 18 1058.72913287 80.0827711974 c 128,-1,3
 967.907440311 142.165542395 967.907440311 142.165542395 951.853651991 267.290657237 c 2,4,-1
 949.503571899 285.607457952 l 1,5,-1
 931.252950453 282.789146095 l 2,6,7
 707.123697646 248.178481868 707.123697646 248.178481868 556.089359543 184.364208512 c 128,-1,8
 405.055021439 120.549935156 405.055021439 120.549935156 326.602147656 24.6922754518 c 128,-1,9
 248.149273872 -71.165384252 248.149273872 -71.165384252 247.687682029 -197.69443993 c 0,10,11
 246.805025832 -393.957744715 246.805025832 -393.957744715 390.772286863 -492.151111065 c 128,-1,12
 534.739547895 -590.344477416 534.739547895 -590.344477416 814.486629219 -590.172848174 c 2,13,-1
 1210.33007812 -589.929991983 l 1,14,-1
 1210.33007812 -737.436844809 l 1,15,-1
 802.47521245 -736.582051455 l 2,16,17
 421.864181785 -736.011763088 421.864181785 -736.011763088 264.472573842 -585.80422436 c 0,18,19
 105.113078579 -432.922175085 105.113078579 -432.922175085 108.108370846 -215.843447997 c 0,20,21
 113.833136493 326.108309419 113.833136493 326.108309419 989.691832542 436.671998471 c 2,22,-1
 1005.77989033 438.702868321 l 1,23,-1
 1005.43339015 454.914900068 l 2,24,25
 1005.17693575 466.913874731 1005.17693575 466.913874731 998.602196312 477.261135942 c 128,-1,26
 992.027456871 487.608397152 992.027456871 487.608397152 982.486420471 494.608037176 c 128,-1,27
 972.945384071 501.607677199 972.945384071 501.607677199 959.577536141 507.801037938 c 2,28,-1
 741.589216334 608.795621397 l 2,29,30
 655.023703076 648.976896071 655.023703076 648.976896071 578.991315844 649.41922658 c 0,31,32
 494.439455366 648.965016685 494.439455366 648.965016685 428.151937305 598.824458151 c 2,33,-1
 285.406027254 490.849987728 l 1,34,-1
 191.117971902 596.773460426 l 1,35,-1
 322.60265338 707.698216426 l 2,36,37
 381.963483533 757.667628846 381.963483533 757.667628846 443.875817269 782.39587163 c 128,-1,38
 505.788151005 807.124114413 505.788151005 807.124114413 570.791180853 807.236381367 c 0,39,40
 663.366289695 807.011217027 663.366289695 807.011217027 762.980978137 757.359035872 c 2,41,-1
 1083.96340409 597.367807499 l 2,42,43
 1147.24718188 565.738233244 1147.24718188 565.738233244 1177.20120713 532.66301597 c 128,-1,44
 1207.15523238 499.587798696 1207.15523238 499.587798696 1207.26367433 466.459586337 c 2,45,-1
 1207.19799218 340.565078404 l 1,46,47
 1137.03976118 333.569770142 1137.03976118 333.569770142 1084.48660241 323.110813774 c 2,48,-1
 1069.87380735 320.202623484 l 1,49,-1
 1070.00065232 305.303789273 l 2,50,51
 1070.59361789 235.655813837 1070.59361789 235.655813837 1136.38441849 202.827906919 c 128,-1,52
 1202.17521908 170 1202.17521908 170 1323.16308594 170 c 2,53,-1
 1373.9765625 170 l 2,54,55
 1394.0845053 170 1394.0845053 170 1406.30300514 163.37422409 c 128,-1,56
 1418.52150498 156.748448181 1418.52150498 156.748448181 1424.74903374 141.093587219 c 128,-1,57
 1430.9765625 125.438726257 1430.9765625 125.438726257 1430.9765625 99 c 2,58,-1
 1430.97656314 87.9952059661 l 2,59,60
 1430.98681699 49.4954014795 1430.98681699 49.4954014795 1417.53120741 33.7477007397 c 128,-1,61
 1404.07559783 18 1404.07559783 18 1373.9765625 18 c 2,0,-1
EndSplineSet
EndChar

StartChar: uniFEA3
Encoding: 65187 65187 174
Width: 1273
VWidth: 2553
GlyphClass: 2
Flags: W
AnchorPoint: "Anchor-10" 490.912 1239.39 basechar 0
AnchorPoint: "Anchor-7" 425.185 -293.728 basechar 0
LayerCount: 2
Fore
SplineSet
-5.0234375 18 m 2,0,1
 -62.0047940341 18 -62.0047940341 18 -62.0234375 88 c 2,2,-1
 -62.0234381241 98.9952598316 l 2,3,4
 -62.0047395444 170 -62.0047395444 170 -5.0234375 170 c 6,5,-1
 320 170 l 2,6,7
 429.426714722 170 429.426714722 170 527.872279324 192.500877052 c 128,-1,8
 626.317843927 215.001754104 626.317843927 215.001754104 713.200212594 259.976156708 c 2,9,-1
 883.125340569 345.938280271 l 2,10,11
 899.583611432 354.264229061 899.583611432 354.264229061 920.615169069 364.307194306 c 128,-1,12
 941.646726707 374.35015955 941.646726707 374.35015955 952.414912898 379.592158552 c 128,-1,13
 963.183099088 384.834157553 963.183099088 384.834157553 974.604715345 391.236511313 c 128,-1,14
 986.026331601 397.638865072 986.026331601 397.638865072 991.677223427 402.99633497 c 128,-1,15
 997.328115253 408.353804868 997.328115253 408.353804868 999.712580436 414.314967827 c 2,16,-1
 1005.71116559 429.311430707 l 1,17,-1
 912.368886853 478.936439654 l 1,18,-1
 671.313271357 603.965259765 l 2,19,20
 492.760455033 696.939507318 492.760455033 696.939507318 357.141195117 594.355708151 c 2,21,-1
 214.395285066 486.381237728 l 1,22,-1
 120.107229715 592.304710426 l 1,23,-1
 251.598367811 703.234904137 l 2,24,25
 458.639809477 877.686489245 458.639809477 877.686489245 691.510259494 753.127876445 c 2,26,-1
 1035.50738025 569.129416842 l 2,27,28
 1078.59724372 546.071295922 1078.59724372 546.071295922 1106.79478873 522.389842195 c 128,-1,29
 1134.99233373 498.708388467 1134.99233373 498.708388467 1148.13816877 475.549682864 c 0,30,31
 1208.18105263 369.773559308 1208.18105263 369.773559308 968.184497888 234.693531232 c 2,32,-1
 806.188374379 143.695708137 l 2,33,34
 582.29289426 18 582.29289426 18 322 18 c 2,35,-1
 -5.0234375 18 l 2,0,1
EndSplineSet
EndChar

StartChar: uniFEA4
Encoding: 65188 65188 175
Width: 1319
VWidth: 2553
GlyphClass: 2
Flags: W
AnchorPoint: "Anchor-10" 454.527 1219.29 basechar 0
AnchorPoint: "Anchor-7" 494.433 -291.487 basechar 0
LayerCount: 2
Fore
SplineSet
1323.9765625 18 m 2,0,-1
 1236.07324219 18 l 2,1,2
 1138.03298305 18 1138.03298305 18 1063.69555349 61.8617606165 c 128,-1,3
 989.358123937 105.723521233 989.358123937 105.723521233 936.491293025 195.070530584 c 2,4,-1
 927.605459237 210.087936788 l 1,5,-1
 805.328083845 142.77332781 l 2,6,7
 691.739727615 80.324318108 691.739727615 80.324318108 571.017116753 49.162159054 c 128,-1,8
 450.29450589 18 450.29450589 18 322 18 c 2,9,-1
 -5.0234375 18 l 2,10,11
 -62.0234375 18 -62.0234375 18 -62.0234375 88 c 2,12,-1
 -62.0234381241 98.9952598316 l 2,13,14
 -62.0047395444 170 -62.0047395444 170 -5.0234375 170 c 6,15,-1
 320 170 l 2,16,17
 538.338327684 170 538.338327684 170 712.200301687 258.97642199 c 2,18,-1
 882.26830486 346.011223614 l 1,19,-1
 1023.81306665 419.971549596 l 1,20,-1
 671.392303381 604.923857697 l 2,21,22
 645.516389542 618.561163639 645.516389542 618.561163639 618.683227162 627.687183912 c 128,-1,23
 591.850064782 636.813204185 591.850064782 636.813204185 564.131609053 641.390751411 c 128,-1,24
 536.413153323 645.968298637 536.413153323 645.968298637 507.987833913 645.951168346 c 0,25,26
 424.099555011 646.003698327 424.099555011 646.003698327 357.141195117 595.355708151 c 2,27,-1
 214.395285066 487.381237728 l 1,28,-1
 120.107229715 593.304710426 l 1,29,-1
 251.621950112 704.254809002 l 2,30,31
 369.576741047 803.988941174 369.576741047 803.988941174 499.864377636 803.767622923 c 0,32,33
 599.064914983 803.988944756 599.064914983 803.988944756 691.455187885 754.157456457 c 2,34,-1
 1034.4307377 569.170668251 l 2,35,36
 1060.32578273 555.152298008 1060.32578273 555.152298008 1080.94852664 540.977923458 c 128,-1,37
 1101.57127054 526.803548908 1101.57127054 526.803548908 1115.9357001 513.521051977 c 128,-1,38
 1130.30012965 500.238555046 1130.30012965 500.238555046 1139.83958373 487.074148239 c 128,-1,39
 1149.37903781 473.909741431 1149.37903781 473.909741431 1153.79618679 461.802169771 c 128,-1,40
 1158.21333577 449.694598111 1158.21333577 449.694598111 1158.25283492 437.979211006 c 0,41,42
 1158.02901513 366.317990963 1158.02901513 366.317990963 1031.73221851 276.678613347 c 2,43,-1
 1014.60940992 264.525669286 l 1,44,-1
 1029.23621305 249.461099817 l 2,45,46
 1067.76365345 209.780569694 1067.76365345 209.780569694 1119.07869405 189.890284847 c 128,-1,47
 1170.39373465 170 1170.39373465 170 1233.06835938 170 c 2,48,-1
 1323.9765625 170 l 2,49,50
 1380.9765625 170 1380.9765625 170 1380.9765625 99 c 2,51,-1
 1380.97656314 87.9952059661 l 2,52,53
 1380.99520533 18 1380.99520533 18 1323.9765625 18 c 2,0,-1
EndSplineSet
EndChar

StartChar: uniFEAA
Encoding: 65194 65194 181
Width: 1194
VWidth: 2553
GlyphClass: 2
Flags: W
AnchorPoint: "Anchor-10" 403.389 1316.77 basechar 0
AnchorPoint: "Anchor-7" 334.739 -286.099 basechar 0
LayerCount: 2
Fore
SplineSet
1198.9765625 18 m 2,0,-1
 1183.35644531 18 l 2,1,2
 1004.67486515 18 1004.67486515 18 873.079565086 183.214537307 c 2,3,-1
 853.3543073 207.979094526 l 1,4,-1
 842.162221609 178.363113927 l 2,5,6
 781.559882043 18 781.559882043 18 472.64453125 18 c 2,7,-1
 109.899414062 18 l 1,8,-1
 109.899414062 170 l 1,9,-1
 459.596679688 170 l 2,10,11
 479.424174015 170 479.424174015 170 497.772279746 170.674136149 c 0,12,13
 739.331539862 179.549375462 739.331539862 179.549375462 734.499670528 307.627269646 c 0,14,15
 731.77964345 385.633195378 731.77964345 385.633195378 627.722470736 505.980044953 c 2,16,-1
 363.841081462 811.170864891 l 1,17,-1
 464.942396339 921.871021678 l 1,18,-1
 989.172016967 290.476680806 l 2,19,20
 1089.56925097 170 1089.56925097 170 1190.41015625 170 c 2,21,-1
 1198.9765625 170 l 2,22,23
 1229.05002651 170 1229.05002651 170 1242.51329451 154.028202257 c 128,-1,24
 1255.9765625 138.056404515 1255.9765625 138.056404515 1255.9765625 99 c 2,25,-1
 1255.97656314 87.9952059661 l 2,26,27
 1255.98681699 49.4954014795 1255.98681699 49.4954014795 1242.53120741 33.7477007397 c 128,-1,28
 1229.07559783 18 1229.07559783 18 1198.9765625 18 c 2,0,-1
EndSplineSet
EndChar

StartChar: uniFEAE
Encoding: 65198 65198 185
Width: 883
VWidth: 2553
GlyphClass: 2
Flags: W
AnchorPoint: "Anchor-10" 390.643 948.634 basechar 0
AnchorPoint: "Anchor-7" 274.358 -757.397 basechar 0
LayerCount: 2
Fore
SplineSet
888.022460938 18 m 2,0,-1
 871.923828125 18 l 6,1,2
 728 18 728 18 649.382343772 123.760705967 c 1,3,-1
 649.383794921 -17.3038366348 l 2,4,5
 649.197801367 -247.830778131 649.197801367 -247.830778131 519.881095385 -361.187783522 c 128,-1,6
 390.564389403 -474.544788914 390.564389403 -474.544788914 125.362520806 -474.412111628 c 2,7,-1
 39.8977410569 -474.369354632 l 1,8,-1
 39.9001101728 -322.208941515 l 1,9,-1
 120.588761913 -322.265619125 l 2,10,11
 306.201831635 -322.115652346 306.201831635 -322.115652346 402.893396287 -245.594603651 c 128,-1,12
 499.584960938 -169.073554956 499.584960938 -169.073554956 499.584960938 -18.5009765625 c 2,13,-1
 499.584960938 590.729675431 l 1,14,-1
 648.209960938 591.580281865 l 1,15,-1
 648.209960938 344.828693859 l 1,16,17
 654.650938033 170 654.650938033 170 871.923828125 170 c 2,18,-1
 888.022460938 170 l 2,19,20
 945.022460938 170 945.022460938 170 945.022460938 99 c 2,21,-1
 945.022461524 88.0045942826 l 2,22,23
 945.004593696 17.9999999999 945.004593696 17.9999999999 888.022460938 18 c 2,0,-1
EndSplineSet
PairPos2: "'kern' Horizontal Kerning lookup 15-1" uniFEFB dx=-100 dy=0 dh=-100 dv=0 dx=0 dy=0 dh=0 dv=0
PairPos2: "'kern' Horizontal Kerning lookup 15-1" uniFEDF dx=-100 dy=0 dh=-100 dv=0 dx=0 dy=0 dh=0 dv=0
PairPos2: "'kern' Horizontal Kerning lookup 15-1" uni062F dx=-100 dy=0 dh=-100 dv=0 dx=0 dy=0 dh=0 dv=0
PairPos2: "'kern' Horizontal Kerning lookup 15-2" uniFB90 dx=-142 dy=0 dh=-142 dv=0 dx=0 dy=0 dh=0 dv=0
PairPos2: "'kern' Horizontal Kerning lookup 15-2" uniFB8E dx=-142 dy=0 dh=-142 dv=0 dx=0 dy=0 dh=0 dv=0
PairPos2: "'kern' Horizontal Kerning lookup 15-2" uni06A9 dx=-142 dy=0 dh=-142 dv=0 dx=0 dy=0 dh=0 dv=0
PairPos2: "'kern' Horizontal Kerning lookup 15-2" uniFEEB dx=-100 dy=0 dh=-100 dv=0 dx=0 dy=0 dh=0 dv=0
PairPos2: "'kern' Horizontal Kerning lookup 15-2" uni0647 dx=-100 dy=0 dh=-100 dv=0 dx=0 dy=0 dh=0 dv=0
PairPos2: "'kern' Horizontal Kerning lookup 15-2" uniFEE7 dx=-100 dy=0 dh=-100 dv=0 dx=0 dy=0 dh=0 dv=0
PairPos2: "'kern' Horizontal Kerning lookup 15-2" uniFEE3 dx=-100 dy=0 dh=-100 dv=0 dx=0 dy=0 dh=0 dv=0
PairPos2: "'kern' Horizontal Kerning lookup 15-2" uni0645 dx=-100 dy=0 dh=-100 dv=0 dx=0 dy=0 dh=0 dv=0
PairPos2: "'kern' Horizontal Kerning lookup 15-2" uniFEDB dx=-142 dy=0 dh=-142 dv=0 dx=0 dy=0 dh=0 dv=0
PairPos2: "'kern' Horizontal Kerning lookup 15-2" uni0643 dx=-100 dy=0 dh=-100 dv=0 dx=0 dy=0 dh=0 dv=0
PairPos2: "'kern' Horizontal Kerning lookup 15-2" uniFED7 dx=-100 dy=0 dh=-100 dv=0 dx=0 dy=0 dh=0 dv=0
PairPos2: "'kern' Horizontal Kerning lookup 15-2" uniFED3 dx=-100 dy=0 dh=-100 dv=0 dx=0 dy=0 dh=0 dv=0
PairPos2: "'kern' Horizontal Kerning lookup 15-2" uni0641 dx=-100 dy=0 dh=-100 dv=0 dx=0 dy=0 dh=0 dv=0
PairPos2: "'kern' Horizontal Kerning lookup 15-2" uniFECF dx=-100 dy=0 dh=-100 dv=0 dx=0 dy=0 dh=0 dv=0
PairPos2: "'kern' Horizontal Kerning lookup 15-2" uniFECB dx=-100 dy=0 dh=-100 dv=0 dx=0 dy=0 dh=0 dv=0
PairPos2: "'kern' Horizontal Kerning lookup 15-2" uniFEC7 dx=-100 dy=0 dh=-100 dv=0 dx=0 dy=0 dh=0 dv=0
PairPos2: "'kern' Horizontal Kerning lookup 15-2" uni0638 dx=-100 dy=0 dh=-100 dv=0 dx=0 dy=0 dh=0 dv=0
PairPos2: "'kern' Horizontal Kerning lookup 15-2" uniFEC3 dx=-100 dy=0 dh=-100 dv=0 dx=0 dy=0 dh=0 dv=0
PairPos2: "'kern' Horizontal Kerning lookup 15-2" uni0637 dx=-100 dy=0 dh=-100 dv=0 dx=0 dy=0 dh=0 dv=0
PairPos2: "'kern' Horizontal Kerning lookup 15-2" uniFEBF dx=-100 dy=0 dh=-100 dv=0 dx=0 dy=0 dh=0 dv=0
PairPos2: "'kern' Horizontal Kerning lookup 15-2" uni0636 dx=-100 dy=0 dh=-100 dv=0 dx=0 dy=0 dh=0 dv=0
PairPos2: "'kern' Horizontal Kerning lookup 15-2" uniFEBB dx=-100 dy=0 dh=-100 dv=0 dx=0 dy=0 dh=0 dv=0
PairPos2: "'kern' Horizontal Kerning lookup 15-2" uni0635 dx=-100 dy=0 dh=-100 dv=0 dx=0 dy=0 dh=0 dv=0
PairPos2: "'kern' Horizontal Kerning lookup 15-2" uniFEB7 dx=-100 dy=0 dh=-100 dv=0 dx=0 dy=0 dh=0 dv=0
PairPos2: "'kern' Horizontal Kerning lookup 15-2" uni0634 dx=-100 dy=0 dh=-100 dv=0 dx=0 dy=0 dh=0 dv=0
PairPos2: "'kern' Horizontal Kerning lookup 15-2" uniFEB3 dx=-100 dy=0 dh=-100 dv=0 dx=0 dy=0 dh=0 dv=0
PairPos2: "'kern' Horizontal Kerning lookup 15-2" uni0633 dx=-100 dy=0 dh=-100 dv=0 dx=0 dy=0 dh=0 dv=0
PairPos2: "'kern' Horizontal Kerning lookup 15-2" uniFEA7 dx=-100 dy=0 dh=-100 dv=0 dx=0 dy=0 dh=0 dv=0
PairPos2: "'kern' Horizontal Kerning lookup 15-2" uniFEA3 dx=-100 dy=0 dh=-100 dv=0 dx=0 dy=0 dh=0 dv=0
PairPos2: "'kern' Horizontal Kerning lookup 15-2" uniFE9F dx=-100 dy=0 dh=-100 dv=0 dx=0 dy=0 dh=0 dv=0
PairPos2: "'kern' Horizontal Kerning lookup 15-2" uniFE9B dx=-100 dy=0 dh=-100 dv=0 dx=0 dy=0 dh=0 dv=0
PairPos2: "'kern' Horizontal Kerning lookup 15-2" uni062B dx=-100 dy=0 dh=-100 dv=0 dx=0 dy=0 dh=0 dv=0
PairPos2: "'kern' Horizontal Kerning lookup 15-2" uniFE97 dx=-100 dy=0 dh=-100 dv=0 dx=0 dy=0 dh=0 dv=0
PairPos2: "'kern' Horizontal Kerning lookup 15-2" uni062A dx=-100 dy=0 dh=-100 dv=0 dx=0 dy=0 dh=0 dv=0
PairPos2: "'kern' Horizontal Kerning lookup 15-2" uni0629 dx=-100 dy=0 dh=-100 dv=0 dx=0 dy=0 dh=0 dv=0
PairPos2: "'kern' Horizontal Kerning lookup 15-2" uniFE91 dx=-47 dy=0 dh=-47 dv=0 dx=0 dy=0 dh=0 dv=0
PairPos2: "'kern' Horizontal Kerning lookup 15-2" uni0628 dx=-100 dy=0 dh=-100 dv=0 dx=0 dy=0 dh=0 dv=0
PairPos2: "'kern' Horizontal Kerning lookup 15-2" uni0627 dx=-100 dy=0 dh=-100 dv=0 dx=0 dy=0 dh=0 dv=0
PairPos2: "'kern' Horizontal Kerning lookup 15-2" uni0622 dx=-100 dy=0 dh=-100 dv=0 dx=0 dy=0 dh=0 dv=0
PairPos2: "'kern' Horizontal Kerning lookup 15-2" uni0621 dx=-100 dy=0 dh=-100 dv=0 dx=0 dy=0 dh=0 dv=0
PairPos2: "'kern' Horizontal Kerning lookup 15-2" uniFB94 dx=-142 dy=0 dh=-142 dv=0 dx=0 dy=0 dh=0 dv=0
PairPos2: "'kern' Horizontal Kerning lookup 15-2" uniFB92 dx=-142 dy=0 dh=-142 dv=0 dx=0 dy=0 dh=0 dv=0
PairPos2: "'kern' Horizontal Kerning lookup 15-2" afii57509 dx=-142 dy=0 dh=-142 dv=0 dx=0 dy=0 dh=0 dv=0
PairPos2: "'kern' Horizontal Kerning lookup 15-2" uniFB7C dx=-100 dy=0 dh=-100 dv=0 dx=0 dy=0 dh=0 dv=0
PairPos2: "'kern' Horizontal Kerning lookup 15-2" afii57506 dx=-100 dy=0 dh=-100 dv=0 dx=0 dy=0 dh=0 dv=0
PairPos2: "'kern' Horizontal Kerning lookup 15-2" afii57440 dx=-100 dy=0 dh=-100 dv=0 dx=0 dy=0 dh=0 dv=0
EndChar

StartChar: uniFEB2
Encoding: 65202 65202 189
Width: 2646
VWidth: 2553
GlyphClass: 2
Flags: W
AnchorPoint: "Anchor-10" 684.089 1029.03 basechar 0
AnchorPoint: "Anchor-7" 261.557 -625.885 basechar 0
LayerCount: 2
Fore
SplineSet
251.917969391 44.4424629723 m 2,0,1
 251.917969935 -281.490252401 251.917969935 -281.490252401 703.396484375 -281.490234375 c 2,2,-1
 728.87390269 -281.490234375 l 1,3,-1
 756.752589037 -280.897628561 l 2,4,5
 956 -277 956 -277 1058.78692824 -193.928020483 c 0,6,7
 1161.96781346 -111.025860736 1161.96781346 -111.025860736 1161.88573981 48.5668740345 c 2,8,-1
 1161.58835262 626.838153805 l 1,9,-1
 1315.93059706 626.974378204 l 1,10,-1
 1316.48345442 395.087919569 l 2,11,12
 1317 248 1317 248 1414.52444075 196.126123779 c 0,13,14
 1463 170 1463 170 1538.99798725 170.646824495 c 0,15,16
 1615 171 1615 171 1656.28987961 229.555857779 c 0,17,18
 1697.55577855 285.398858158 1697.55577855 285.398858158 1697.69041654 396.765348054 c 2,19,-1
 1697.97727526 634.041992188 l 1,20,-1
 1845.99048418 634.041992188 l 1,21,-1
 1846.58890351 390.615206298 l 2,22,23
 1847 283 1847 283 1896.48324139 225.949310963 c 128,-1,24
 1946 169 1946 169 2034.98922505 170.557240835 c 0,25,26
 2206.39550781 173.005649529 2206.39550781 173.005649529 2206.39550781 401.665039062 c 2,27,-1
 2206.39550781 634.979492188 l 1,28,-1
 2353.22325678 634.979492188 l 1,29,-1
 2354.15248811 399.576347716 l 2,30,31
 2355 287 2355 287 2419.01870749 228.422285937 c 128,-1,32
 2483 170 2483 170 2605.48144531 170 c 2,33,-1
 2651.71191406 170 l 2,34,35
 2682 170 2682 170 2695.24864607 154.028202257 c 0,36,37
 2708.71157098 138.336184939 2708.71157098 138.336184939 2708.71191406 99 c 2,38,-1
 2708.71201051 87.9410736462 l 2,39,40
 2709 49 2709 49 2695.39487552 33.7331465898 c 0,41,42
 2682 18 2682 18 2651.71191406 18 c 2,43,-1
 2581.93945312 18 l 2,44,45
 2376 18 2376 18 2286.64941406 209.26953125 c 5,46,47
 2222 18 2222 18 2036.41686817 17.9335928363 c 0,48,49
 1838 18 1838 18 1769.671875 221.079101562 c 5,50,51
 1706 12 1706 12 1547.46942128 13.0067813668 c 0,52,53
 1370 14 1370 14 1303.02866267 165.22901486 c 1,54,-1
 1302.29437106 44.0310284389 l 2,55,56
 1301 -188 1301 -188 1163.53851757 -306.874686342 c 0,57,58
 1026 -426 1026 -426 728.140223562 -434.787109375 c 1,59,-1
 701.218329669 -434.78711047 l 2,60,61
 302 -435 302 -435 173.541571794 -222.846247966 c 0,62,63
 109.160164306 -117.262664508 109.160164306 -117.262664508 109.16015625 43.2763671875 c 2,64,-1
 109.160142556 316.185289256 l 1,65,-1
 109.022212904 428.003344205 l 1,66,-1
 251.91796875 428.029862422 l 1,67,-1
 251.917969391 44.4424629723 l 2,0,1
EndSplineSet
EndChar

StartChar: uniFEB3
Encoding: 65203 65203 190
Width: 1574
VWidth: 2553
GlyphClass: 2
Flags: W
AnchorPoint: "Anchor-10" 744.679 1113.53 basechar 0
AnchorPoint: "Anchor-7" 904.307 -327.179 basechar 0
LayerCount: 2
Fore
SplineSet
-5.0234375 18 m 2,0,1
 -62.0234375 18 -62.0234375 18 -62.0234375 88 c 2,2,-1
 -62.0234375 99 l 2,3,4
 -61.9807692308 170 -61.9807692308 170 -5.0234375 170 c 6,5,-1
 29.7529296875 170 l 2,6,7
 151 170 151 170 215.227473098 229.061986173 c 0,8,9
 279.175648097 288.162332441 279.175648097 288.162332441 279.376924948 401.916392972 c 2,10,-1
 279.778725786 628.999023438 l 1,11,-1
 427.807551829 628.999023438 l 1,12,-1
 428.347705193 397.37111028 l 2,13,14
 429 211 429 211 563.663750216 177.025832471 c 0,15,16
 591 170 591 170 622.410743936 170.000317046 c 0,17,18
 714 169 714 169 761.498192869 227.567936258 c 0,19,20
 808.520585304 283.43045618 808.520585304 283.43045618 808.215752845 394.766079966 c 2,21,-1
 807.576694494 628.172851562 l 1,22,-1
 953.782900406 628.172851562 l 1,23,-1
 954.377011021 393.930909033 l 2,24,25
 955 249 955 249 1045.64058499 196.405499463 c 0,26,27
 1091 170 1091 170 1164.71717419 169.900071039 c 0,28,29
 1239.58465787 168.980536986 1239.58465787 168.980536986 1279.86180832 227.36618695 c 0,30,31
 1321.484375 288.713923048 1321.484375 288.713923048 1321.484375 392.9921875 c 2,32,-1
 1321.484375 672.362304688 l 1,33,-1
 1464.2421875 672.362304688 l 1,34,-1
 1464.2421875 385.029296875 l 2,35,36
 1464 136 1464 136 1331.74150853 57.4245204573 c 0,37,38
 1266 18 1266 18 1164.95898438 18 c 0,39,40
 955 18 955 18 875.815429688 229.015625 c 1,41,42
 811 18 811 18 631.898222045 18 c 0,43,44
 440 18 440 18 368.091796875 204.665039062 c 1,45,46
 280 18 280 18 28.82421875 18 c 2,47,-1
 -5.0234375 18 l 2,0,1
EndSplineSet
EndChar

StartChar: uniFEB4
Encoding: 65204 65204 191
Width: 1771
VWidth: 2548
GlyphClass: 2
Flags: W
AnchorPoint: "Anchor-10" 850.65 1107.67 basechar 0
AnchorPoint: "Anchor-7" 862.824 -287.272 basechar 0
LayerCount: 2
Fore
SplineSet
1776.8046875 18 m 2,0,-1
 1716.80078125 18 l 2,1,2
 1474 18 1474 18 1411.22363281 224.145507812 c 1,3,4
 1337 17 1337 17 1169.78022416 17.5104237454 c 0,5,6
 984 18 984 18 898.02734375 218.143554688 c 1,7,8
 830 18 830 18 649.475481928 18.0126952801 c 0,9,10
 450 18 450 18 381.56640625 216.329101562 c 1,11,12
 305 18 305 18 59.7490234375 18 c 2,13,-1
 -5.0234375 18 l 2,14,15
 -62.0234335265 18.0000000064 -62.0234335265 18.0000000064 -62.0234375 88 c 2,16,-1
 -62.0234381241 98.9952598316 l 2,17,18
 -61.9807710558 170 -61.9807710558 170 -5.0234375 170 c 6,19,-1
 58.099609375 170 l 2,20,21
 180 170 180 170 243.699619112 222.207704713 c 0,22,23
 307.818961032 273.854177789 307.818961032 273.854177789 306.878144959 376.14503946 c 2,24,-1
 304.546198409 629.6875 l 1,25,-1
 456.461403116 629.6875 l 1,26,-1
 456.108401186 384.191586365 l 2,27,28
 456 245 456 245 545.24618367 194.764033858 c 0,29,30
 590 170 590 170 663.947598894 169.978752765 c 128,-1,31
 738 170 738 170 781.261606608 225.680500009 c 0,32,33
 824.256958273 281.332600316 824.256958273 281.332600316 824.14940433 384.759929104 c 2,34,-1
 823.894704471 629.6875 l 1,35,-1
 973.086200234 629.6875 l 1,36,-1
 974.345800726 386.626270898 l 2,37,38
 975 281 975 281 1024.875567 225.807437688 c 0,39,40
 1075 170 1075 170 1160.44420557 170.05065278 c 128,-1,41
 1246 170 1246 170 1283.33267519 226.08317554 c 0,42,43
 1320.83533644 281.75555834 1320.83533644 281.75555834 1321.10638345 385.144217036 c 2,44,-1
 1321.75560686 632.78515625 l 1,45,-1
 1469.03668358 632.78515625 l 1,46,-1
 1469.01757819 387.547484069 l 2,47,48
 1469 280 1469 280 1533.34242262 225.238403222 c 0,49,50
 1598 170 1598 170 1719.37304688 170 c 2,51,-1
 1776.8046875 170 l 2,52,53
 1833.80440238 170 1833.80440238 170 1833.8046875 99 c 2,54,-1
 1833.80473183 87.9600498143 l 2,55,56
 1834.15537232 18 1834.15537232 18 1776.8046875 18 c 2,0,-1
EndSplineSet
EndChar

StartChar: uniFEBA
Encoding: 65210 65210 197
Width: 2592
VWidth: 2553
GlyphClass: 2
Flags: W
AnchorPoint: "Anchor-10" 652.398 1146.4 basechar 0
AnchorPoint: "Anchor-7" 270.946 -692.786 basechar 0
LayerCount: 2
Fore
SplineSet
2597.67382812 18 m 2,0,-1
 2570.16699219 18 l 2,1,2
 2416.558084 18 2416.558084 18 2312.46865442 124.123693162 c 2,3,-1
 2300.35774375 136.471292467 l 1,4,-1
 2287.53676197 124.862683931 l 2,5,6
 2228.69452861 71.5846694832 2228.69452861 71.5846694832 2144.89370736 44.671740734 c 128,-1,7
 2061.09288612 17.7588119849 2061.09288612 17.7588119849 1951.43047258 17.7040993222 c 2,8,-1
 1581.44967476 17.5194636029 l 2,9,10
 1401.8893015 17.0271801943 1401.8893015 17.0271801943 1335.46079577 121.917816055 c 2,11,-1
 1302.25390625 174.351507261 l 1,12,-1
 1302.25390879 43.8747983935 l 2,13,14
 1302.13079773 -187.826848043 1302.13079773 -187.826848043 1162.54224244 -306.651534218 c 128,-1,15
 1022.95368715 -425.476220393 1022.95368715 -425.476220393 736.882137713 -434.213467676 c 2,16,-1
 718.1001845 -434.787109375 l 1,17,-1
 691.181115277 -434.787110507 l 2,18,19
 397.003552765 -434.891457308 397.003552765 -434.891457308 253.032789832 -301.471434364 c 128,-1,20
 109.062026899 -168.051411421 109.062026899 -168.051411421 109.121092626 103.282727086 c 2,21,-1
 109.006359841 428.003342011 l 1,22,-1
 251.877929688 428.029861675 l 1,23,-1
 251.877930681 104.44323897 l 2,24,25
 251.941445199 -86.7446058043 251.941445199 -86.7446058043 364.024639584 -184.11742009 c 128,-1,26
 476.10783397 -281.490234375 476.10783397 -281.490234375 693.356445312 -281.490234375 c 2,27,-1
 718.833735624 -281.490234375 l 1,28,-1
 746.767100066 -280.896858793 l 2,29,30
 950.495528099 -276.336248787 950.495528099 -276.336248787 1056.21717367 -193.51414318 c 128,-1,31
 1161.93881924 -110.692037573 1161.93881924 -110.692037573 1161.84570004 48.5681417602 c 2,32,-1
 1161.50759258 626.82756555 l 1,33,-1
 1306.95741277 626.901932001 l 1,34,-1
 1307.03906278 466.606674268 l 2,35,36
 1306.99755857 230.088731162 1306.99755857 230.088731162 1433.63746396 197.100790218 c 2,37,-1
 1448.83174509 193.14289048 l 1,38,-1
 1454.81612499 207.65903137 l 2,39,40
 1680.05658132 754.018428588 1680.05658132 754.018428588 2007.72048487 754.519589213 c 0,41,42
 2188.07981862 754.977304435 2188.07981862 754.977304435 2290.80585223 619.585484588 c 0,43,44
 2372.02794027 511.934261523 2372.02794027 511.934261523 2372.73758598 358.887651017 c 0,45,46
 2372.86399435 336.277000494 2372.86399435 336.277000494 2370.86828266 314.832099526 c 128,-1,47
 2368.87257097 293.387198558 2368.87257097 293.387198558 2364.76812928 273.086662654 c 2,48,-1
 2362.9106034 263.899354439 l 1,49,-1
 2369.37275422 257.109830052 l 2,50,51
 2410.61762407 213.775488695 2410.61762407 213.775488695 2463.21061183 191.887744348 c 128,-1,52
 2515.80359959 170 2515.80359959 170 2578.29296875 170 c 2,53,-1
 2597.67382812 170 l 2,54,55
 2627.74729213 170 2627.74729213 170 2641.21056013 154.028202257 c 128,-1,56
 2654.67382812 138.056404515 2654.67382812 138.056404515 2654.67382812 99 c 2,57,-1
 2654.67395176 87.9332834828 l 2,58,59
 2654.81653277 49.4654403189 2654.81653277 49.4654403189 2641.37074916 33.7327201594 c 128,-1,60
 2627.92496554 18 2627.92496554 18 2597.67382812 18 c 2,0,-1
2232.31471128 427.211052204 m 0,61,62
 2211.10427847 517.243750941 2211.10427847 517.243750941 2151.32094041 563.512175541 c 128,-1,63
 2091.53760235 609.78060014 2091.53760235 609.78060014 1997.33784798 609.533154243 c 0,64,65
 1785.46311921 610.026936003 1785.46311921 610.026936003 1596.81633417 198.548383285 c 2,66,-1
 1585.12489237 173.046875 l 1,67,-1
 1971.43008799 173.046875828 l 2,68,69
 2132.84471744 172.997923364 2132.84471744 172.997923364 2189.18032834 223.107945595 c 0,70,71
 2238.98069933 267.971225196 2238.98069933 267.971225196 2239.17488807 348.532428736 c 0,72,73
 2239.1143646 364.279351645 2239.1143646 364.279351645 2238.35985279 378.086421876 c 128,-1,74
 2237.60534099 391.893492107 2237.60534099 391.893492107 2236.09680053 404.2281389 c 128,-1,75
 2234.58826008 416.562785693 2234.58826008 416.562785693 2232.31471128 427.211052204 c 0,61,62
EndSplineSet
EndChar

StartChar: uniFEBB
Encoding: 65211 65211 198
Width: 1628
VWidth: 2553
GlyphClass: 2
Flags: W
AnchorPoint: "Anchor-10" 630.109 1250.04 basechar 0
AnchorPoint: "Anchor-7" 630.109 -266.146 basechar 0
LayerCount: 2
Fore
SplineSet
-5.0234375 18 m 2,0,1
 -35.1574732163 18 -35.1574732163 18 -48.5853285969 33.7507202668 c 128,-1,2
 -62.0131839774 49.5014405337 -62.0131839774 49.5014405337 -62.0234375 88 c 2,3,-1
 -62.0234375 99 l 2,4,5
 -62.0234375 138.054748435 -62.0234375 138.054748435 -48.5248498978 154.027374217 c 128,-1,6
 -35.0262622955 170 -35.0262622955 170 -5.0234375 170 c 2,7,-1
 51.2724609375 170 l 2,8,9
 165.790336526 170 165.790336526 170 225.842289721 228.11592439 c 128,-1,10
 285.894242916 286.231848779 285.894242916 286.231848779 285.774414062 397.534179688 c 2,11,-1
 285.774414062 631.1796875 l 1,12,-1
 426.825048746 631.1796875 l 1,13,-1
 427.829262793 393.921861017 l 2,14,15
 428.026363029 347.354524473 428.026363029 347.354524473 437.474368586 311.006334611 c 128,-1,16
 446.922374143 274.65814475 446.922374143 274.65814475 465.423849383 249.187920213 c 128,-1,17
 483.925324624 223.717695677 483.925324624 223.717695677 512.355313625 210.358847839 c 128,-1,18
 540.785302625 197 540.785302625 197 578 197 c 2,19,-1
 590.029827877 197 l 1,20,-1
 594.631213454 208.115035291 l 2,21,22
 821.029827877 755 821.029827877 755 1147.5 755 c 0,23,24
 1208.5894281 755 1208.5894281 755 1260.18810043 740.13554682 c 128,-1,25
 1311.78677276 725.27109364 1311.78677276 725.27109364 1354.2074899 695.587052402 c 128,-1,26
 1396.62820704 665.903011165 1396.62820704 665.903011165 1430.61956117 621.081194093 c 0,27,28
 1512.02121661 512.953721699 1512.02121661 512.953721699 1512.56255595 359.423870353 c 0,29,30
 1512.97856275 192.575429306 1512.97856275 192.575429306 1404.64933275 104.970052002 c 0,31,32
 1297.61607373 18.0055290487 1297.61607373 18.0055290487 1091.25592722 18.1845681997 c 2,33,-1
 710.31549753 17.9999978872 l 2,34,35
 467.604278734 17.8824013235 467.604278734 17.8824013235 383.886847939 140.925372028 c 2,36,-1
 368.005607216 164.266688387 l 1,37,-1
 353.545297023 140.019414616 l 2,38,39
 280.776762233 18 280.776762233 18 58.154296875 18 c 2,40,-1
 -5.0234375 18 l 2,0,1
1372.135776 427.708799728 m 0,41,42
 1351.01390534 517.505155014 1351.01390534 517.505155014 1291.24858994 563.75578701 c 128,-1,43
 1231.48327453 610.006419007 1231.48327453 610.006419007 1137.11986403 610.013671833 c 0,44,45
 1028.93084442 610.006280574 1028.93084442 610.006280574 929.579756378 506.365089147 c 128,-1,46
 830.228668339 402.723897719 830.228668339 402.723897719 736.647647812 199.042183063 c 2,47,-1
 724.924922944 173.52734375 l 1,48,-1
 1111.31608116 173.527428817 l 2,49,50
 1271.73090419 174.020608437 1271.73090419 174.020608437 1328.8595762 223.458882289 c 0,51,52
 1379 267.901530661 1379 267.901530661 1379 349 c 0,53,54
 1379 356.742559129 1379 356.742559129 1378.81644801 364.041803321 c 128,-1,55
 1378.63289603 371.341047512 1378.63289603 371.341047512 1378.26130916 378.295626335 c 128,-1,56
 1377.88972229 385.250205157 1377.88972229 385.250205157 1377.3236685 391.796771195 c 128,-1,57
 1376.75761472 398.343337232 1376.75761472 398.343337232 1375.9969462 404.516922432 c 128,-1,58
 1375.23627768 410.690507633 1375.23627768 410.690507633 1374.26993832 416.495623375 c 128,-1,59
 1373.30359895 422.300739117 1373.30359895 422.300739117 1372.135776 427.708799728 c 0,41,42
EndSplineSet
EndChar

StartChar: uniFEBC
Encoding: 65212 65212 199
Width: 1734
VWidth: 2553
GlyphClass: 2
Flags: W
AnchorPoint: "Anchor-10" 689.854 1252.04 basechar 0
AnchorPoint: "Anchor-7" 719.196 -303.704 basechar 0
LayerCount: 2
Fore
SplineSet
1738.9765625 18 m 2,0,-1
 1709.9921875 18 l 2,1,2
 1555.62098478 18 1555.62098478 18 1452.36841637 124.527685415 c 2,3,-1
 1439.89250295 137.399328223 l 1,4,-1
 1426.96930593 124.976825137 l 2,5,6
 1405.0246652 103.88240347 1405.0246652 103.88240347 1378.64639091 86.950259231 c 128,-1,7
 1352.26811661 70.018114992 1352.26811661 70.018114992 1321.05887101 57.1273739657 c 128,-1,8
 1289.84962542 44.2366329394 1289.84962542 44.2366329394 1254.08902771 35.6103273913 c 128,-1,9
 1218.32843001 26.9840218433 1218.32843001 26.9840218433 1177.52727831 22.5953394488 c 128,-1,10
 1136.72612661 18.2066570544 1136.72612661 18.2066570544 1091.25590427 18.1845681886 c 2,11,-1
 711.32421875 18 l 2,12,13
 465.645867581 18 465.645867581 18 383.992607744 140.768159686 c 2,14,-1
 368.17490101 164.550562863 l 1,15,-1
 353.545297023 140.019414616 l 2,16,17
 280.516188088 17.5630652077 280.516188088 17.5630652077 58.181841901 17.9032992367 c 2,18,-1
 -5.0234375 18 l 2,19,20
 -25.1924327605 18 -25.1924327605 18 -37.4171980858 24.5539171622 c 128,-1,21
 -49.6419634111 31.1078343245 -49.6419634111 31.1078343245 -55.8327004556 46.5251386568 c 128,-1,22
 -62.0234375 61.9424429891 -62.0234375 61.9424429891 -62.0234375 88 c 2,23,-1
 -62.0234381241 98.9952598316 l 2,24,25
 -62.0131527718 138.052171324 -62.0131527718 138.052171324 -48.5134710142 154.026085662 c 128,-1,26
 -35.0137892566 170 -35.0137892566 170 -5.0234375 170 c 2,27,-1
 51.2707177934 170.000000084 l 2,28,29
 165.683482148 169.988920199 165.683482148 169.988920199 225.728948105 228.099282352 c 128,-1,30
 285.774414062 286.209644504 285.774414062 286.209644504 285.774414062 397.534179688 c 2,31,-1
 285.774414062 630.1796875 l 1,32,-1
 426.825347207 630.1796875 l 1,33,-1
 427.829486659 393.880304132 l 2,34,35
 428.446117911 299.614408741 428.446117911 299.614408741 466.309244633 248.307204371 c 128,-1,36
 504.172371356 197 504.172371356 197 578 197 c 2,37,-1
 590.029827877 197 l 1,38,-1
 594.631213454 208.115035291 l 2,39,40
 821.029827877 755 821.029827877 755 1147.5 755 c 0,41,42
 1177.88114101 755 1177.88114101 755 1205.90224078 751.271045991 c 128,-1,43
 1233.92334056 747.542091981 1233.92334056 747.542091981 1259.67790969 740.057302156 c 128,-1,44
 1285.43247882 732.57251233 1285.43247882 732.57251233 1308.92288771 721.359354177 c 128,-1,45
 1332.4132966 710.146196024 1332.4132966 710.146196024 1353.76083923 695.135468712 c 128,-1,46
 1375.10838185 680.124741399 1375.10838185 680.124741399 1394.28579299 661.389052709 c 128,-1,47
 1413.46320414 642.653364019 1413.46320414 642.653364019 1430.61956117 620.081194093 c 0,48,49
 1512.02134066 511.953556921 1512.02134066 511.953556921 1512.56279431 359.353869725 c 0,50,51
 1512.61566283 353.617635236 1512.61566283 353.617635236 1512.53040003 347.97792804 c 128,-1,52
 1512.44513723 342.338220844 1512.44513723 342.338220844 1512.22181509 336.800343019 c 128,-1,53
 1511.99849294 331.262465195 1511.99849294 331.262465195 1511.63820523 325.819962618 c 128,-1,54
 1511.27791752 320.377460041 1511.27791752 320.377460041 1510.77979839 315.02808093 c 128,-1,55
 1510.28167925 309.67870182 1510.28167925 309.67870182 1509.64782283 304.4240495 c 128,-1,56
 1509.01396641 299.169397181 1509.01396641 299.169397181 1508.24250648 293.999162423 c 128,-1,57
 1507.47104655 288.828927664 1507.47104655 288.828927664 1506.56507762 283.752771241 c 128,-1,58
 1505.65910868 278.676614819 1505.65910868 278.676614819 1504.61582668 273.676673642 c 2,59,-1
 1502.69095981 264.451726636 l 1,60,-1
 1509.17550051 257.613927895 l 2,61,62
 1592.26307052 170 1592.26307052 170 1716.11816406 170 c 2,63,-1
 1738.9765625 170 l 2,64,65
 1769.05002651 170 1769.05002651 170 1782.51329451 154.028202257 c 128,-1,66
 1795.9765625 138.056404515 1795.9765625 138.056404515 1795.9765625 99 c 2,67,-1
 1795.97656314 87.9952059661 l 2,68,69
 1795.98681699 49.4954014795 1795.98681699 49.4954014795 1782.53120741 33.7477007397 c 128,-1,70
 1769.07559783 18 1769.07559783 18 1738.9765625 18 c 2,0,-1
1372.135776 427.708799728 m 0,71,72
 1351.01390534 517.505155014 1351.01390534 517.505155014 1291.24858994 563.75578701 c 128,-1,73
 1231.48327453 610.006419007 1231.48327453 610.006419007 1137.11986403 610.013671833 c 0,74,75
 1028.93084442 610.006280574 1028.93084442 610.006280574 929.579756378 506.365089147 c 128,-1,76
 830.228668339 402.723897719 830.228668339 402.723897719 736.647647812 199.042183063 c 2,77,-1
 724.924922944 173.52734375 l 1,78,-1
 1111.31608116 173.527428817 l 2,79,80
 1271.73090419 174.020608437 1271.73090419 174.020608437 1328.8595762 223.458882289 c 0,81,82
 1379 267.901530661 1379 267.901530661 1379 349 c 0,83,84
 1379 356.742559129 1379 356.742559129 1378.81644801 364.041803321 c 128,-1,85
 1378.63289603 371.341047512 1378.63289603 371.341047512 1378.26130916 378.295626335 c 128,-1,86
 1377.88972229 385.250205157 1377.88972229 385.250205157 1377.3236685 391.796771195 c 128,-1,87
 1376.75761472 398.343337232 1376.75761472 398.343337232 1375.9969462 404.516922432 c 128,-1,88
 1375.23627768 410.690507633 1375.23627768 410.690507633 1374.26993832 416.495623375 c 128,-1,89
 1373.30359895 422.300739117 1373.30359895 422.300739117 1372.135776 427.708799728 c 0,71,72
EndSplineSet
EndChar

StartChar: uniFEC2
Encoding: 65218 65218 205
Width: 1387
VWidth: 2553
GlyphClass: 2
Flags: W
AnchorPoint: "Anchor-7" 525.078 -284.734 basechar 0
AnchorPoint: "Anchor-10" 403.545 1503.1 basechar 0
LayerCount: 2
Fore
SplineSet
1391.9765625 18 m 2,0,-1
 1364.49316406 18 l 2,1,2
 1210.6193637 18 1210.6193637 18 1106.86747924 125.010128253 c 2,3,-1
 1094.84070808 137.414590407 l 1,4,-1
 1081.9542628 125.90574886 l 2,5,6
 1052.01106497 99.1635781799 1052.01106497 99.1635781799 1016.19741704 79.0670011145 c 128,-1,7
 980.383769124 58.9704240491 980.383769124 58.9704240491 938.368316173 45.4061371141 c 128,-1,8
 896.352863222 31.841850179 896.352863222 31.841850179 847.951742931 25.0211305173 c 128,-1,9
 799.55062264 18.2004108556 799.55062264 18.2004108556 744.935208755 18.1845695553 c 2,10,-1
 109.770507812 18.0003388774 l 1,11,-1
 109.770507812 171.170446025 l 1,12,-1
 225.80979957 170.978821678 l 1,13,-1
 230.009749322 183.11200985 l 2,14,15
 247.56214664 233.818935434 247.56214664 233.818935434 331.829492641 393.727523214 c 2,16,-1
 333.905273438 397.666595601 l 1,17,-1
 333.905273438 1350.64355469 l 1,18,-1
 473 1350.64355469 l 1,19,-1
 473 579.778938183 l 1,20,-1
 503.649354837 610.05336773 l 2,21,22
 553.065489933 658.865008575 553.065489933 658.865008575 602.708741886 691.167651972 c 128,-1,23
 652.351993839 723.47029537 652.351993839 723.47029537 701.475862094 739.235147685 c 128,-1,24
 750.599730349 755 750.599730349 755 800.17578125 755 c 0,25,26
 986.01846443 755 986.01846443 755 1085.26933654 623.115824851 c 0,27,28
 1166.97154503 514.043956282 1166.97154503 514.043956282 1166.2385784 359.572177079 c 0,29,30
 1166.00785642 319.418988078 1166.00785642 319.418988078 1158.94392151 273.199938349 c 2,31,-1
 1157.61206247 264.485636804 l 1,32,-1
 1163.67990623 258.090781684 l 2,33,34
 1184.42412026 236.228609804 1184.42412026 236.228609804 1207.83171151 219.711265676 c 128,-1,35
 1231.23930277 203.193921548 1231.23930277 203.193921548 1257.04981723 192.158398782 c 128,-1,36
 1282.8603317 181.122876016 1282.8603317 181.122876016 1311.06876701 175.561438008 c 128,-1,37
 1339.27720233 170 1339.27720233 170 1369.61914062 170 c 2,38,-1
 1391.9765625 170 l 2,39,40
 1422.05002651 170 1422.05002651 170 1435.51329451 154.028202257 c 128,-1,41
 1448.9765625 138.056404515 1448.9765625 138.056404515 1448.9765625 99 c 2,42,-1
 1448.97656314 87.9952059661 l 2,43,44
 1448.98681699 49.4954014795 1448.98681699 49.4954014795 1435.53120741 33.7477007397 c 128,-1,45
 1422.07559783 18 1422.07559783 18 1391.9765625 18 c 2,0,-1
1025.79378326 427.783791825 m 0,46,47
 1004.91045702 517.299348353 1004.91045702 517.299348353 946.937212791 563.652869853 c 128,-1,48
 888.963968564 610.006391353 888.963968564 610.006391353 797.795684974 610.013671836 c 0,49,50
 579.469254083 609.999237712 579.469254083 609.999237712 390.328454687 199.053111851 c 2,51,-1
 378.580043205 173.52734375 l 1,52,-1
 764.991745952 173.527428459 l 2,53,54
 818.089855362 173.690329841 818.089855362 173.690329841 858.671647639 178.689329882 c 128,-1,55
 899.253439917 183.688329923 899.253439917 183.688329923 930.845223118 194.822961478 c 128,-1,56
 962.437006319 205.957593033 962.437006319 205.957593033 982.566170524 223.486353456 c 0,57,58
 1033.03617952 267.89391227 1033.03617952 267.89391227 1032.67606924 348.97512887 c 0,59,60
 1033.01453033 395.951896471 1033.01453033 395.951896471 1025.79378326 427.783791825 c 0,46,47
EndSplineSet
EndChar

StartChar: uniFEC3
Encoding: 65219 65219 206
Width: 1146
VWidth: 2553
GlyphClass: 2
Flags: W
AnchorPoint: "Anchor-10" 250.277 1497.82 basechar 0
AnchorPoint: "Anchor-7" 348.078 -302.734 basechar 0
LayerCount: 2
Fore
SplineSet
-5.0234375 18 m 2,0,1
 -25.1924327605 18 -25.1924327605 18 -37.4171980858 24.5539171622 c 128,-1,2
 -49.6419634111 31.1078343245 -49.6419634111 31.1078343245 -55.8327004556 46.5251386568 c 128,-1,3
 -62.0234375 61.9424429891 -62.0234375 61.9424429891 -62.0234375 88 c 2,4,-1
 -62.0234381241 98.9952598316 l 2,5,6
 -62.0131527718 138.052171324 -62.0131527718 138.052171324 -48.5134710142 154.026085662 c 128,-1,7
 -35.0137892566 170 -35.0137892566 170 -5.0234375 170 c 2,8,-1
 90.4687657712 170 l 1,9,-1
 94.7353725314 181.945492492 l 2,10,11
 112.540895391 231.796756409 112.540895391 231.796756409 196.668820658 394.033214213 c 2,12,-1
 198.689453125 397.929901941 l 1,13,-1
 198.689453125 1350.84375 l 1,14,-1
 337.784179688 1350.84375 l 1,15,-1
 337.784179688 580.062344627 l 1,16,-1
 368.415895848 610.236164101 l 2,17,18
 515.386224581 755.00951418 515.386224581 755.00951418 663.941579419 755.200204698 c 0,19,20
 851.008159889 755.009173046 851.008159889 755.009173046 950.08828342 623.269761366 c 0,21,22
 1031.00083379 515.972704013 1031.00083379 515.972704013 1031.02246842 359.613616132 c 0,23,24
 1031.95232108 204.880002253 1031.95232108 204.880002253 922.361081167 104.527502178 c 0,25,26
 827.048242646 18 827.048242646 18 609.724609375 18 c 2,27,-1
 -5.0234375 18 l 2,0,1
890.544481824 428.126490956 m 0,28,29
 882.028556909 463.872105001 882.028556909 463.872105001 867.231941713 492.897157709 c 128,-1,30
 852.435326517 521.922210418 852.435326517 521.922210418 831.636542023 543.784781111 c 128,-1,31
 810.83775753 565.647351804 810.83775753 565.647351804 784.263242277 580.436586558 c 128,-1,32
 757.688727024 595.225821311 757.688727024 595.225821311 725.403362566 602.697203374 c 128,-1,33
 693.117998108 610.168585437 693.117998108 610.168585437 655.561862411 610.213856956 c 0,34,35
 443.40996953 609.987652498 443.40996953 609.987652498 255.080799537 196.183750858 c 2,36,-1
 243.495246043 170.727539062 l 1,37,-1
 629.752491507 170.727567132 l 2,38,39
 790.796364551 171.011974473 790.796364551 171.011974473 847.396380506 220.726970933 c 0,40,41
 898.057900159 265.996769295 898.057900159 265.996769295 897.459193221 349.366439815 c 0,42,43
 896.98041594 401.203483119 896.98041594 401.203483119 890.544481824 428.126490956 c 0,28,29
EndSplineSet
EndChar

StartChar: uniFEC4
Encoding: 65220 65220 207
Width: 1254
VWidth: 2553
GlyphClass: 2
Flags: W
AnchorPoint: "Anchor-10" 260.783 1498.53 basechar 0
AnchorPoint: "Anchor-7" 490.837 -294.314 basechar 0
LayerCount: 2
Fore
SplineSet
1258.9765625 18 m 2,0,-1
 1232.27734375 18 l 2,1,2
 1078.61830935 18 1078.61830935 18 974.65041403 125.211607427 c 2,3,-1
 962.703086483 137.531681684 l 1,4,-1
 949.827633502 126.185070924 l 2,5,6
 929.600075673 108.359350489 929.600075673 108.359350489 906.865883969 93.4897515081 c 128,-1,7
 884.131692265 78.6201525272 884.131692265 78.6201525272 858.738638777 66.6272936799 c 128,-1,8
 833.345585289 54.6344348325 833.345585289 54.6344348325 805.307776315 45.6253274933 c 128,-1,9
 777.26996734 36.6162201542 777.26996734 36.6162201542 746.569005988 30.5599111424 c 128,-1,10
 715.868044636 24.5036021307 715.868044636 24.5036021307 682.375284117 21.4554461387 c 128,-1,11
 648.882523598 18.4072901468 648.882523598 18.4072901468 612.713398041 18.3847621335 c 2,12,-1
 -5.0234375 18 l 2,13,14
 -25.1924327605 18 -25.1924327605 18 -37.4171980858 24.5539171622 c 128,-1,15
 -49.6419634111 31.1078343245 -49.6419634111 31.1078343245 -55.8327004556 46.5251386568 c 128,-1,16
 -62.0234375 61.9424429891 -62.0234375 61.9424429891 -62.0234375 88 c 2,17,-1
 -62.0234381241 98.9952598316 l 2,18,19
 -62.0131527718 138.052171324 -62.0131527718 138.052171324 -48.5134710142 154.026085662 c 128,-1,20
 -35.0137892566 170 -35.0137892566 170 -5.0234375 170 c 2,21,-1
 93.4687657712 170 l 1,22,-1
 97.7353725314 181.945492492 l 2,23,24
 115.540895391 231.796756409 115.540895391 231.796756409 199.668820658 394.033214213 c 2,25,-1
 201.689453125 397.929901941 l 1,26,-1
 201.689453125 1350.84375 l 1,27,-1
 340.784179688 1350.84375 l 1,28,-1
 340.784179688 580.062344627 l 1,29,-1
 371.415895848 610.236164101 l 2,30,31
 386.304880133 624.902581144 386.304880133 624.902581144 401.206796376 638.07924754 c 128,-1,32
 416.108712619 651.255913935 416.108712619 651.255913935 430.964320593 662.893019466 c 128,-1,33
 445.819928566 674.530124996 445.819928566 674.530124996 460.676390145 684.69533866 c 128,-1,34
 475.532851724 694.860552325 475.532851724 694.860552325 490.363820115 703.51894161 c 128,-1,35
 505.194788507 712.177330895 505.194788507 712.177330895 520.012339255 719.380695249 c 128,-1,36
 534.829890004 726.584059604 534.829890004 726.584059604 549.642762646 732.313336065 c 128,-1,37
 564.455635289 738.042612526 564.455635289 738.042612526 579.240819041 742.333730991 c 128,-1,38
 594.026002792 746.624849456 594.026002792 746.624849456 608.82732352 749.474616514 c 128,-1,39
 623.628644248 752.324383572 623.628644248 752.324383572 638.388004836 753.752859569 c 128,-1,40
 653.147365424 755.181335565 653.147365424 755.181335565 667.941485174 755.200204794 c 0,41,42
 854.008186088 755.009220002 854.008186088 755.009220002 953.103301691 623.249874488 c 0,43,44
 1034.96363722 515.008031176 1034.96363722 515.008031176 1034.02246356 359.678647906 c 0,45,46
 1034.00076197 319.418440366 1034.00076197 319.418440366 1026.74215877 273.490571716 c 2,47,-1
 1025.35685208 264.725223593 l 1,48,-1
 1031.46612513 258.288828243 l 2,49,50
 1059.19261637 229.077716268 1059.19261637 229.077716268 1091.53118602 209.423629981 c 128,-1,51
 1123.86975567 189.769543693 1123.86975567 189.769543693 1160.43787919 179.884771847 c 128,-1,52
 1197.0060027 170 1197.0060027 170 1237.40332031 170 c 2,53,-1
 1258.9765625 170 l 2,54,55
 1289.05002651 170 1289.05002651 170 1302.51329451 154.028202257 c 128,-1,56
 1315.9765625 138.056404515 1315.9765625 138.056404515 1315.9765625 99 c 2,57,-1
 1315.97656314 87.9952059661 l 2,58,59
 1315.98681699 49.4954014795 1315.98681699 49.4954014795 1302.53120741 33.7477007397 c 128,-1,60
 1289.07559783 18 1289.07559783 18 1258.9765625 18 c 2,0,-1
893.568857144 428.022991484 m 0,61,62
 872.808563506 517.396697006 872.808563506 517.396697006 814.832824074 563.748326456 c 128,-1,63
 756.857084643 610.099955907 756.857084643 610.099955907 665.562509608 610.213857635 c 0,64,65
 446.446021785 609.988105688 446.446021785 609.988105688 258.101907035 199.229956002 c 2,66,-1
 246.408334683 173.727539062 l 1,67,-1
 632.752491507 173.727567132 l 2,68,69
 793.796364551 174.011974473 793.796364551 174.011974473 850.299621611 223.641982121 c 0,70,71
 899.949178962 266.745838046 899.949178962 266.745838046 900.459288458 349.035922131 c 0,72,73
 901.024911526 395.958088985 901.024911526 395.958088985 893.568857144 428.022991484 c 0,61,62
EndSplineSet
EndChar

StartChar: uniFECA
Encoding: 65226 65226 213
Width: 1277
VWidth: 2553
GlyphClass: 2
Flags: W
AnchorPoint: "Anchor-10" 554.282 1348.27 basechar 0
AnchorPoint: "Anchor-7" 222.935 -761.024 basechar 0
LayerCount: 2
Fore
SplineSet
1281.9765625 18 m 2,0,-1
 1128.21679688 18 l 2,1,2
 863.87603783 18 863.87603783 18 660.620298608 166.533040201 c 2,3,-1
 653.353210554 171.843604548 l 1,4,-1
 644.74467054 169.215734439 l 2,5,6
 516.152609252 129.96131573 516.152609252 129.96131573 428.901244054 76.9096516383 c 128,-1,7
 341.649878857 23.8579875466 341.649878857 23.8579875466 295.438760108 -45.1337381009 c 128,-1,8
 249.22764136 -114.125463748 249.22764136 -114.125463748 247.689567416 -197.50258538 c 0,9,10
 244.711942942 -393.947065418 244.711942942 -393.947065418 388.735321708 -492.178054136 c 128,-1,11
 532.758700473 -590.409042854 532.758700473 -590.409042854 814.490676719 -590.172845236 c 2,12,-1
 1099.33007812 -589.934042424 l 1,13,-1
 1099.33007812 -737.423513454 l 1,14,-1
 802.521739296 -736.582181301 l 2,15,16
 422.817669889 -735.031771109 422.817669889 -735.031771109 264.449574048 -585.782159433 c 0,17,18
 105.113101336 -432.922196917 105.113101336 -432.922196917 108.106892625 -215.952250623 c 0,19,20
 113.788044995 126.089476894 113.788044995 126.089476894 490.862438863 255.981427481 c 2,21,-1
 523.748031684 267.30962655 l 1,22,-1
 495.507937439 287.614487702 l 2,23,24
 261.18200189 456.096771939 261.18200189 456.096771939 263.470619768 572.695259735 c 0,25,26
 265.762904849 681.551322025 265.762904849 681.551322025 391.220426995 741.660940418 c 0,27,28
 476.075808334 782.006873445 476.075808334 782.006873445 665.118949568 782.323256441 c 0,29,30
 914.949055669 782.008858973 914.949055669 782.008858973 1006.06147896 697.83948849 c 0,31,32
 1036.51036952 670.014060783 1036.51036952 670.014060783 1051.36627118 638.573244732 c 128,-1,33
 1066.22217284 607.132428681 1066.22217284 607.132428681 1066.40549456 570.973583355 c 0,34,35
 1066.02399832 392.261250422 1066.02399832 392.261250422 795.11177803 260.179491777 c 2,36,-1
 766.374233558 246.168660486 l 1,37,-1
 793.257572193 228.864442514 l 2,38,39
 884.707688241 170 884.707688241 170 1139.4453125 170 c 2,40,-1
 1281.9765625 170 l 2,41,42
 1302.0845053 170 1302.0845053 170 1314.30300514 163.37422409 c 128,-1,43
 1326.52150498 156.748448181 1326.52150498 156.748448181 1332.74903374 141.093587219 c 128,-1,44
 1338.9765625 125.438726257 1338.9765625 125.438726257 1338.9765625 99 c 2,45,-1
 1338.97656314 87.9952059661 l 2,46,47
 1338.98681699 49.4954014795 1338.98681699 49.4954014795 1325.53120741 33.7477007397 c 128,-1,48
 1312.07559783 18 1312.07559783 18 1281.9765625 18 c 2,0,-1
914.818688825 541.619862523 m 0,49,50
 914.027819237 580.566906816 914.027819237 580.566906816 881.600508122 605.038597695 c 128,-1,51
 849.173197007 629.510288575 849.173197007 629.510288575 795.152615529 639.547379665 c 128,-1,52
 741.132034051 649.584470755 741.132034051 649.584470755 661.815283266 649.885739618 c 0,53,54
 429.988070702 650.009628151 429.988070702 650.009628151 430.055685293 548.269833512 c 0,55,56
 429.986683855 503.343844683 429.986683855 503.343844683 513.098545662 437.047952462 c 0,57,58
 577.321973011 385.348172105 577.321973011 385.348172105 606.524604586 362.608249459 c 128,-1,59
 635.727236161 339.868326813 635.727236161 339.868326813 645.238934699 334.771759984 c 2,60,-1
 652.183531142 331.050700099 l 1,61,-1
 659.628707334 333.628113124 l 2,62,63
 693.535335408 345.36610059 693.535335408 345.36610059 724.691254884 359.569987728 c 128,-1,64
 755.84717436 373.773874865 755.84717436 373.773874865 784.411675813 390.546017971 c 128,-1,65
 812.976177266 407.318161076 812.976177266 407.318161076 838.817469664 426.612992733 c 0,66,67
 916.224399996 485.221097128 916.224399996 485.221097128 914.818688825 541.619862523 c 0,49,50
EndSplineSet
EndChar

StartChar: uniFECB
Encoding: 65227 65227 214
Width: 1063
VWidth: 2553
GlyphClass: 2
Flags: W
AnchorPoint: "Anchor-10" 394.602 1421.91 basechar 0
AnchorPoint: "Anchor-7" 545.228 -262.038 basechar 0
LayerCount: 2
Fore
SplineSet
-5.0234375 18 m 2,0,1
 -35.1574732163 18 -35.1574732163 18 -48.5853285969 33.7507202668 c 128,-1,2
 -62.0131839774 49.5014405337 -62.0131839774 49.5014405337 -62.0234375 88 c 2,3,-1
 -62.0234375 99 l 2,4,5
 -62.0234375 138.054748435 -62.0234375 138.054748435 -48.5248498978 154.027374217 c 128,-1,6
 -35.0262622955 170 -35.0262622955 170 -5.0234375 170 c 2,7,-1
 356.876361709 170 l 1,8,-1
 320.484640398 201.592584226 l 2,9,10
 185.01679219 319.195688735 185.01679219 319.195688735 185.352462525 483.139435498 c 0,11,12
 185.972564269 648.643721239 185.972564269 648.643721239 289.80683886 755.029222459 c 0,13,14
 394.572431542 862.00635499 394.572431542 862.00635499 584.291885234 862.1651273 c 0,15,16
 775.879786638 862.012073351 775.879786638 862.012073351 891.346543903 726.903298234 c 1,17,-1
 833.908706487 621.712550603 l 1,18,19
 782.964955708 665.755398061 782.964955708 665.755398061 721.382231652 687.81260817 c 128,-1,20
 659.799507596 709.869818279 659.799507596 709.869818279 588.649877672 709.749910535 c 0,21,22
 431.093301846 709.174215294 431.093301846 709.174215294 359.891746858 615.23098578 c 0,23,24
 317.031889113 558.038708099 317.031889113 558.038708099 316.584775164 474.042303579 c 0,25,26
 316.734930328 435.320643138 316.734930328 435.320643138 329.48494284 399.370734413 c 128,-1,27
 342.234955351 363.420825688 342.234955351 363.420825688 366.78343597 331.214337136 c 128,-1,28
 391.331916589 299.007848584 391.331916589 299.007848584 427.544588372 270.10445781 c 0,29,30
 503.710723973 208.966823548 503.710723973 208.966823548 585.479614051 209.394953456 c 0,31,32
 660.889455058 208.989583046 660.889455058 208.989583046 741.637502592 226.574966939 c 2,33,-1
 954 273.028543801 l 1,34,-1
 954 118.648582611 l 1,35,36
 591.900576684 18 591.900576684 18 304.7578125 18 c 2,37,-1
 -5.0234375 18 l 2,0,1
EndSplineSet
EndChar

StartChar: uniFECC
Encoding: 65228 65228 215
Width: 1104
VWidth: 2553
GlyphClass: 2
Flags: W
AnchorPoint: "Anchor-10" 505.677 1208.6 basechar 0
AnchorPoint: "Anchor-7" 456.382 -263.212 basechar 0
LayerCount: 2
Fore
SplineSet
1108.9765625 18 m 2,0,-1
 1058.58203125 18 l 2,1,2
 731.779642038 18 731.779642038 18 567.725006393 135.46343811 c 2,3,-1
 556.538595705 143.472929913 l 1,4,-1
 545.874000353 134.780740948 l 2,5,6
 402.593711342 18 402.593711342 18 35.9580078125 18 c 2,7,-1
 -5.0234375 18 l 2,8,9
 -35.1574732163 18 -35.1574732163 18 -48.5853285969 33.7507202668 c 128,-1,10
 -62.0131839774 49.5014405337 -62.0131839774 49.5014405337 -62.0234375 88 c 2,11,-1
 -62.0234375 99 l 2,12,13
 -62.0234375 138.054748435 -62.0234375 138.054748435 -48.5248498978 154.027374217 c 128,-1,14
 -35.0262622955 170 -35.0262622955 170 -5.0234375 170 c 2,15,-1
 35.330078125 170 l 2,16,17
 339.305840133 170 339.305840133 170 424.183652279 213.072551574 c 2,18,-1
 454.889334427 228.654622371 l 1,19,-1
 424.569085918 244.974008906 l 2,20,21
 137.244084334 399.622073897 137.244084334 399.622073897 140.470812063 542.704504268 c 0,22,23
 142.768451244 654.544268207 142.768451244 654.544268207 262.220426995 711.660940418 c 0,24,25
 347.075418014 752.006687861 347.075418014 752.006687861 542.111894633 752.323266702 c 0,26,27
 734.437262679 752.005855382 734.437262679 752.005855382 837.204554635 709.84763405 c 0,28,29
 891.990205757 687.511834847 891.990205757 687.511834847 919.122828086 646.034707134 c 128,-1,30
 946.255450416 604.557579421 946.255450416 604.557579421 947.348573965 540.745324596 c 0,31,32
 948.886714942 403.04145144 948.886714942 403.04145144 678.633964643 238.37131685 c 2,33,-1
 645.02648732 217.893642495 l 1,34,-1
 682.496924545 205.861850726 l 2,35,36
 794.180973949 170 794.180973949 170 1065.32910156 170 c 2,37,-1
 1108.9765625 170 l 2,38,39
 1139.06324108 170 1139.06324108 170 1152.52504478 154.029633871 c 128,-1,40
 1165.98684847 138.059267741 1165.98684847 138.059267741 1165.9765625 99 c 2,41,-1
 1165.97656314 87.9952059661 l 2,42,43
 1165.98681699 49.4954014795 1165.98681699 49.4954014795 1152.53120741 33.7477007397 c 128,-1,44
 1139.07559783 18 1139.07559783 18 1108.9765625 18 c 2,0,-1
788.81746597 511.680083074 m 0,45,46
 786.639637837 618.929078337 786.639637837 618.929078337 548.814853465 619.885739842 c 0,47,48
 306.988608718 620.009197565 306.988608718 620.009197565 307.055680457 514.266481852 c 0,49,50
 306.987134919 463.480250377 306.987134919 463.480250377 391.299660717 406.160581444 c 0,51,52
 439.002532903 373.888599538 439.002532903 373.888599538 469.377296049 353.867763677 c 128,-1,53
 499.752059195 333.846927816 499.752059195 333.846927816 521.030273436 320.891923101 c 128,-1,54
 542.308487678 307.936918387 542.308487678 307.936918387 551.887564758 303.993149084 c 2,55,-1
 557.48943733 301.686821147 l 1,56,-1
 563.345839381 303.236879167 l 2,57,58
 574.051677359 306.0704739 574.051677359 306.0704739 594.922271215 319.441121646 c 128,-1,59
 615.792865071 332.811769393 615.792865071 332.811769393 639.952500388 350.763114514 c 128,-1,60
 664.112135706 368.714459635 664.112135706 368.714459635 710.926726352 404.695921867 c 0,61,62
 749.961243805 434.513956032 749.961243805 434.513956032 769.796623872 460.217856116 c 128,-1,63
 789.63200394 485.921756199 789.63200394 485.921756199 788.81746597 511.680083074 c 0,45,46
EndSplineSet
EndChar

StartChar: uniFEDA
Encoding: 65242 65242 229
Width: 2039
VWidth: 2553
GlyphClass: 2
Flags: W
AnchorPoint: "Anchor-10" 637.624 1529.46 basechar 0
AnchorPoint: "Anchor-7" 544.902 -313.681 basechar 0
LayerCount: 2
Fore
SplineSet
2044.72643421 16.9335937499 m 2,0,-1
 1987.76098898 16.9335927143 l 2,1,2
 1924.64001879 16.9550053446 1924.64001879 16.9550053446 1872.18155788 30.4288088817 c 128,-1,3
 1819.72309697 43.9026124189 1819.72309697 43.9026124189 1777.93813686 70.5164853141 c 128,-1,4
 1736.15317675 97.1303582093 1736.15317675 97.1303582093 1703.94156445 137.167999771 c 2,5,-1
 1689.90557532 154.614127491 l 1,6,-1
 1675.88345658 137.156849648 l 2,7,8
 1579.31715429 16.93359375 1579.31715429 16.93359375 1395.66992188 16.93359375 c 2,9,-1
 493.998612304 16.9335934107 l 2,10,11
 330.504769558 16.9653395159 330.504769558 16.9653395159 243.859310151 105.960344309 c 128,-1,12
 157.213850744 194.955349102 157.213850744 194.955349102 143.624174166 378.668445047 c 0,13,14
 140.195904509 422.218751679 140.195904509 422.218751679 140.195312491 440.82674455 c 2,15,-1
 140.189049246 637.689453125 l 1,16,-1
 282.944335938 637.689453125 l 1,17,-1
 282.944336339 451.567487612 l 2,18,19
 282.973173891 315.020667983 282.973173891 315.020667983 337.26616964 242.625568366 c 128,-1,20
 391.559165389 170.23046875 391.559165389 170.23046875 498.510742188 170.23046875 c 2,21,-1
 1402.93694843 170.230585672 l 2,22,23
 1508.93652316 170.612646686 1508.93652316 170.612646686 1563.69628893 233.874350519 c 128,-1,24
 1618.45605469 297.136054352 1618.45605469 297.136054352 1618.45605469 416.446289062 c 2,25,-1
 1618.45605469 1349.18847656 l 1,26,-1
 1761.21289062 1349.18847656 l 1,27,-1
 1761.21290112 391.080969288 l 2,28,29
 1761.13692123 320.750423987 1761.13692123 320.750423987 1788.38994335 271.935486292 c 128,-1,30
 1815.64296547 223.120548598 1815.64296547 223.120548598 1868.39382101 197.586229168 c 128,-1,31
 1921.14467654 172.051909738 1921.14467654 172.051909738 1997.68772446 170.117076039 c 2,32,-1
 2044.27210278 168.939530718 l 2,33,34
 2074.61305206 168.160063732 2074.61305206 168.160063732 2088.17371353 152.072214556 c 128,-1,35
 2101.734375 135.98436538 2101.734375 135.98436538 2101.734375 97.93359375 c 2,36,-1
 2101.73445712 86.8792205806 l 2,37,38
 2101.85058446 48.4359493719 2101.85058446 48.4359493719 2088.40650877 32.6981100491 c 128,-1,39
 2074.96243308 16.9602707262 2074.96243308 16.9602707262 2044.72643421 16.9335937499 c 2,0,-1
732.304209401 725.78479358 m 2,40,41
 767.112744382 721.39838373 767.112744382 721.39838373 793.93547934 719.317208771 c 128,-1,42
 820.758214297 717.236033812 820.758214297 717.236033812 839.796878913 717.490814676 c 0,43,44
 891.098456554 717.322020851 891.098456554 717.322020851 930.78338496 722.858157118 c 128,-1,45
 970.468313366 728.394293386 970.468313366 728.394293386 1001.32796294 740.988596557 c 128,-1,46
 1032.18761251 753.582899729 1032.18761251 753.582899729 1051.45564974 773.390797095 c 0,47,48
 1085.97208039 808.623740611 1085.97208039 808.623740611 1086.09967518 842.17741641 c 0,49,50
 1085.97050453 909.357550525 1085.97050453 909.357550525 980.042260602 926.278813217 c 0,51,52
 958.373564047 929.72284753 958.373564047 929.72284753 940.153212959 935.064904381 c 128,-1,53
 921.932861871 940.406961231 921.932861871 940.406961231 907.712600105 947.38842824 c 128,-1,54
 893.49233834 954.369895248 893.49233834 954.369895248 882.799952435 962.712881865 c 128,-1,55
 872.10756653 971.055868481 872.10756653 971.055868481 864.634194256 980.89680934 c 0,56,57
 815.948569746 1045.44385739 815.948569746 1045.44385739 837.194124777 1113.08706629 c 0,58,59
 880.408319031 1249.70483961 880.408319031 1249.70483961 1132.81912311 1268.45963945 c 2,60,-1
 1142.75488281 1269.19789305 l 1,61,-1
 1142.75488281 1204.75335028 l 1,62,-1
 1134.27196138 1204.06324824 l 2,63,64
 903.302905092 1185.50161876 903.302905092 1185.50161876 901.631793842 1073.44383174 c 0,65,66
 902.098684074 1011.92980192 902.098684074 1011.92980192 967.842290295 990.356819757 c 0,67,68
 982.539468127 985.308622272 982.539468127 985.308622272 1003.12970046 980.936493803 c 128,-1,69
 1023.71993279 976.564365334 1023.71993279 976.564365334 1050.27026555 972.763682752 c 0,70,71
 1059.53090681 971.391703119 1059.53090681 971.391703119 1068.06542584 969.153739539 c 128,-1,72
 1076.59994486 966.915775958 1076.59994486 966.915775958 1084.40796649 963.826128023 c 128,-1,73
 1092.21598811 960.736480088 1092.21598811 960.736480088 1099.39476532 956.758132667 c 128,-1,74
 1106.57354253 952.779785246 1106.57354253 952.779785246 1113.09174287 947.962378388 c 128,-1,75
 1119.60994321 943.14497153 1119.60994321 943.14497153 1125.59577695 937.416149649 c 0,76,77
 1153.95255604 910.343943259 1153.95255604 910.343943259 1153.64907359 861.016633807 c 0,78,79
 1153.96775812 809.188232813 1153.96775812 809.188232813 1133.10922644 776.39442123 c 0,80,81
 1026.90463746 607.358094437 1026.90463746 607.358094437 729.719179657 653.809459912 c 2,82,-1
 721.897460938 655.032028195 l 1,83,-1
 721.897460938 727.096203669 l 1,84,-1
 732.304209401 725.78479358 l 2,40,41
EndSplineSet
EndChar

StartChar: uniFEDB
Encoding: 65243 65243 230
Width: 888
VWidth: 2553
GlyphClass: 2
Flags: W
AnchorPoint: "Anchor-10" 296.18 1446.67 basechar 0
AnchorPoint: "Anchor-7" 421.179 -274.565 basechar 0
LayerCount: 2
Fore
SplineSet
-5.01904795916 17.9999994648 m 2,0,1
 -35.1688235509 18.0073518912 -35.1688235509 18.0073518912 -48.5961305255 33.757756309 c 128,-1,2
 -62.0234375 49.5081607269 -62.0234375 49.5081607269 -62.0234375 88 c 2,3,-1
 -62.0234381241 98.9952598316 l 2,4,5
 -62.0131527718 138.052171324 -62.0131527718 138.052171324 -48.5134710142 154.026085662 c 128,-1,6
 -35.0137892566 170 -35.0137892566 170 -5.0234375 170 c 2,7,-1
 342.91796875 170 l 2,8,9
 450.81482531 170 450.81482531 170 509.560281709 208.07482889 c 128,-1,10
 568.305738108 246.149657781 568.305738108 246.149657781 568.707765141 322.675087616 c 0,11,12
 569.034812596 385.657426922 569.034812596 385.657426922 457.178759299 513.186567088 c 2,13,-1
 186.38948916 821.918385833 l 2,14,15
 129.078135744 887.246963701 129.078135744 887.246963701 107.98173643 916.302171729 c 0,16,17
 85.4715987112 946.362705807 85.4715987112 946.362705807 89.562604728 998.947648346 c 0,18,19
 98.9667378133 1109.12741668 98.9667378133 1109.12741668 195.221782767 1142.81721978 c 2,20,-1
 818.5 1360.96807541 l 1,21,-1
 818.5 1214.72281868 l 1,22,-1
 216.047825754 1004.15793104 l 1,23,-1
 553.443553692 620.589713892 l 2,24,25
 711.26011014 441.055065894 711.26011014 441.055065894 694.793458782 287.3590443 c 0,26,27
 686.859728575 214.899390663 686.859728575 214.899390663 652.291724109 158.972597098 c 128,-1,28
 617.723719643 103.045803534 617.723719643 103.045803534 555.460376536 62.0805667647 c 0,29,30
 522.0398032 40.046521466 522.0398032 40.046521466 481.172291826 28.9689613768 c 128,-1,31
 440.304780451 17.8914012876 440.304780451 17.8914012876 391.431147353 17.9033197773 c 2,32,-1
 -5.01904795916 17.9999994648 l 2,0,1
EndSplineSet
EndChar

StartChar: uniFEDC
Encoding: 65244 65244 231
Width: 1066
VWidth: 2553
GlyphClass: 2
Flags: W
AnchorPoint: "Anchor-10" 293.27 1381.68 basechar 0
AnchorPoint: "Anchor-7" 307.814 -331.873 basechar 0
LayerCount: 2
Fore
SplineSet
1071.01065112 17.51953125 m 2,0,-1
 1056.49291403 17.5194805586 l 2,1,2
 863.259224765 17.9780760615 863.259224765 17.9780760615 711.235590876 230.037325848 c 2,3,-1
 690.863748444 258.454207567 l 1,4,-1
 679.571096927 225.363315279 l 2,5,6
 608.19211834 16.2012696432 608.19211834 16.2012696432 358.568426011 16.9335163069 c 2,7,-1
 -5.0234375 18 l 2,8,9
 -25.1924327605 18 -25.1924327605 18 -37.4171980858 24.5539171622 c 128,-1,10
 -49.6419634111 31.1078343245 -49.6419634111 31.1078343245 -55.8327004556 46.5251386568 c 128,-1,11
 -62.0234375 61.9424429891 -62.0234375 61.9424429891 -62.0234375 88 c 2,12,-1
 -62.0234381241 98.9952598316 l 2,13,14
 -62.0131527718 138.052171324 -62.0131527718 138.052171324 -48.5134710142 154.026085662 c 128,-1,15
 -35.0137892566 170 -35.0137892566 170 -5.0234375 170 c 2,16,-1
 340.0078125 170 l 2,17,18
 447.853569113 170 447.853569113 170 506.59887357 207.801299829 c 128,-1,19
 565.344178027 245.602599658 565.344178027 245.602599658 565.798712811 321.734397608 c 0,20,21
 565.881775455 344.939519623 565.881775455 344.939519623 552.610302645 374.266989575 c 128,-1,22
 539.338829835 403.594459527 539.338829835 403.594459527 515.41734454 436.683355456 c 128,-1,23
 491.495859246 469.772251385 491.495859246 469.772251385 454.268621661 512.215842744 c 2,24,-1
 183.434547619 820.999720105 l 2,25,26
 160.576932455 846.65637891 160.576932455 846.65637891 140.988860379 870.290431552 c 128,-1,27
 121.400788303 893.924484195 121.400788303 893.924484195 104.955696848 915.675869495 c 0,28,29
 82.484304914 945.398045595 82.484304914 945.398045595 86.6498180598 997.933918603 c 0,30,31
 95.9932277975 1109.25123481 95.9932277975 1109.25123481 192.292665977 1142.81118667 c 2,32,-1
 815.58984375 1360.02764898 l 1,33,-1
 815.58984375 1213.81656873 l 1,34,-1
 212.727168936 1006.27060319 l 1,35,-1
 806.917323967 331.720174725 l 2,36,37
 947.940860757 171.929185315 947.940860757 171.929185315 1046.20002964 170.003455905 c 2,38,-1
 1070.70341421 169.523231213 l 2,39,40
 1100.98729121 168.909107498 1100.98729121 168.909107498 1114.5278253 152.844524975 c 128,-1,41
 1128.06835938 136.779942451 1128.06835938 136.779942451 1128.06835938 98.51953125 c 2,42,-1
 1128.06836487 87.5335906085 l 2,43,44
 1128.03847666 49.2681384219 1128.03847666 49.2681384219 1114.57907671 33.4903657927 c 128,-1,45
 1101.11967677 17.7125931635 1101.11967677 17.7125931635 1071.01065112 17.51953125 c 2,0,-1
EndSplineSet
EndChar

StartChar: uniFEDE
Encoding: 65246 65246 233
Width: 1487
VWidth: 2553
GlyphClass: 2
Flags: W
AnchorPoint: "Anchor-10" 462.754 1161.62 basechar 0
AnchorPoint: "Anchor-7" 288.91 -677.293 basechar 0
LayerCount: 2
Fore
SplineSet
1491.9765625 18 m 2,0,-1
 1470.84960938 18 l 2,1,2
 1315.90497062 18 1315.90497062 18 1258.99458791 92.5572480876 c 2,3,-1
 1227.4989187 133.819146376 l 1,4,-1
 1226.25691313 54.2547215527 l 2,5,6
 1222.72617246 -180.799740342 1222.72617246 -180.799740342 1097.53392023 -300.076429445 c 128,-1,7
 972.341668004 -419.353118549 972.341668004 -419.353118549 719.880240026 -427.076777083 c 2,8,-1
 701.098747053 -427.651367188 l 1,9,-1
 674.177716079 -427.651370404 l 2,10,11
 388.751050653 -427.821999806 388.751050653 -427.821999806 248.983404709 -296.23329207 c 128,-1,12
 109.215758765 -164.644584334 109.215758765 -164.644584334 109.121092626 103.282727086 c 2,13,-1
 109.006359841 428.003342011 l 1,14,-1
 251.877929688 428.029861675 l 1,15,-1
 251.87793072 104.443122841 l 2,16,17
 251.941424025 -83.0399072746 251.941424025 -83.0399072746 359.718519833 -178.697199731 c 128,-1,18
 467.495615641 -274.354492188 467.495615641 -274.354492188 676.356445312 -274.354492188 c 2,19,-1
 701.835029126 -274.354492188 l 1,20,-1
 729.774231356 -273.760001212 l 2,21,22
 817.815991278 -271.758994925 817.815991278 -271.758994925 885.035396451 -249.675232537 c 128,-1,23
 952.254801625 -227.591470149 952.254801625 -227.591470149 997.645298707 -186.012205597 c 128,-1,24
 1043.03579579 -144.432941046 1043.03579579 -144.432941046 1066.20015658 -83.0299956521 c 128,-1,25
 1089.36451737 -21.6270502582 1089.36451737 -21.6270502582 1089.36523438 58.4158543851 c 2,26,-1
 1089.37679188 1348.63671875 l 1,27,-1
 1227.29882812 1348.63671875 l 1,28,-1
 1227.29884143 433.787511308 l 2,29,30
 1227.14248206 305.192660136 1227.14248206 305.192660136 1287.35451144 237.596330068 c 128,-1,31
 1347.56654082 170 1347.56654082 170 1464.24902344 170 c 2,32,-1
 1491.9765625 170 l 2,33,34
 1512.0845053 170 1512.0845053 170 1524.30300514 163.37422409 c 128,-1,35
 1536.52150498 156.748448181 1536.52150498 156.748448181 1542.74903374 141.093587219 c 128,-1,36
 1548.9765625 125.438726257 1548.9765625 125.438726257 1548.9765625 99 c 2,37,-1
 1548.97656314 87.9952059661 l 2,38,39
 1548.98681699 49.4954014795 1548.98681699 49.4954014795 1535.53120741 33.7477007397 c 128,-1,40
 1522.07559783 18 1522.07559783 18 1491.9765625 18 c 2,0,-1
EndSplineSet
EndChar

StartChar: uniFEDF
Encoding: 65247 65247 234
Width: 589
VWidth: 2553
GlyphClass: 2
Flags: W
AnchorPoint: "Anchor-10" 345.682 1513.64 basechar 0
AnchorPoint: "Anchor-7" 181.01 -242.415 basechar 0
LayerCount: 2
Fore
SplineSet
-5.0234375 18 m 2,0,1
 -25.1924327605 18 -25.1924327605 18 -37.4171980858 24.5539171622 c 128,-1,2
 -49.6419634111 31.1078343245 -49.6419634111 31.1078343245 -55.8327004556 46.5251386568 c 128,-1,3
 -62.0234375 61.9424429891 -62.0234375 61.9424429891 -62.0234375 88 c 2,4,-1
 -62.0234381241 98.9952598316 l 2,5,6
 -62.0131527718 138.052171324 -62.0131527718 138.052171324 -48.5134710142 154.026085662 c 128,-1,7
 -35.0137892566 170 -35.0137892566 170 -5.0234375 170 c 2,8,-1
 96.9697265625 170 l 2,9,10
 196.279164749 170 196.279164749 170 247.618097999 229.968991414 c 128,-1,11
 298.95703125 289.937982828 298.95703125 289.937982828 298.95703125 402.866210938 c 2,12,-1
 298.95703125 1350.15820312 l 1,13,-1
 441.71484375 1350.15820312 l 1,14,-1
 441.714848442 394.925480079 l 2,15,16
 441.784209763 298.860762866 441.784209763 298.860762866 420.600383916 228.031453373 c 128,-1,17
 399.416558069 157.202143879 399.416558069 157.202143879 356.320522222 110.487362817 c 128,-1,18
 313.224486375 63.7725817545 313.224486375 63.7725817545 248.500895756 40.8862908772 c 128,-1,19
 183.777305136 18 183.777305136 18 96.173828125 18 c 2,20,-1
 -5.0234375 18 l 2,0,1
EndSplineSet
EndChar

StartChar: uniFEE0
Encoding: 65248 65248 235
Width: 699
VWidth: 2553
GlyphClass: 2
Flags: W
AnchorPoint: "Anchor-10" 373.225 1605.2 basechar 0
AnchorPoint: "Anchor-7" 291.065 -292.554 basechar 0
LayerCount: 2
Fore
SplineSet
704.518554688 18 m 2,0,-1
 659.068359375 18 l 2,1,2
 500.223685768 18 500.223685768 18 384.841508982 151.24129703 c 2,3,-1
 370.472457502 167.834423538 l 1,4,-1
 357.014531131 150.494132147 l 2,5,6
 254.184870726 18 254.184870726 18 89.7177734375 18 c 2,7,-1
 -5.0234375 18 l 2,8,9
 -25.1924327605 18 -25.1924327605 18 -37.4171980858 24.5539171622 c 128,-1,10
 -49.6419634111 31.1078343245 -49.6419634111 31.1078343245 -55.8327004556 46.5251386568 c 128,-1,11
 -62.0234375 61.9424429891 -62.0234375 61.9424429891 -62.0234375 88 c 2,12,-1
 -62.0234381241 98.9952598316 l 2,13,14
 -62.0131527718 138.052171324 -62.0131527718 138.052171324 -48.5134710142 154.026085662 c 128,-1,15
 -35.0137892566 170 -35.0137892566 170 -5.0234375 170 c 2,16,-1
 87.873046875 170 l 2,17,18
 193.836725008 170 193.836725008 170 247.884182817 239.33537658 c 128,-1,19
 301.931640625 308.67075316 301.931640625 308.67075316 301.931640625 439.43359375 c 2,20,-1
 301.931640625 1349.72753906 l 1,21,-1
 441.02734375 1349.72753906 l 1,22,-1
 441.027343857 438.260755776 l 2,23,24
 441.017879574 351.640588428 441.017879574 351.640588428 466.446687272 291.921333041 c 128,-1,25
 491.875494971 232.202077654 491.875494971 232.202077654 542.943330555 201.101038827 c 128,-1,26
 594.01116614 170 594.01116614 170 668.973632812 170 c 2,27,-1
 704.518554688 170 l 2,28,29
 724.626497487 170 724.626497487 170 736.844997329 163.37422409 c 128,-1,30
 749.063497172 156.748448181 749.063497172 156.748448181 755.29102593 141.093587219 c 128,-1,31
 761.518554688 125.438726257 761.518554688 125.438726257 761.518554688 99 c 2,32,-1
 761.518824066 87.9015240236 l 2,33,34
 761.729200097 49.4483699902 761.729200097 49.4483699902 748.290754408 33.7241849951 c 128,-1,35
 734.852308719 18 734.852308719 18 704.518554688 18 c 2,0,-1
EndSplineSet
EndChar

